<svg id="active_appointment" xmlns="http://www.w3.org/2000/svg" xmlns:xlink="http://www.w3.org/1999/xlink" width="24" height="24" viewBox="0 0 24 24">
  <defs>
    <clipPath id="clip-path">
      <rect id="Rectangle_1285" data-name="Rectangle 1285" width="24" height="24" transform="translate(1650 653)" fill="#014e78"/>
    </clipPath>
  </defs>
  <g id="appointment" transform="translate(-1650 -653)" clip-path="url(#clip-path)">
    <g id="Layer_1" data-name="Layer 1" transform="translate(1650.567 653)">
      <g id="appointments">
        <path id="Path_12743" data-name="Path 12743" d="M17.182,24a5.677,5.677,0,0,1-5.251-3.553H6.493q-1.917,0-3.834,0a2.6,2.6,0,0,1-2.625-2.2A3.251,3.251,0,0,1,0,17.687C0,12.782,0,8.38,0,4.229A2.616,2.616,0,0,1,2.759,1.467H4.616V1.272c0-.2,0-.39,0-.582C4.619.261,4.836,0,5.2,0H5.2c.358,0,.583.26.585.68,0,.192,0,.385,0,.582v.189h6.735V1.271c0-.2,0-.4,0-.6,0-.417.228-.675.588-.675h.011c.35.006.57.262.576.668,0,.192,0,.385,0,.589,0,.068,0,.138,0,.21h.225c.109,0,.218,0,.327,0h.66c.346,0,.753.005,1.152.045A2.532,2.532,0,0,1,18.3,3.936c.021.774.018,1.56.015,2.321q0,.442,0,.884,0,1.9,0,3.793v1.842a5.684,5.684,0,0,1,3.742,2.651,5.318,5.318,0,0,1,.788,3.3,5.834,5.834,0,0,1-1.422,3.393A5.769,5.769,0,0,1,17.182,24ZM17.2,13.85a4.488,4.488,0,0,0-3.179,7.64,4.424,4.424,0,0,0,3.155,1.326h.018a4.5,4.5,0,0,0,4.495-4.478,4.5,4.5,0,0,0-4.48-4.489H17.2ZM1.176,9.737v7.93a1.472,1.472,0,0,0,1.6,1.6h8.662c.055,0,.11,0,.168-.006a5.715,5.715,0,0,1,5.519-6.6V6.419H1.176V9.737ZM17.139,5.22c0-.118,0-.235,0-.349,0-.312.008-.607-.008-.9A1.4,1.4,0,0,0,15.8,2.66c-.136-.006-.282-.009-.473-.009H13.718v0q0,.147,0,.293c0,.168,0,.343-.007.515a.59.59,0,0,1-.59.654h0a.589.589,0,0,1-.586-.662c0-.2,0-.4,0-.6V2.675H5.79v.2c0,.2,0,.393,0,.586a.589.589,0,1,1-1.17,0c0-.2,0-.394,0-.6v-.2l-.6,0-.655,0c-.327,0-.6,0-.846.009A1.344,1.344,0,0,0,1.236,3.728a7.474,7.474,0,0,0-.07,1.078c0,.136,0,.275-.01.414H17.137Z" fill="#014e78"/>
        <path id="Path_12744" data-name="Path 12744" d="M12.072,11.778H4.854c-.056,0-.117,0-.178-.007a.587.587,0,0,1-.542-.57.6.6,0,0,1,.522-.593A1.013,1.013,0,0,1,4.79,10.6h7.751a.606.606,0,0,1,.635.595.587.587,0,0,1-.619.58c-.142,0-.3,0-.485,0Z" fill="#014e78"/>
        <path id="Path_12745" data-name="Path 12745" d="M8.4,15.079H4.8a.608.608,0,0,1-.645-.444.576.576,0,0,1,.056-.437.56.56,0,0,1,.342-.267,1.14,1.14,0,0,1,.292-.031H9.314c.392,0,.644.178.692.487a.584.584,0,0,1-.123.476.663.663,0,0,1-.515.215c-.283,0-.59,0-.967,0Z" fill="#014e78"/>
        <path id="Path_12746" data-name="Path 12746" d="M16.54,20.688a.769.769,0,0,1-.526-.286l-.5-.494c-.42-.418-.854-.851-1.276-1.281a.631.631,0,0,1-.176-.607.571.571,0,0,1,.411-.4.586.586,0,0,1,.155-.021.643.643,0,0,1,.461.221l.544.546q.385.387.77.774a1.092,1.092,0,0,1,.115.147l0,.007.629-.6c.772-.738,1.5-1.435,2.246-2.135a1.034,1.034,0,0,1,.459-.246.5.5,0,0,1,.11-.013.516.516,0,0,1,.452.3.56.56,0,0,1-.045.625,1.557,1.557,0,0,1-.18.193l-.016.016L17.5,19.995l-.441.422a.771.771,0,0,1-.518.271h0Z" fill="#014e78"/>
      </g>
    </g>
  </g>
</svg>
