<svg id="address" xmlns="http://www.w3.org/2000/svg" width="18" height="18" viewBox="0 0 18 18">
  <rect id="Rectangle_17693" data-name="Rectangle 17693" width="18" height="18" fill="none"/>
  <path id="Path_13691" data-name="Path 13691" d="M7.349,0a7.375,7.375,0,0,1,7.182,5.869,7.163,7.163,0,0,1-2.974,7.515,10.807,10.807,0,0,0-2.891,3.175q-.292.494-.59.984a.815.815,0,0,1-1.468-.008A16.892,16.892,0,0,0,5,15.186,16.6,16.6,0,0,0,2.746,13.1,7.087,7.087,0,0,1,.027,8,7.317,7.317,0,0,1,6.02.145C6.457.063,6.906.047,7.349,0ZM4.08,7.384A3.263,3.263,0,1,0,7.385,4.111,3.271,3.271,0,0,0,4.08,7.384Z" transform="translate(1.656)" fill="#014e78"/>
</svg>
