<svg id="afternoon" xmlns="http://www.w3.org/2000/svg" width="21" height="21" viewBox="0 0 21 21">
  <rect id="Rectangle_17975" data-name="Rectangle 17975" width="21" height="21" fill="none"/>
  <g id="afternoon-2" data-name="afternoon" transform="translate(1.5 1.499)">
    <path id="Path_17651" data-name="Path 17651" d="M3.245,8.349a5.1,5.1,0,1,1,5.078,5.1,5.1,5.1,0,0,1-5.078-5.1Z" transform="translate(0.651 0.651)" fill="#014e78"/>
    <path id="Path_17652" data-name="Path 17652" d="M2.854,1.972a.926.926,0,0,1,.639.258c.293.29.589.577.874.876A.9.9,0,0,1,3.112,4.384c-.31-.29-.611-.591-.9-.9a.841.841,0,0,1-.159-.973.885.885,0,0,1,.8-.536Z" transform="translate(0.394 0.395)" fill="#014e78"/>
    <path id="Path_17653" data-name="Path 17653" d="M1.968,12.6a.894.894,0,0,1,.244-.64c.3-.3.593-.61.9-.9a.881.881,0,0,1,1.249.031.892.892,0,0,1,0,1.251c-.285.3-.576.591-.875.874a.846.846,0,0,1-.971.177.872.872,0,0,1-.551-.795Z" transform="translate(0.394 2.168)" fill="#014e78"/>
    <path id="Path_17654" data-name="Path 17654" d="M11.685,10.812a.921.921,0,0,1,.646.255c.294.29.589.578.874.875a.9.9,0,0,1-1.249,1.285c-.315-.294-.622-.6-.913-.915a.836.836,0,0,1-.152-.958.885.885,0,0,1,.793-.54Z" transform="translate(2.159 2.168)" fill="#014e78"/>
    <path id="Path_17655" data-name="Path 17655" d="M10.81,3.759a.911.911,0,0,1,.262-.664c.281-.285.56-.571.849-.848a.9.9,0,1,1,1.264,1.275c-.283.291-.567.583-.863.859a.841.841,0,0,1-.972.166.859.859,0,0,1-.539-.789Z" transform="translate(2.16 0.396)" fill="#014e78"/>
    <path id="Path_17656" data-name="Path 17656" d="M6.747,14c0-.2,0-.4,0-.6a.9.9,0,0,1,1.793-.036c.018.424.018.849,0,1.273A.9.9,0,0,1,6.747,14.6c0-.2,0-.4,0-.6Z" transform="translate(1.349 2.506)" fill="#014e78"/>
    <path id="Path_17657" data-name="Path 17657" d="M6.747,1.5c0-.2,0-.4,0-.6A.9.9,0,0,1,8.541.863c.017.424.018.849,0,1.273A.9.9,0,0,1,6.747,2.08C6.745,1.887,6.747,1.693,6.747,1.5Z" transform="translate(1.349 0)" fill="#014e78"/>
    <path id="Path_17658" data-name="Path 17658" d="M14,6.75c.206,0,.412,0,.618,0a.9.9,0,0,1,0,1.8q-.618.011-1.237,0a.9.9,0,0,1,0-1.8c.206-.006.412,0,.618,0Z" transform="translate(2.499 1.353)" fill="#014e78"/>
    <path id="Path_17659" data-name="Path 17659" d="M1.5,8.549c-.206,0-.412,0-.618,0a.9.9,0,0,1,.008-1.8c.406-.007.812-.006,1.218,0a.9.9,0,0,1,.012,1.8c-.206.006-.412,0-.618,0Z" transform="translate(0 1.353)" fill="#014e78"/>
  </g>
</svg>
