<svg id="appointment_fee" xmlns="http://www.w3.org/2000/svg" width="21.189" height="21.17" viewBox="0 0 21.189 21.17">
  <rect id="Rectangle_17714" data-name="Rectangle 17714" width="21" height="21" transform="translate(0.189 0.17)" fill="none"/>
  <path id="Path_13457" data-name="Path 13457" d="M20.956,14.666a3.79,3.79,0,0,1-.363.649,1.131,1.131,0,0,1-.937.372c-.1,0-.2,0-.337,0v.222q0,1.287,0,2.573a2.373,2.373,0,0,1-2.427,2.433q-2.639,0-5.279,0a1.159,1.159,0,0,1-.163-.005.406.406,0,0,1,.01-.808,1.825,1.825,0,0,1,.2,0h5.156a1.563,1.563,0,0,0,1.68-1.686q0-1.327,0-2.654a.679.679,0,0,0-.012-.071h-.209c-.948,0-1.9.01-2.844,0a2.2,2.2,0,0,1-.037-4.4c.954-.016,1.91,0,2.865,0H18.5v-.627c0-.721,0-1.443,0-2.164a1.552,1.552,0,0,0-1.621-1.62q-7.223,0-14.445,0A1.549,1.549,0,0,0,.82,8.47q0,5.013,0,10.026a1.548,1.548,0,0,0,1.6,1.6c1.746,0,3.492,0,5.238,0a1.827,1.827,0,0,1,.2,0,.406.406,0,0,1,.007.807,1.712,1.712,0,0,1-.225.005H2.549a2.373,2.373,0,0,1-2.52-2.029A.234.234,0,0,0,0,18.832V8.129a1.091,1.091,0,0,0,.038-.115,2.256,2.256,0,0,1,1.8-1.89,7.743,7.743,0,0,1,1.505-.074.444.444,0,0,0,.338-.14C5.335,4.255,6.995,2.61,8.64.95A2.844,2.844,0,0,1,10.192,0h.532A2.8,2.8,0,0,1,12.28.98c.273.294.563.574.855.85a.31.31,0,0,0,.224.083A2.056,2.056,0,0,1,15.7,3.039q.843,1.457,1.69,2.912a.406.406,0,0,0,.2.176A2.383,2.383,0,0,1,19.32,8.5q0,1.276,0,2.552v.22c.135,0,.237,0,.339,0a1.148,1.148,0,0,1,.979.415,3.532,3.532,0,0,1,.319.606v2.37ZM7.694,6.031h8.779c-.032-.061-.052-.1-.075-.143q-.73-1.262-1.461-2.525a1.228,1.228,0,0,0-1.782-.48c-.65.371-1.3.747-1.946,1.12L7.694,6.03Zm9.846,8.838h0q1.053,0,2.105,0c.337,0,.491-.151.492-.484q0-.9,0-1.8c0-.349-.148-.5-.5-.5-1.376,0-2.753,0-4.13,0a1.61,1.61,0,0,0-.462.068,1.383,1.383,0,0,0,.384,2.7c.7.011,1.4,0,2.105,0ZM4.711,6.046c.417,0,.785.006,1.153,0a.675.675,0,0,0,.306-.081Q9.25,4.193,12.326,2.417c.044-.026.083-.059.136-.1-.361-.36-.707-.706-1.055-1.052a1.238,1.238,0,0,0-1.918,0l-4.612,4.6c-.046.046-.09.1-.166.177Z" transform="translate(-0.001 0.001)" fill="#014e78"/>
  <path id="Path_13458" data-name="Path 13458" d="M10.528,21.509a.408.408,0,1,1-.4-.408.413.413,0,0,1,.4.408Z" transform="translate(-0.461 -1)" fill="#014e78"/>
  <path id="Path_13459" data-name="Path 13459" d="M16.553,14.137a.4.4,0,0,1-.4.4.407.407,0,1,1,.012-.814.4.4,0,0,1,.392.413Z" transform="translate(-0.747 -0.65)" fill="#014e78"/>
</svg>
