<svg id="arrow" xmlns="http://www.w3.org/2000/svg" xmlns:xlink="http://www.w3.org/1999/xlink" width="26" height="26" viewBox="0 0 26 26">
  <defs>
    <clipPath id="clip-path">
      <rect id="Rectangle_11" data-name="Rectangle 11" width="26" height="26" rx="5" transform="translate(327 195)" fill="rgba(27,44,65,0.3)"/>
    </clipPath>
  </defs>
  <g id="arrow-2" data-name="arrow" transform="translate(-327 -195)" clip-path="url(#clip-path)">
    <g id="Layer_1" data-name="Layer 1" transform="translate(327 195)">
      <g id="arrow-3" data-name="arrow">
        <path id="Path_12755" data-name="Path 12755" d="M13,26A13,13,0,1,1,26,13,13.014,13.014,0,0,1,13,26ZM13,2.02A10.98,10.98,0,1,0,23.98,13,10.992,10.992,0,0,0,13,2.02Z" fill="rgba(27,44,65,0.3)"/>
        <path id="Path_12756" data-name="Path 12756" d="M14.858,13c-.1-.107-.163-.174-.227-.238Q12.653,10.779,10.673,8.8a1.016,1.016,0,0,1-.334-.977A.994.994,0,0,1,12,7.307c.031.028.06.059.09.088l4.759,4.76a1.021,1.021,0,0,1,0,1.642q-2.388,2.39-4.776,4.778a1.039,1.039,0,0,1-1.087.348.985.985,0,0,1-.515-1.541,2.572,2.572,0,0,1,.237-.261q1.957-1.964,3.916-3.927c.065-.065.142-.118.239-.2Z" fill="rgba(27,44,65,0.3)"/>
      </g>
    </g>
  </g>
</svg>
