<svg id="available_doctor" xmlns="http://www.w3.org/2000/svg" width="15" height="15" viewBox="0 0 15 15">
  <rect id="Rectangle_17787" data-name="Rectangle 17787" width="15" height="15" fill="none"/>
  <path id="Path_13729" data-name="Path 13729" d="M7.5,8.282A4.141,4.141,0,1,0,3.357,4.141,4.14,4.14,0,0,0,7.5,8.282Zm4.124,1.254H10.148a1,1,0,0,0-.823.431L8.3,11.441a1,1,0,0,1-1.655-.013L5.654,9.976a1,1,0,0,0-.832-.44H3.374A3.374,3.374,0,0,0,0,12.91v1.5a.5.5,0,0,0,.5.5H14.5a.5.5,0,0,0,.5-.5v-1.5a3.374,3.374,0,0,0-3.374-3.374Zm1.629,3.249a.213.213,0,0,1-.215.215h-.789v.789a.213.213,0,0,1-.215.215h-.646a.213.213,0,0,1-.215-.215V13h-.789a.213.213,0,0,1-.215-.215v-.646a.213.213,0,0,1,.215-.215h.789v-.789a.213.213,0,0,1,.215-.215h.646a.213.213,0,0,1,.215.215v.789h.789a.213.213,0,0,1,.215.215v.646Z" transform="translate(0 0.043)" fill="#014e78"/>
  <path id="Path_13730" data-name="Path 13730" d="M7.993,9.458H7.132a.539.539,0,0,0,0,1.077h.862a.539.539,0,0,0,0-1.077Z" transform="translate(0 0.043)" fill="#014e78"/>
</svg>
