<svg id="doctor" xmlns="http://www.w3.org/2000/svg" width="54" height="58" viewBox="0 0 54 58">
  <rect id="Rectangle_1294" data-name="Rectangle 1294" width="54" height="58" fill="none"/>
  <g id="Group_4963" data-name="Group 4963" transform="translate(0 0)">
    <path id="Path_12255" data-name="Path 12255" d="M25.242,123.743C11.324,123.743,0,112.147,0,97.895S11.324,72.047,25.242,72.047s25.242,11.6,25.242,25.848S39.16,123.743,25.242,123.743m0-51.266C11.56,72.477.43,83.879.43,97.895s11.131,25.418,24.812,25.418,24.812-11.4,24.812-25.418S38.923,72.477,25.242,72.477" transform="translate(0 -66.333)" fill="#5779aa"/>
    <path id="Path_12256" data-name="Path 12256" d="M2.711,100.39c0-14.157,11.2-25.633,25.027-25.633S52.764,86.233,52.764,100.39s-11.205,25.633-25.027,25.633S2.711,114.547,2.711,100.39" transform="translate(-2.496 -68.828)" fill="#bbe4f9" fill-rule="evenodd"/>
    <path id="Path_12257" data-name="Path 12257" d="M69.347,217.667c-.6,0-.045-.021-1.2,1.014a29.225,29.225,0,0,1-2.63,2c-1.913,1.35-4.268,2.413-5.818,4.274-2.037,2.444-1.847,5.111-2.641,8.059-.739,2.743-1.045,4.729-1.584,7.018-.408,1.733-.927,3.323-1.3,5.073a6.08,6.08,0,0,0,.919,5.078c.531.684,1.329.784,2.06,1.109a19.94,19.94,0,0,0,5.609,1.363c.43.048.907-.021,1.331.063a1.912,1.912,0,0,0,1.618-.095,6.008,6.008,0,0,0,1.709-2.25,1.216,1.216,0,0,0,.095-.412c-.027-.108-.376.018-.444.031-.389.078-.932-.117-.824-.6a15.323,15.323,0,0,1,.951-2.693c.1-.229.516-.837.38-1.109-.124-.249-.73-.212-.951-.19-.564.057-1.673.133-2.123-.317a2.8,2.8,0,0,1-.507-1.743c-.044-.312-.182-.6-.222-.919a7.824,7.824,0,0,0-.159-.887,2.272,2.272,0,0,0-.063-.317c-.016-.04-.031-.171-.031-.127a5.34,5.34,0,0,0,.254,1.046c.128.6.134,1.211.253,1.806.039.2.295.787,0,.824a1.09,1.09,0,0,1-.507-.1c-1.082-.416-.878-1.21-.38-2.123a5.207,5.207,0,0,0,.254-.57c.05-.124,0-.423.127-.38.1.033.118.448.127.507a13.769,13.769,0,0,0,.19,1.394c.544,2.177.829,4.911-.349,6.971-.311.545-.651,1.087-.982,1.616-.145.231-.4.646-.4.646a8.852,8.852,0,0,1,2.217.223c.214.1-.02,1.237.172,1.342a13.571,13.571,0,0,0,3.87,1.531,41.12,41.12,0,0,0,4.125.853,22.429,22.429,0,0,0,7.574-.6,27.586,27.586,0,0,0,4.056-1.046,15.1,15.1,0,0,0,4.737-2.7c.47-.369,1.335.111,1.791-.215a4.83,4.83,0,0,0,1.863-2.943,21.24,21.24,0,0,0,.989-4.187,24.737,24.737,0,0,0,.012-4.589c-.1-1.1-.362-2.519-.519-3.618-.232-1.628-1.044-3.083-1.394-4.658-.163-.735-.258-1.514-.38-2.25-.307-1.842-.384-4.292-1.965-5.609a15.586,15.586,0,0,0-3.137-1.616c-1.691-.846-3.374-1.691-5.039-2.6-1.056-.576-1.99-1.328-3.074-1.87-2.639-1.319-6.034-1.781-8.66-.468Z" transform="translate(-49.706 -199.718)" fill="#fff" fill-rule="evenodd"/>
    <path id="Path_12258" data-name="Path 12258" d="M182.186,674.171a.215.215,0,0,1-.215-.215v-1.029a.215.215,0,1,1,.43,0v1.029a.215.215,0,0,1-.215.215" transform="translate(-167.539 -619.359)" fill="#5779aa"/>
    <path id="Path_12259" data-name="Path 12259" d="M251.422,215.046a12.436,12.436,0,0,0,.795,7.484c.692,1.615,1.652,3.128,2.322,4.735.392.941.692,1.928,1.069,2.871a20.126,20.126,0,0,1,1.314,4.46c.08.557.153,1.129.214,1.68a4.286,4.286,0,0,0,.03.947c.075.186.491.153.642.153.514,0,1.022-.03,1.527-.03.2,0,.416.053.519-.153.255-.51.049-1.311.092-1.863.076-.994.12-2,.244-2.994.121-.971.359-1.915.55-2.871a22.79,22.79,0,0,0,.275-2.963c.11-1.75.418-3.452.611-5.193a9.859,9.859,0,0,0-.336-4.765c-.314-.732-1.293-1.024-1.925-1.375a8.474,8.474,0,0,0-4.338-1.405,3.81,3.81,0,0,0-2.26,1.253,3.646,3.646,0,0,0-.917,1.039Z" transform="translate(-231.249 -196.802)" fill="#e4f8ff" fill-rule="evenodd"/>
    <path id="Path_12260" data-name="Path 12260" d="M339.745,657.907a9.073,9.073,0,0,1,.183,1.283c.043.769.052,1.488.03,2.26,0,.16-.167,1.043.03,1.191.4.3,1.467-.061,1.894-.183.29-.083.153-.77.153-1.008,0-.847-.061-1.694-.061-2.535a3.153,3.153,0,0,0-.061-1.13c-.092-.138-.566-.061-.7-.061-.441,0-1.59-.361-1.466.183" transform="translate(-312.791 -605.451)" fill="#e4f8ff" fill-rule="evenodd"/>
    <path id="Path_12261" data-name="Path 12261" d="M189.94,581.734c-.631.631-.179.165-1.311,2.054a10.528,10.528,0,0,0-.723,1.455,8.818,8.818,0,0,0-.392,1.414c-.035.162-.118.38-.031.537.162.291.91.217,1.156.217a1.3,1.3,0,0,0,.692-.1c.184-.123.307-.48.4-.671a10.619,10.619,0,0,0,.784-2.89c.1-.551.456-1.933-.341-2.2Z" transform="translate(-172.578 -535.424)" fill="#e4f8ff" fill-rule="evenodd"/>
    <path id="Path_12262" data-name="Path 12262" d="M486.253,536.078a9.294,9.294,0,0,1-1.529,2.815c-.44.441-1.261.4-1.636.824-.282.322-.088.622.276.749,1.479.514,2.476-1.138,3.074-2.2a6.418,6.418,0,0,0,.56-1.15,5.336,5.336,0,0,0,.373-1.814c0-.089-.166-.655-.291-.369Z" transform="translate(-444.65 -492.433)" fill="#e4f8ff" fill-rule="evenodd"/>
    <path id="Path_12263" data-name="Path 12263" d="M218.361,212.021c-.093-.342-.716.444-.913.64a7.251,7.251,0,0,0-1.953,3.394,17.044,17.044,0,0,0-.16,6.628c.11.988.589,2.049.384,3.074-.112.56-.719.619-1.057,1.025a2.614,2.614,0,0,0-.32,1.12c-.245.982.963,1.756,1.761,1.889,1.176.2,2-1.458,1.761-2.433a1.951,1.951,0,0,0-1.056-1.281c-.123-.031-.563.013-.64-.064-.133-.133-.1-.934-.128-1.121-.115-.8.017-1.624-.064-2.434-.046-.461-.236-.911-.288-1.377a10.79,10.79,0,0,1,.7-5.764,16.875,16.875,0,0,1,1.153-1.985c.31-.516.989-.676.817-1.313" transform="translate(-197.313 -195.126)" fill="#b2c0cb" fill-rule="evenodd"/>
    <path id="Path_12264" data-name="Path 12264" d="M356.464,234.988c-.2.1-.082,1.336-.082,1.535,0,1.407.3,2.908.184,4.318-.016.189-.022.615-.164.757-.21.21-.565.173-.819.246a1.379,1.379,0,0,0-.9.962,30.888,30.888,0,0,0-.184,4.072,23.556,23.556,0,0,0,.041,4.768c.164,1.149.252,2.6,1.657,2.947.326.082.8-.306.491-.614-.329-.329-.891-.064-1.29-.164-.805-.2-.73-1.347-.88-1.944s.079-1.263-.02-1.862a11.6,11.6,0,0,1,.122-4.4c.053-.212.37-.189.41-.348a9.325,9.325,0,0,0-.02-1.044c.136-1.086.353-1.6,1.371-2.005a2.936,2.936,0,0,1,.778-.164c.739-.082,1.494.143,1.657.962.092.458.012.96.1,1.412.037.183.237.312.348.45a2.855,2.855,0,0,1,.328.941,17.209,17.209,0,0,1,.368,2.8c.1,1.291.41,2.625.594,3.909a1.889,1.889,0,0,1,0,.43c-.107.964-.988.463-1.576.757-.536.268-.436.726.2.634,1.294-.185,1.474-1.593,1.474-2.66a6.561,6.561,0,0,0-.389-1.617c-.179-.673-.234-1.381-.348-2.067-.168-1.011-.312-2.035-.511-3.029-.035-.176.242-.582.2-.88a6.048,6.048,0,0,0-.409-1.289A2.134,2.134,0,0,0,358,241.6c-.134-.034-1.029-.09-1.064-.266-.072-.36.164-.743.164-1.105,0-1.4.134-2.836.041-4.236a3.013,3.013,0,0,0-.286-1.228c-.043-.074-.3-.432-.389-.246Z" transform="translate(-326.244 -215.869)" fill="#b2c0cb" fill-rule="evenodd"/>
    <path id="Path_12265" data-name="Path 12265" d="M230.965,510.14,250,509.98l-9.8,11.738-16.6.192Z" transform="translate(-205.868 -469.532)" fill="#b2c0cb" fill-rule="evenodd"/>
    <path id="Path_12266" data-name="Path 12266" d="M222.391,396.72c-.387,0-.879-.193-1.216.088a1.4,1.4,0,0,0,1.023,2.5c1.449-.121,1.278-2.866-.159-2.627Z" transform="translate(-203.123 -365.196)" fill="#b2c0cb" fill-rule="evenodd"/>
    <path id="Path_12267" data-name="Path 12267" d="M254.523,12.087c-.169,0-.2-.379-.229-.478-.109-.37-.248-.732-.353-1.1a3.393,3.393,0,0,1-.187-2.2,15.862,15.862,0,0,0,.769-1.579,8.317,8.317,0,0,1,.415-1.538,4.881,4.881,0,0,1,2.91-2.327c.582-.155,1.2-.111,1.787-.27.41-.112,1.482-.579,1.891-.416.443.177-.006.723.374.977a23.043,23.043,0,0,0,2.515,1.122,17.4,17.4,0,0,0,2.328.852c.226.075.759.115.852.395s-.462.453-.582.6c-.154.193-.061.619,0,.831.164.574.664.892,1.06,1.288.187.187.533.364.6.644.054.214-.439.214-.582.333a1.606,1.606,0,0,0-.415.873c-.162.807.037,1.708-.187,2.494a13.5,13.5,0,0,1-1.247,2.2c-.173.345-.1.946-.416,1.205-.557.465-1.914.312-2.556.312a15,15,0,0,1-5.777-1.517,16.551,16.551,0,0,1-2.535-1.247c-.22-.136-.4-.171-.519-.416-.071-.143-.01-.362-.062-.52Z" transform="translate(-233.514 -1.97)" fill="#f8a4a3" fill-rule="evenodd"/>
    <path id="Path_12268" data-name="Path 12268" d="M243.521,87.123c-.253-.885-1.552-.65-1.955.041a2.026,2.026,0,0,0-.1,1.2,3.73,3.73,0,0,0,.64,1.84,1.363,1.363,0,0,0,.706.526c.123.027.52,0,.542.115a6.179,6.179,0,0,1,0,.756,7.055,7.055,0,0,1-.18,2.579c-.34,1.058-.833,1.959-.362,3.1a4.681,4.681,0,0,0,2.53,2.2c.626.228,1.388.294,1.823.9a15.981,15.981,0,0,1,1.4,3.055,5.632,5.632,0,0,1,.427,1.068c.01.052.111.3.148.279.231-.139.252-.894.312-1.134a19.971,19.971,0,0,1,.936-3.351c.143-.314.461-.412.69-.641a2.605,2.605,0,0,0,.443-.838,13.673,13.673,0,0,0,.3-1.528c.092-.368-.068-.668.115-1.035.647-1.293,1.938-2.1,2.447-3.5a12.122,12.122,0,0,0,.329-2.891c.142-1.136.731-2.85-.2-3.778a4.052,4.052,0,0,0-1.068-.706,22.494,22.494,0,0,0-2.037-.986c-.651-.248-1.345-.339-2-.558a2.833,2.833,0,0,1-.838-.378c-.166-.133-.481-.426-.723-.378-.181.036-.293.288-.345.444a10.95,10.95,0,0,0-.46,1.495c-.009.051-.057.728-.164.706-.134-.027-.262-.343-.3-.46a5.533,5.533,0,0,1-.312-1.445c0-.2,0-.691-.345-.591-.312.089-.485.432-.69.657a7.008,7.008,0,0,0-1.216,1.889c-.153.351-.273.721-.394,1.084-.063.188.088-.26-.1.246-.018.049-.064.2-.049.148s.063-.092.049-.14" transform="translate(-222.277 -76.495)" fill="#fbe0d5" fill-rule="evenodd"/>
    <path id="Path_12269" data-name="Path 12269" d="M213.817,536.141a10.033,10.033,0,0,0-1.87.45,16.749,16.749,0,0,0-2.569,2.449,18.267,18.267,0,0,0-1.6,1.136,3.522,3.522,0,0,0-.579,1.271c-.193.626-.35,1.271-.58,1.883-.045.12-.194.542-.023.632.2.1.651-.045.864-.056.627-.031,1.26-.1,1.888-.074a21.022,21.022,0,0,0,4.318-.237,7.621,7.621,0,0,0,2.726-.869,6.527,6.527,0,0,0,.908-.593,5.542,5.542,0,0,1,.653-.588,11.693,11.693,0,0,0,2.094-1.393c.1-.1.113-.249.21-.357.2-.225.508-.377.659-.649.21-.378-.068-.394-.081-.714-.007-.177.207-.318.132-.5-.2-.489-1.1-.383-1.511-.327a29.43,29.43,0,0,0-4.092.832,5.645,5.645,0,0,1-2.49.361c-.106-.024-.254-.067-.256-.2,0-.21.256-.472.36-.628a10.9,10.9,0,0,0,.559-1.18c.052-.1.412-.7.275-.652" transform="translate(-190.14 -493.616)" fill="#fbe0d5" fill-rule="evenodd"/>
    <path id="Path_12270" data-name="Path 12270" d="M427.009,467.828c-.2-.3.222-.5.45-.838.371-.548.787-1.325,1.421-1.6a8.4,8.4,0,0,1,1.315-.255,3.2,3.2,0,0,1,.779-.243c.422.009.64.461,1.006.565.447.126.908-.147,1.345.058.379.177.47.716.8.974.392.311.977.2,1.208.7a1.821,1.821,0,0,1,.1.4c.039.212.148.551,0,.737-.137.167-.411.148-.6.171-.48.059-.965.07-1.446.118a3.139,3.139,0,0,1-1.069-.047c-.025-.006-.3-.04-.306-.089-.009-.135.386-.372.307-.513-.1-.18-.5-.12-.658-.119-.364,0-.721-.074-1.082-.067-.189,0-3.236.51-3.561.038" transform="translate(-393.092 -428.024)" fill="#fbe0d5" fill-rule="evenodd"/>
    <path id="Path_12271" data-name="Path 12271" d="M4.28,117.729a.215.215,0,0,1-.181-.1A26.193,26.193,0,0,1,0,103.5,25.742,25.742,0,0,1,20.339,78.144a.215.215,0,0,1,.085.421A25.311,25.311,0,0,0,.43,103.5,25.764,25.764,0,0,0,4.461,117.4a.215.215,0,0,1-.181.331" transform="translate(0 -71.942)" fill="#5779aa"/>
    <path id="Path_12272" data-name="Path 12272" d="M438.054,136.086a.215.215,0,0,1-.154-.365,25.733,25.733,0,0,0-8.624-41.685.215.215,0,0,1,.158-.4,26.163,26.163,0,0,1,8.774,42.385.214.214,0,0,1-.154.065" transform="translate(-395.105 -86.196)" fill="#5779aa"/>
    <path id="Path_12273" data-name="Path 12273" d="M158.44,664.97a24.724,24.724,0,0,1-13.671-4.115.215.215,0,0,1,.237-.359,24.338,24.338,0,0,0,27.676-.557.215.215,0,1,1,.251.349,24.679,24.679,0,0,1-14.493,4.682" transform="translate(-133.198 -607.561)" fill="#5779aa"/>
    <path id="Path_12274" data-name="Path 12274" d="M370.985,170.143H370.9c-1.183-.034-2.126-.773-2.1-1.648a.211.211,0,0,1,.221-.209.215.215,0,0,1,.208.221c-.018.638.737,1.179,1.684,1.206s1.731-.47,1.75-1.108a.208.208,0,0,1,.221-.208.215.215,0,0,1,.208.221c-.025.854-.962,1.526-2.107,1.526" transform="translate(-339.549 -154.938)" fill="#5779aa"/>
    <path id="Path_12275" data-name="Path 12275" d="M302.478,167.444c-.073,0-.147,0-.221-.008-1.18-.088-2.088-.87-2.023-1.743a.215.215,0,0,1,.429.032c-.048.636.682,1.212,1.626,1.282a2.171,2.171,0,0,0,1.266-.269,1,1,0,0,0,.533-.757.215.215,0,0,1,.429.032,1.412,1.412,0,0,1-.74,1.093,2.523,2.523,0,0,1-1.3.337" transform="translate(-276.419 -152.369)" fill="#5779aa"/>
    <path id="Path_12276" data-name="Path 12276" d="M348.791,166.981a.215.215,0,0,1-.184-.326,1.194,1.194,0,0,1,1.017-.557,1.065,1.065,0,0,1,.932.559.215.215,0,0,1-.376.209.644.644,0,0,0-.564-.339.712.712,0,0,0-.641.349.215.215,0,0,1-.184.1" transform="translate(-320.93 -152.924)" fill="#5779aa"/>
    <path id="Path_12277" data-name="Path 12277" d="M268.065,136.013a.215.215,0,0,1-.144-.055l-2.626-2.371a.215.215,0,0,1,.288-.319l2.626,2.371a.215.215,0,0,1-.144.375" transform="translate(-244.188 -122.647)" fill="#5779aa"/>
    <path id="Path_12278" data-name="Path 12278" d="M267.45,84.084a.218.218,0,0,1-.048-.005.215.215,0,0,1-.162-.257,6.314,6.314,0,0,1,2.754-4.086.215.215,0,0,1,.228.365,5.816,5.816,0,0,0-2.563,3.817.215.215,0,0,1-.209.167" transform="translate(-246.04 -73.381)" fill="#5779aa"/>
    <path id="Path_12279" data-name="Path 12279" d="M270.938,169.789h-.066c-3.1-.038-5.984-3.683-6.291-7.96a.215.215,0,1,1,.429-.031c.292,4.063,2.979,7.526,5.868,7.561a1.827,1.827,0,0,0,2.045-1.273,5.348,5.348,0,0,1,.618-1.007,8.522,8.522,0,0,0,2.431-5.785.215.215,0,0,1,.214-.215h0a.215.215,0,0,1,.215.215,8.889,8.889,0,0,1-2.527,6.057,4.943,4.943,0,0,0-.568.93,2.223,2.223,0,0,1-2.368,1.508" transform="translate(-243.596 -148.303)" fill="#5779aa"/>
    <path id="Path_12280" data-name="Path 12280" d="M242.12,128.134a1.518,1.518,0,0,1-1.155-.508,3.551,3.551,0,0,1-.685-2.576,1.425,1.425,0,0,1,.955-1.327,1.277,1.277,0,0,1,1.377.6.215.215,0,1,1-.35.249.856.856,0,0,0-.913-.433,1.006,1.006,0,0,0-.641.948,3.109,3.109,0,0,0,.572,2.249,1.1,1.1,0,0,0,.84.37h.005a.215.215,0,0,1,0,.43Z" transform="translate(-221.209 -113.874)" fill="#5779aa"/>
    <path id="Path_12281" data-name="Path 12281" d="M251.611,181.37a.215.215,0,0,1-.2-.292,5.32,5.32,0,0,1,.28-.589c.394-.746.883-1.676.615-4.614a.215.215,0,1,1,.428-.039c.28,3.065-.243,4.057-.663,4.853a4.992,4.992,0,0,0-.259.541.215.215,0,0,1-.2.138" transform="translate(-231.458 -161.711)" fill="#5779aa"/>
    <path id="Path_12282" data-name="Path 12282" d="M254.259,140.664a.214.214,0,0,1-.16-.072c-.239-.267-.137-.641-.047-.971a1.3,1.3,0,0,0,.078-.489.215.215,0,1,1,.42-.091,1.517,1.517,0,0,1-.083.693c-.061.224-.13.478-.047.572a.215.215,0,0,1-.16.358" transform="translate(-233.81 -127.858)" fill="#5779aa"/>
    <path id="Path_12283" data-name="Path 12283" d="M253.66,72.257a.215.215,0,0,1-.213-.19,10.052,10.052,0,0,0-.258-1.219c-.3-1.188-.641-2.535.177-3.572a.215.215,0,1,1,.337.266c-.687.87-.387,2.055-.1,3.2a10.253,10.253,0,0,1,.268,1.274.215.215,0,0,1-.188.239l-.026,0" transform="translate(-232.802 -61.865)" fill="#5779aa"/>
    <path id="Path_12284" data-name="Path 12284" d="M265.143,4.735a.215.215,0,0,1-.215-.21,4.35,4.35,0,0,1,1.82-3.266,5.967,5.967,0,0,1,3.307-.945,5.374,5.374,0,0,0,1.77-.3.215.215,0,1,1,.162.4,5.7,5.7,0,0,1-1.908.329,5.532,5.532,0,0,0-3.093.874,3.931,3.931,0,0,0-1.629,2.9.215.215,0,0,1-.21.22h0" transform="translate(-243.915 0)" fill="#5779aa"/>
    <path id="Path_12285" data-name="Path 12285" d="M346.77,13.837a.2.2,0,0,1-.038,0,8.393,8.393,0,0,1-2.879-.93c-.194-.111-.4-.239-.609-.372-.985-.619-2.1-1.321-3.159-.952a.215.215,0,0,1-.142-.406c1.251-.437,2.514.356,3.529.994.207.13.406.255.6.364a8.035,8.035,0,0,0,2.741.879.215.215,0,0,1-.038.426" transform="translate(-312.848 -10.171)" fill="#5779aa"/>
    <path id="Path_12286" data-name="Path 12286" d="M410.334,52.146a.214.214,0,0,1-.147-.058c-.143-.134-.27-.233-.389-.327a3.132,3.132,0,0,1-.673-.665,6.042,6.042,0,0,1-.413-.686,2.616,2.616,0,0,0-.9-1.13.215.215,0,1,1,.21-.375,2.973,2.973,0,0,1,1.07,1.3,5.537,5.537,0,0,0,.382.638,2.688,2.688,0,0,0,.591.581c.128.1.264.208.417.351a.215.215,0,0,1-.147.372" transform="translate(-375.365 -45.001)" fill="#5779aa"/>
    <path id="Path_12287" data-name="Path 12287" d="M419.28,97.1a.215.215,0,0,1-.2-.3c.072-.164.136-.3.193-.425a3.407,3.407,0,0,0,.388-1.3,4.88,4.88,0,0,0-.022-.865,3.041,3.041,0,0,1,.211-1.811.215.215,0,0,1,.365.227,2.722,2.722,0,0,0-.147,1.55,5.194,5.194,0,0,1,.021.946,3.828,3.828,0,0,1-.426,1.437c-.056.121-.119.256-.189.417a.215.215,0,0,1-.2.129" transform="translate(-385.829 -84.975)" fill="#5779aa"/>
    <path id="Path_12288" data-name="Path 12288" d="M317.565,71.353a.215.215,0,0,1-.2-.133c-.392-.948-2.026-1.617-2.563-1.836a14.274,14.274,0,0,0-1.426-.468,7.6,7.6,0,0,1-2.724-1.2c-.034-.027-.082-.064-.14-.108-.553-.42-1.1-.858-1.206-1.2a.215.215,0,0,1,.411-.126c.073.239.812.8,1.055.985l.148.113A7.16,7.16,0,0,0,313.5,68.5a14.606,14.606,0,0,1,1.469.483c1,.411,2.384,1.072,2.8,2.07a.215.215,0,0,1-.117.281.213.213,0,0,1-.082.016" transform="translate(-284.766 -60.882)" fill="#5779aa"/>
    <path id="Path_12289" data-name="Path 12289" d="M301.529,73.683a.215.215,0,0,1-.206-.154l-.075-.253a5.256,5.256,0,0,1-.255-3.346.215.215,0,0,1,.4.161,4.875,4.875,0,0,0,.268,3.062l.076.255a.215.215,0,0,1-.206.275" transform="translate(-276.944 -64.261)" fill="#5779aa"/>
    <path id="Path_12290" data-name="Path 12290" d="M365.56,192.116a.215.215,0,0,1-.171-.346.841.841,0,0,1,.157-.148.353.353,0,0,0,.092-.086.619.619,0,0,0-.04-.345,1.111,1.111,0,0,1-.057-.529.215.215,0,1,1,.422.081.758.758,0,0,0,.049.33.96.96,0,0,1,.033.6.623.623,0,0,1-.233.285.539.539,0,0,0-.081.071.215.215,0,0,1-.171.084" transform="translate(-336.369 -175.379)" fill="#5779aa"/>
    <path id="Path_12291" data-name="Path 12291" d="M332.973,224.889a3.42,3.42,0,0,1-1.821-.536.215.215,0,0,1,.228-.365,2.941,2.941,0,0,0,2.938.144.215.215,0,0,1,.193.384,3.419,3.419,0,0,1-1.538.372" transform="translate(-304.795 -206.194)" fill="#5779aa"/>
    <path id="Path_12292" data-name="Path 12292" d="M313.939,140.083a.214.214,0,0,1-.126-.041,1.17,1.17,0,0,0-1.427-.184.215.215,0,0,1-.241-.356,1.572,1.572,0,0,1,1.919.192.215.215,0,0,1-.126.389" transform="translate(-287.303 -128.211)" fill="#5779aa"/>
    <path id="Path_12293" data-name="Path 12293" d="M381.323,141.894a.215.215,0,0,1-.129-.387,1.732,1.732,0,0,1,1.827-.425.215.215,0,0,1-.191.385c-.436-.216-.85-.014-1.377.384a.214.214,0,0,1-.129.043" transform="translate(-350.881 -129.771)" fill="#5779aa"/>
    <path id="Path_12294" data-name="Path 12294" d="M314.844,161.4l-.066,0a1.767,1.767,0,0,1-.438-.1,1.734,1.734,0,0,0-.283-.074.215.215,0,1,1,.059-.426,2.069,2.069,0,0,1,.355.091,1.435,1.435,0,0,0,.334.08,1.4,1.4,0,0,0,.234-.016,1.389,1.389,0,0,1,.381-.012.215.215,0,0,1-.06.426,1.034,1.034,0,0,0-.267.013,1.957,1.957,0,0,1-.25.021" transform="translate(-288.978 -148.041)" fill="#5779aa"/>
    <path id="Path_12295" data-name="Path 12295" d="M380.427,162.713a2.463,2.463,0,0,1-.3-.023,1.728,1.728,0,0,0-.291-.019.21.21,0,0,1-.226-.2.215.215,0,0,1,.2-.226,2.054,2.054,0,0,1,.366.022,1.444,1.444,0,0,0,.344.014,1.276,1.276,0,0,0,.226-.06,1.416,1.416,0,0,1,.373-.085.218.218,0,0,1,.226.2.215.215,0,0,1-.2.226,1.052,1.052,0,0,0-.26.064,1.623,1.623,0,0,1-.306.079,1.183,1.183,0,0,1-.152.009" transform="translate(-349.504 -149.273)" fill="#5779aa"/>
    <path id="Path_12296" data-name="Path 12296" d="M322.432,164.235a.349.349,0,1,1,.349.352.351.351,0,0,1-.349-.352" transform="translate(-296.859 -150.885)" fill="#5779aa" fill-rule="evenodd"/>
    <path id="Path_12297" data-name="Path 12297" d="M386.949,166.665a.349.349,0,1,1,.258.423.351.351,0,0,1-.258-.423" transform="translate(-356.25 -153.197)" fill="#5779aa" fill-rule="evenodd"/>
    <path id="Path_12298" data-name="Path 12298" d="M52.658,262.02a.214.214,0,0,1-.152-.063c-2.209-2.209-1.2-6.146-.529-8.751l.093-.361c.091-.358.187-.714.282-1.07.123-.46.247-.919.36-1.381.431-1.759.792-3.569,1.141-5.319.283-1.417.574-2.883.9-4.315a10.665,10.665,0,0,1,2.148-4.968,18.585,18.585,0,0,1,4.684-3.588c.506-.308,1.028-.627,1.525-.95a22.009,22.009,0,0,0,2.429-1.763c.149-.13.294-.27.438-.41l.187-.18a.215.215,0,0,1,.3.312l-.184.178c-.15.145-.3.289-.454.425a22.425,22.425,0,0,1-2.477,1.8c-.5.327-1.028.648-1.536.957a18.262,18.262,0,0,0-4.58,3.5,10.309,10.309,0,0,0-2.057,4.786c-.327,1.426-.618,2.889-.9,4.3-.35,1.755-.711,3.569-1.145,5.337-.114.465-.238.928-.362,1.39-.1.355-.19.709-.281,1.065l-.093.362c-.645,2.51-1.62,6.3.416,8.34a.215.215,0,0,1-.152.367" transform="translate(-47.098 -210.69)" fill="#5779aa"/>
    <path id="Path_12299" data-name="Path 12299" d="M223.563,537.583a.215.215,0,0,1-.083-.413,7.25,7.25,0,0,0,2.3-1.806,15.36,15.36,0,0,1,1.143-1.094,2.672,2.672,0,0,1,1.426-.514,3.443,3.443,0,0,0,.966-.24.215.215,0,1,1,.181.39,3.831,3.831,0,0,1-1.084.275,2.307,2.307,0,0,0-1.215.42,15.037,15.037,0,0,0-1.11,1.063,7.68,7.68,0,0,1-2.439,1.9.215.215,0,0,1-.083.017" transform="translate(-205.634 -491.183)" fill="#5779aa"/>
    <path id="Path_12300" data-name="Path 12300" d="M184.337,584.6a.867.867,0,0,1-.152-.013c-.578-.1-.894-.781-.908-1.4a8.316,8.316,0,0,1,.812-2.993c.182-.4,1.778-3.2,2.256-3.182a.268.268,0,0,1,.219.15.215.215,0,0,1-.115.281.222.222,0,0,1-.079.017,17.116,17.116,0,0,0-1.89,2.913,7.642,7.642,0,0,0-.774,2.8c.011.508.249.931.553.984.418.073,1.135-.536,1.891-2.472a.215.215,0,1,1,.4.156c-.87,2.228-1.663,2.752-2.215,2.752" transform="translate(-168.741 -531.254)" fill="#5779aa"/>
    <path id="Path_12301" data-name="Path 12301" d="M99.857,556.264h-.018a10.818,10.818,0,0,1-2.991-.526l-.416-.157a12.8,12.8,0,0,0-4.491-1.113,4.178,4.178,0,0,0-2.338.452.215.215,0,1,1-.248-.351,4.467,4.467,0,0,1,2.589-.53,13.121,13.121,0,0,1,4.64,1.141l.414.157a10.507,10.507,0,0,0,2.875.5.215.215,0,0,1-.017.429" transform="translate(-82.185 -510.095)" fill="#5779aa"/>
    <path id="Path_12302" data-name="Path 12302" d="M274.572,557.253a.215.215,0,0,1-.051-.424,6.474,6.474,0,0,1,1.094-.159,4.544,4.544,0,0,0,1.282-.243,8.023,8.023,0,0,0,.884-.4,9.2,9.2,0,0,1,.844-.389c.668-.255,1.351-.456,2.011-.65.218-.064.437-.128.657-.2a5.221,5.221,0,0,0,1.473-.624.572.572,0,0,0,.228-.258,2.649,2.649,0,0,0-1.647-.1c-.135.017-.26.033-.367.043a17.523,17.523,0,0,0-2.458.458c-.643.151-1.307.308-1.976.4l-.111.016a4.481,4.481,0,0,1-2.189-.051.215.215,0,0,1,.138-.407,4.083,4.083,0,0,0,1.99.033l.112-.016c.65-.093,1.305-.248,1.938-.4a17.885,17.885,0,0,1,2.519-.467c.1-.009.221-.024.35-.041a2.868,2.868,0,0,1,1.947.182.433.433,0,0,1,.184.353.885.885,0,0,1-.405.6,5.556,5.556,0,0,1-1.6.687c-.221.067-.441.132-.66.2-.682.2-1.327.39-1.979.639a8.711,8.711,0,0,0-.8.372,8.47,8.47,0,0,1-.932.422,4.949,4.949,0,0,1-1.393.267,6.182,6.182,0,0,0-1.027.148.211.211,0,0,1-.051.006" transform="translate(-252.362 -509.417)" fill="#5779aa"/>
    <path id="Path_12303" data-name="Path 12303" d="M286.782,568.2a.215.215,0,0,1-.077-.416,7.767,7.767,0,0,1,1.256-.307c.291-.055.566-.107.8-.17a5.5,5.5,0,0,0,1.2-.56c.234-.133.476-.27.721-.382a14.214,14.214,0,0,1,1.5-.556c.373-.123.759-.25,1.121-.4.731-.3,1.235-.635,1.284-.866,0-.024.016-.075-.066-.159a.215.215,0,0,1,.308-.3.585.585,0,0,1,.178.547c-.1.5-.9.916-1.543,1.177-.375.151-.768.28-1.148.405a13.9,13.9,0,0,0-1.455.538c-.229.1-.452.232-.689.366a5.836,5.836,0,0,1-1.3.6c-.249.068-.532.122-.832.178a7.436,7.436,0,0,0-1.182.286.215.215,0,0,1-.077.014" transform="translate(-263.839 -519.288)" fill="#5779aa"/>
    <path id="Path_12304" data-name="Path 12304" d="M292.981,583.5a.215.215,0,0,1-.044-.425c.233-.05.472-.085.711-.12a5.505,5.505,0,0,0,1.235-.276,6.64,6.64,0,0,0,1.1-.613c.174-.111.345-.222.518-.322a10.115,10.115,0,0,1,1.419-.64l.332-.131a3.614,3.614,0,0,0,.993-.595.771.771,0,0,0,.131-.14.215.215,0,0,1,.352-.234.318.318,0,0,1,.091.238.7.7,0,0,1-.293.461,4.051,4.051,0,0,1-1.115.669l-.335.132a9.777,9.777,0,0,0-1.359.611c-.167.1-.334.2-.5.312a6.954,6.954,0,0,1-1.176.651,5.919,5.919,0,0,1-1.331.3c-.23.034-.46.067-.684.115a.219.219,0,0,1-.045,0m6.442-3.2h0Z" transform="translate(-269.547 -533.941)" fill="#5779aa"/>
    <path id="Path_12305" data-name="Path 12305" d="M204.771,596.979a.215.215,0,0,1-.007-.43c.866-.029,1.989-.02,2.98-.012,1.021.008,1.9.016,2.287-.018a12.924,12.924,0,0,0,4.879-1.389,2.155,2.155,0,0,0,.534-.435,3.232,3.232,0,0,1,.47-.411,5.25,5.25,0,0,1,.575-.32,3.317,3.317,0,0,0,.714-.436.215.215,0,0,1,.283.324,3.7,3.7,0,0,1-.8.5,4.819,4.819,0,0,0-.529.293,2.841,2.841,0,0,0-.405.358,2.51,2.51,0,0,1-.647.515,13.329,13.329,0,0,1-5.032,1.433c-.4.036-1.3.029-2.328.02-.987-.009-2.1-.018-2.962.011h-.007" transform="translate(-188.333 -546.405)" fill="#5779aa"/>
    <path id="Path_12306" data-name="Path 12306" d="M203.055,584.587a.433.433,0,0,1-.272-.094c-.37-.292-.283-1.164-.279-1.2a12.129,12.129,0,0,1,.984-3.648l.076-.174a3.439,3.439,0,0,1,.42-.778.557.557,0,0,1,.34-.261.281.281,0,0,1,.214.062.215.215,0,0,1,.031.3.218.218,0,0,1-.182.079c-.019.022-.039.048-.049.061a3.078,3.078,0,0,0-.38.7l-.078.18a11.7,11.7,0,0,0-.949,3.517,1.307,1.307,0,0,0,.121.821.081.081,0,0,0,.037-.007,2.5,2.5,0,0,0,.482-1.179.215.215,0,0,1,.422.084c-.091.459-.367,1.363-.762,1.5a.529.529,0,0,1-.176.032" transform="translate(-186.433 -532.552)" fill="#5779aa"/>
    <path id="Path_12307" data-name="Path 12307" d="M185.392,651.615a.215.215,0,0,1-.021-.429c.683-.068,1.205-.106,1.695-.123a.215.215,0,1,1,.015.43c-.48.017-.994.055-1.667.122h-.022" transform="translate(-170.49 -599.426)" fill="#5779aa"/>
    <path id="Path_12308" data-name="Path 12308" d="M81.9,646.886c-.311,0-.628-.017-.941-.038a24.374,24.374,0,0,1-5.546-1.23c-1.994-.631-2.066-.865-2.09-.942a.215.215,0,0,1,.387-.179,11.484,11.484,0,0,0,1.833.711,24,24,0,0,0,5.446,1.211,6.538,6.538,0,0,0,2.144-.109.215.215,0,1,1,.126.411,4.717,4.717,0,0,1-1.358.165" transform="translate(-67.5 -593.289)" fill="#5779aa"/>
    <path id="Path_12309" data-name="Path 12309" d="M152.947,398.919a.215.215,0,0,1-.206-.278,36.256,36.256,0,0,0-.48-3.6c-.18-1.07-.372-2.076-.557-3.049-.284-1.491-.552-2.9-.78-4.5-.127-.9-.2-1.712-.278-2.664,0-.036-.009-.076-.015-.118a.973.973,0,0,1,.025-.537.215.215,0,1,1,.392.176.738.738,0,0,0,.008.3c.008.052.015.1.018.146.074.944.149,1.753.275,2.637.227,1.6.494,3,.777,4.484.186.975.378,1.983.559,3.058a30.589,30.589,0,0,1,.467,3.8.215.215,0,0,1-.205.152" transform="translate(-138.662 -353.581)" fill="#5779aa"/>
    <path id="Path_12310" data-name="Path 12310" d="M159.343,517.459a.215.215,0,0,1-.2-.3l.033-.076a6.49,6.49,0,0,0,.817-3.464.215.215,0,0,1,.174-.249.213.213,0,0,1,.249.174,6.8,6.8,0,0,1-.847,3.712l-.033.076a.215.215,0,0,1-.2.129" transform="translate(-146.508 -472.649)" fill="#5779aa"/>
    <path id="Path_12311" data-name="Path 12311" d="M111.506,539.949a.214.214,0,0,1-.142-.054,7.675,7.675,0,0,0-3.719-1.49.215.215,0,0,1,.086-.421,8.015,8.015,0,0,1,3.916,1.589.215.215,0,0,1-.142.376" transform="translate(-98.949 -495.312)" fill="#5779aa"/>
    <path id="Path_12312" data-name="Path 12312" d="M400.637,272.917a.215.215,0,0,1-.213-.188,20.289,20.289,0,0,0-1.042-4.494,19.2,19.2,0,0,1-.785-2.98c-.076-.37-.152-.736-.235-1.093-.139-.6-.237-1.237-.332-1.849-.274-1.773-.557-3.606-1.885-4.934a9.125,9.125,0,0,0-2.945-1.657c-.157-.065-.312-.129-.462-.192a24.7,24.7,0,0,1-4.933-2.563.215.215,0,1,1,.253-.348,24.363,24.363,0,0,0,4.847,2.514l.459.191a9.421,9.421,0,0,1,3.085,1.751c1.428,1.428,1.722,3.332,2.006,5.173.093.6.19,1.23.326,1.819.083.36.16.729.237,1.1a18.857,18.857,0,0,0,.765,2.913,20.736,20.736,0,0,1,1.068,4.595.215.215,0,0,1-.186.24l-.027,0" transform="translate(-356.966 -232.545)" fill="#5779aa"/>
    <path id="Path_12313" data-name="Path 12313" d="M433.236,465.606a.215.215,0,0,1-.2-.289,3.419,3.419,0,0,0-.078-.476c-.017-.083-.031-.15-.035-.185-.007-.053-.009-.1-.011-.156a.679.679,0,0,0-.022-.183c-.043-.131-.094-.153-.381-.15a.88.88,0,0,1-.689-.2,2.529,2.529,0,0,1-.357-.512c-.161-.276-.312-.537-.552-.612a.9.9,0,0,0-.474.058,1.318,1.318,0,0,1-.7.066,1.2,1.2,0,0,1-.6-.41c-.186-.2-.256-.28-.6-.121l-.034.016a.64.64,0,0,0-.093.049c-.03.018-.08.049-.184.109a1.464,1.464,0,0,1-.6.106,1.842,1.842,0,0,0-1.053.264,7.4,7.4,0,0,0-.94,1.292,11.115,11.115,0,0,1-.7,1.019.215.215,0,1,1-.332-.273,10.963,10.963,0,0,0,.667-.977,7.535,7.535,0,0,1,1.014-1.38,2.164,2.164,0,0,1,1.315-.374,1.81,1.81,0,0,0,.407-.049c.1-.057.147-.086.176-.1a.883.883,0,0,1,.136-.071l.033-.015a.8.8,0,0,1,1.1.22.8.8,0,0,0,.394.284.965.965,0,0,0,.477-.063,1.232,1.232,0,0,1,.721-.056,1.53,1.53,0,0,1,.8.806,2.181,2.181,0,0,0,.291.426c.072.073.188.077.38.076a.7.7,0,0,1,.793.445,1.044,1.044,0,0,1,.043.3c0,.039,0,.078.007.117s.016.083.03.151c.1.457.116.63.043.75a.215.215,0,0,1-.184.1m-.183-.327h0" transform="translate(-390.878 -425.287)" fill="#5779aa"/>
    <path id="Path_12314" data-name="Path 12314" d="M461.245,477.709a.228.228,0,0,1-.056-.007.215.215,0,0,1-.151-.263,2.732,2.732,0,0,1,1.168-1.359c.072-.054.143-.107.211-.159.041-.032.1-.071.164-.112a1.439,1.439,0,0,0,.254-.188.223.223,0,0,1,.295-.068.207.207,0,0,1,.079.279,1.152,1.152,0,0,1-.395.337c-.052.034-.1.065-.135.091-.07.054-.142.108-.217.164a2.431,2.431,0,0,0-1.01,1.126.215.215,0,0,1-.207.159" transform="translate(-424.465 -437.808)" fill="#5779aa"/>
    <path id="Path_12315" data-name="Path 12315" d="M448.431,491.278a.215.215,0,0,1-.108-.4,2.313,2.313,0,0,0,.324-.247,1.624,1.624,0,0,1,.95-.486.215.215,0,0,1,.029.429,1.255,1.255,0,0,0-.7.384,2.671,2.671,0,0,1-.388.292.215.215,0,0,1-.107.029" transform="translate(-412.667 -451.27)" fill="#5779aa"/>
    <path id="Path_12316" data-name="Path 12316" d="M487.331,487.4a.2.2,0,0,1-.128-.052.22.22,0,0,1-.052-.277.212.212,0,0,1,.093-.088c.031-.026.079-.07.12-.107s.077-.069.092-.082l.178-.145c.276-.226.563-.461.868-.669a.215.215,0,1,1,.242.355c-.29.2-.568.426-.838.646l-.179.146-.075.067c-.135.122-.228.206-.321.206" transform="translate(-448.489 -447.404)" fill="#5779aa"/>
    <path id="Path_12317" data-name="Path 12317" d="M221.113,518.639a.215.215,0,0,1-.183-.328l1.237-1.989a.215.215,0,0,1,.365.227L221.5,518.2,237.472,518l9.806-11.324-18.793.308-2.683,4.312a.215.215,0,1,1-.365-.227l2.745-4.412a.215.215,0,0,1,.179-.1l19.391-.317a.231.231,0,0,1,.2.124.215.215,0,0,1-.033.232l-10.184,11.76a.215.215,0,0,1-.159.074l-16.459.214Z" transform="translate(-203.378 -466.085)" fill="#5779aa"/>
    <path id="Path_12318" data-name="Path 12318" d="M378.372,500.427a.215.215,0,0,1-.179-.333l.371-.563a.215.215,0,0,1,.175-.1l8.7-.188a.219.219,0,0,1,.195.115.215.215,0,0,1-.016.226l-.473.651a.215.215,0,1,1-.348-.253l.218-.3-8.152.177-.309.469a.215.215,0,0,1-.18.1" transform="translate(-348.165 -459.65)" fill="#5779aa"/>
    <path id="Path_12319" data-name="Path 12319" d="M222.573,224.714a.215.215,0,0,1-.213-.191c-.048-.417-.067-.844-.086-1.257s-.038-.827-.083-1.233l-.067-.574a18,18,0,0,1,.089-6.9,8.378,8.378,0,0,1,1.689-3.336,6.466,6.466,0,0,1,1.177-.937.215.215,0,1,1,.181.39,6.321,6.321,0,0,0-1.055.853,7.949,7.949,0,0,0-1.577,3.144,17.663,17.663,0,0,0-.077,6.742l.066.575c.048.42.067.848.086,1.262s.037.825.083,1.228a.215.215,0,0,1-.189.238h-.025" transform="translate(-204.237 -193.586)" fill="#5779aa"/>
    <path id="Path_12320" data-name="Path 12320" d="M229.106,231.213a.215.215,0,0,1-.215-.205c-.007-.15-.013-.32-.019-.5-.02-.554-.044-1.244-.114-1.857l-.067-.574a18,18,0,0,1,.089-6.9,7.326,7.326,0,0,1,1.568-3.186c.044-.044.089-.091.135-.139a2.388,2.388,0,0,1,.669-.547.215.215,0,0,1,.181.39,2.049,2.049,0,0,0-.54.455c-.049.051-.1.1-.143.147a6.949,6.949,0,0,0-1.456,2.994,17.668,17.668,0,0,0-.077,6.742l.066.576c.072.631.1,1.329.116,1.891.006.182.012.351.019.5a.215.215,0,0,1-.2.225h-.01" transform="translate(-210.283 -200.043)" fill="#5779aa"/>
    <path id="Path_12321" data-name="Path 12321" d="M213.476,391.964a2.011,2.011,0,1,1,2.029-2.01,2.022,2.022,0,0,1-2.029,2.01m0-3.591a1.581,1.581,0,1,0,1.6,1.581,1.592,1.592,0,0,0-1.6-1.581" transform="translate(-194.677 -357.175)" fill="#5779aa"/>
    <path id="Path_12322" data-name="Path 12322" d="M377.381,243.2h-.013a.215.215,0,0,1-.2-.227c.069-1.208.132-2.875.1-3.93a22.553,22.553,0,0,0-.237-2.627l-.007-.055a.215.215,0,1,1,.426-.055l.007.055a23.19,23.19,0,0,1,.24,2.669c.032,1.069-.031,2.751-.1,3.968a.214.214,0,0,1-.214.2" transform="translate(-347.118 -217.391)" fill="#5779aa"/>
    <path id="Path_12323" data-name="Path 12323" d="M383.348,239.791h-.013a.215.215,0,0,1-.2-.227l.028-.464c.1-1.622.315-5-.2-6.345a.215.215,0,1,1,.4-.153c.547,1.434.331,4.873.226,6.526l-.028.462a.215.215,0,0,1-.214.2" transform="translate(-352.576 -214.026)" fill="#5779aa"/>
    <path id="Path_12324" data-name="Path 12324" d="M359.1,331.187h-.019a.215.215,0,0,1-.2-.233,14.345,14.345,0,0,1,.389-2.508,1.746,1.746,0,0,1,1.322-.789,2.57,2.57,0,0,1,2.082.361,7.589,7.589,0,0,1,.784,2.257.215.215,0,1,1-.419.1,8.016,8.016,0,0,0-.663-2.043,2.217,2.217,0,0,0-1.705-.248,1.4,1.4,0,0,0-1.011.547,13.833,13.833,0,0,0-.351,2.364.215.215,0,0,1-.214.2" transform="translate(-330.424 -301.612)" fill="#5779aa"/>
    <path id="Path_12325" data-name="Path 12325" d="M352.48,324.6h-.013a.215.215,0,0,1-.2-.228,10.073,10.073,0,0,1,.587-2.988,2.425,2.425,0,0,1,1.529-.852,3.248,3.248,0,0,1,2.372.251c.886.669,1.142,2.822,1.153,2.913a.215.215,0,1,1-.427.049c-.066-.571-.371-2.155-.985-2.619a2.833,2.833,0,0,0-2.024-.174,1.944,1.944,0,0,0-1.243.639,9.985,9.985,0,0,0-.535,2.807.215.215,0,0,1-.214.2" transform="translate(-324.326 -295.01)" fill="#5779aa"/>
    <path id="Path_12326" data-name="Path 12326" d="M352.839,368.118c-.022,0-.044,0-.067,0a.5.5,0,0,1-.442-.3.215.215,0,0,1,.4-.157.148.148,0,0,0,.079.025.258.258,0,0,0,.058,0,.21.21,0,0,1,.187-.08.215.215,0,0,1,.2.233c-.015.17-.18.28-.41.28m-.018-.318h0Z" transform="translate(-324.373 -338.377)" fill="#5779aa"/>
    <path id="Path_12327" data-name="Path 12327" d="M411.733,358.662a.474.474,0,0,1-.132-.019.492.492,0,0,1-.338-.38.215.215,0,0,1,.419-.1c0,.021.016.057.038.064a.07.07,0,0,0,.061-.018c.006-.006.017-.017.008-.051a.215.215,0,1,1,.414-.114.475.475,0,0,1-.12.472.5.5,0,0,1-.351.143" transform="translate(-378.641 -329.505)" fill="#5779aa"/>
    <path id="Path_12328" data-name="Path 12328" d="M355.624,381.623a2.46,2.46,0,0,1-1.091-.369A2.7,2.7,0,0,1,353.5,379c-.1-1.389-.053-5.477.055-6.54a.209.209,0,0,1,.236-.192.215.215,0,0,1,.192.236c-.1,1.023-.155,5.124-.054,6.463a3.528,3.528,0,0,0,.315,1.357l.023.017a3.773,3.773,0,0,0,1.445.189.608.608,0,0,1,.482.229.434.434,0,0,1,.087.377.6.6,0,0,1-.361.429.781.781,0,0,1-.3.053m-.8-.7a1.432,1.432,0,0,0,.937.246.175.175,0,0,0,.106-.138.189.189,0,0,0-.13-.069c-.321,0-.636-.01-.913-.039" transform="translate(-325.411 -342.746)" fill="#5779aa"/>
    <path id="Path_12329" data-name="Path 12329" d="M405.146,372.94a.79.79,0,0,1-.21-.027.677.677,0,0,1-.452-.418.445.445,0,0,1,.042-.41.547.547,0,0,1,.425-.251,2.955,2.955,0,0,0,1.409-.255l.018-.017a3.632,3.632,0,0,0,.089-1.408c-.121-1.446-.9-5.9-1.159-6.9a.215.215,0,1,1,.416-.107c.266,1.038,1.045,5.473,1.17,6.972a2.665,2.665,0,0,1-.668,2.383,2.1,2.1,0,0,1-1.079.439m.806-.772a8.237,8.237,0,0,1-.953.094c-.077,0-.119.053-.118.071a.245.245,0,0,0,.168.166,1.351,1.351,0,0,0,.9-.33" transform="translate(-372.373 -334.195)" fill="#5779aa"/>
    <path id="Path_12330" data-name="Path 12330" d="M219.932,397.809a1.46,1.46,0,1,1,1.472-1.459,1.467,1.467,0,0,1-1.472,1.459m0-2.489a1.03,1.03,0,1,0,1.043,1.03,1.037,1.037,0,0,0-1.043-1.03" transform="translate(-201.134 -363.571)" fill="#5779aa"/>
    <path id="Path_12331" data-name="Path 12331" d="M253.2,251.171a.215.215,0,0,1-.215-.215,20.456,20.456,0,0,0-.8-4.3,82.1,82.1,0,0,0-3.1-8.391c-.167-.4-.348-.8-.529-1.2a18.451,18.451,0,0,1-1.1-2.834l-.1-.356a9.265,9.265,0,0,1-.478-3.646l.007-.066c.069-.677.194-1.386.6-1.521a.215.215,0,1,1,.136.408c-.02.007-.2.1-.307,1.157l-.007.07a8.931,8.931,0,0,0,.466,3.486l.1.357a18.124,18.124,0,0,0,1.08,2.767c.183.4.366.805.534,1.21a82.428,82.428,0,0,1,3.119,8.435,20.537,20.537,0,0,1,.821,4.419.215.215,0,0,1-.215.215" transform="translate(-227.254 -210.504)" fill="#5779aa"/>
    <path id="Path_12332" data-name="Path 12332" d="M199.216,255.027a.216.216,0,0,1-.094-.022,4.925,4.925,0,0,0-1.795-.548.243.243,0,0,1-.194-.126c-.172-.341,1.127-2.985,1.206-3.1a.215.215,0,0,1,.358.239,19.826,19.826,0,0,0-1.124,2.582,5.753,5.753,0,0,1,1.736.571.215.215,0,0,1-.094.408" transform="translate(-181.484 -231.214)" fill="#5779aa"/>
    <path id="Path_12333" data-name="Path 12333" d="M229.74,303.34a.215.215,0,0,1-.172-.344l.329-.438c.444-.59,1.037-1.378,1.181-1.634a7.975,7.975,0,0,0-1.619-1.173.215.215,0,1,1,.215-.372c.019.011,1.856,1.095,1.856,1.53,0,.164-.193.449-1.29,1.908l-.328.437a.215.215,0,0,1-.172.086m1.374-2.368h0Z" transform="translate(-211.161 -275.608)" fill="#5779aa"/>
    <path id="Path_12334" data-name="Path 12334" d="M220.954,355.034a.214.214,0,0,1-.138-.05l-.159-.133c-.277-.232-.288-.241-.305-.327-.021-.11,0-.2.37-.714a.215.215,0,0,1,.35.249c-.134.188-.208.3-.25.37l.11.092.16.134a.215.215,0,0,1-.138.38" transform="translate(-202.87 -325.666)" fill="#5779aa"/>
    <path id="Path_12335" data-name="Path 12335" d="M241.371,383.528h-.015a.215.215,0,0,1-.2-.229c.055-.806-1.19-2.7-2.394-4.53-.534-.812-1.086-1.652-1.566-2.452a15.951,15.951,0,0,0-3.082-3.513.215.215,0,0,1,.286-.321,16.373,16.373,0,0,1,3.164,3.613c.476.793,1.025,1.629,1.557,2.437,1.357,2.063,2.528,3.845,2.464,4.8a.215.215,0,0,1-.214.2" transform="translate(-215.48 -342.89)" fill="#5779aa"/>
    <path id="Path_12336" data-name="Path 12336" d="M260.94,234.624a.215.215,0,0,1-.186-.106c-.117-.2-.436-.89-.805-1.69-.473-1.023-1.187-2.57-1.336-2.736a2.165,2.165,0,0,0-.956-.375,4.111,4.111,0,0,1-.749-.219,4.774,4.774,0,0,1-2.088-1.846,3.921,3.921,0,0,1-.324-3.554.215.215,0,1,1,.373.213,3.493,3.493,0,0,0,.31,3.1,4.353,4.353,0,0,0,1.9,1.686,3.737,3.737,0,0,0,.673.194,2.52,2.52,0,0,1,1.146.472,17.719,17.719,0,0,1,1.442,2.878c.35.757.68,1.471.786,1.653a.215.215,0,0,1-.185.324" transform="translate(-234.039 -206.226)" fill="#5779aa"/>
    <path id="Path_12337" data-name="Path 12337" d="M278.564,307.034c-.131,0-.214-.131-.338-.328-.02-.032-.037-.06-.047-.073l-.55-.548a.215.215,0,0,1,.3-.3l.566.566a.4.4,0,0,1,.047.061c.037-.116.074-.244.1-.319.029-.1.054-.189.071-.234a5.9,5.9,0,0,0,.289-1.5,4.8,4.8,0,0,1,.52-2.019.215.215,0,0,1,.369.221,4.417,4.417,0,0,0-.461,1.844,6.3,6.3,0,0,1-.315,1.61c-.014.037-.034.11-.059.2-.147.519-.23.753-.414.814a.248.248,0,0,1-.077.014" transform="translate(-255.552 -278.261)" fill="#5779aa"/>
    <path id="Path_12338" data-name="Path 12338" d="M337.434,260.447a.215.215,0,0,1-.208-.267c.1-.4.206-.88.318-1.389a30.244,30.244,0,0,1,.812-3.162,1.051,1.051,0,0,1,.589-.6.787.787,0,0,0,.405-.352,5.654,5.654,0,0,0,.453-2.486.215.215,0,1,1,.43,0,5.983,5.983,0,0,1-.5,2.678,1.2,1.2,0,0,1-.589.54c-.182.1-.313.165-.384.365a30.042,30.042,0,0,0-.8,3.112c-.113.513-.22,1-.321,1.4a.215.215,0,0,1-.209.163" transform="translate(-310.473 -231.989)" fill="#5779aa"/>
    <path id="Path_12339" data-name="Path 12339" d="M357.77,305.527a.215.215,0,0,1-.2-.14l-.035-.093a2.685,2.685,0,0,0-.528-.985.215.215,0,1,1,.3-.3,3.047,3.047,0,0,1,.627,1.14l.034.092a.215.215,0,0,1-.2.29" transform="translate(-328.634 -279.836)" fill="#5779aa"/>
    <path id="Path_12340" data-name="Path 12340" d="M398.809,266.142a.215.215,0,0,1-.171-.345,12.01,12.01,0,0,1,.907-1.054l.116-.124a13.26,13.26,0,0,0-1.561-1.774,3.181,3.181,0,0,1-.48-.526.283.283,0,0,1,0-.218c.085-.176.34-.252,1.309-.462.227-.049.509-.11.7-.161-.272-.264-.863-.761-1.32-1.145-.353-.3-.708-.6-.995-.847a.215.215,0,1,1,.283-.323c.285.25.638.547.988.841,1.636,1.376,1.68,1.446,1.574,1.658-.078.155-.271.21-1.138.4-.277.06-.659.142-.882.211.075.077.173.175.269.272a12.17,12.17,0,0,1,1.7,1.971c.1.164-.01.277-.246.526a11.4,11.4,0,0,0-.877,1.017.214.214,0,0,1-.171.085m.959-4.508h0Z" transform="translate(-365.733 -238.559)" fill="#5779aa"/>
    <path id="Path_12341" data-name="Path 12341" d="M371.6,360.524a.216.216,0,0,1-.212-.25c.253-1.509.746-3.339,1.143-4.809.129-.48.248-.919.342-1.29a11.578,11.578,0,0,1,1.491-3.449.215.215,0,0,1,.361.234,11.155,11.155,0,0,0-1.436,3.321c-.095.373-.214.814-.344,1.3-.394,1.461-.884,3.279-1.134,4.768a.215.215,0,0,1-.212.18" transform="translate(-341.932 -322.818)" fill="#5779aa"/>
    <path id="Path_12342" data-name="Path 12342" d="M362.154,487.849a.215.215,0,0,1-.207-.273c.031-.11.079-.267.133-.442a10.681,10.681,0,0,0,.32-1.171.215.215,0,0,1,.426.059,10.556,10.556,0,0,1-.336,1.239c-.053.171-.1.323-.13.431a.215.215,0,0,1-.207.157" transform="translate(-333.233 -447.25)" fill="#5779aa"/>
    <path id="Path_12343" data-name="Path 12343" d="M362.469,347h-.022a.214.214,0,0,1-.192-.236c.276-2.7.713-6.059,1-8.28.092-.709.17-1.308.224-1.739a.215.215,0,0,1,.427.053c-.054.432-.132,1.031-.224,1.741-.289,2.22-.726,5.574-1,8.269a.215.215,0,0,1-.213.193" transform="translate(-333.523 -309.864)" fill="#5779aa"/>
    <path id="Path_12344" data-name="Path 12344" d="M359.219,486.209h0a.215.215,0,0,1-.211-.219c.008-.446.042-1.042.1-1.772a.215.215,0,1,1,.428.035c-.059.72-.093,1.307-.1,1.744a.215.215,0,0,1-.215.211" transform="translate(-330.531 -445.632)" fill="#5779aa"/>
    <path id="Path_12345" data-name="Path 12345" d="M458.6,526.6a4.34,4.34,0,0,1-2.313-.767,4,4,0,0,1-1.816-2.146.215.215,0,1,1,.4-.149,3.587,3.587,0,0,0,1.648,1.935,3.38,3.38,0,0,0,2.689.612,1.961,1.961,0,0,0,1.232-1.2A22.852,22.852,0,0,0,462,514.857a.215.215,0,0,1,.429-.03,23.318,23.318,0,0,1-1.591,10.236,2.371,2.371,0,0,1-1.5,1.439,2.543,2.543,0,0,1-.737.1" transform="translate(-418.412 -473.811)" fill="#5779aa"/>
    <path id="Path_12346" data-name="Path 12346" d="M477.745,537.052a2.158,2.158,0,0,1-1.341-.491.215.215,0,1,1,.264-.339,1.653,1.653,0,0,0,1.552.329,3.985,3.985,0,0,0,2.206-2.339c.015-.043.048-.118.092-.219a6.556,6.556,0,0,0,.686-3,.215.215,0,0,1,.2-.231.219.219,0,0,1,.231.2,6.941,6.941,0,0,1-.721,3.211c-.038.086-.066.15-.08.187a4.362,4.362,0,0,1-2.49,2.61,2.109,2.109,0,0,1-.6.088" transform="translate(-438.543 -488.663)" fill="#5779aa"/>
    <path id="Path_12347" data-name="Path 12347" d="M488.536,553.586a.612.612,0,0,1-.1-.008.479.479,0,0,1-.361-.262.215.215,0,0,1,.384-.193.049.049,0,0,0,.045.031,1.421,1.421,0,0,0,.768-.361,9.947,9.947,0,0,0,1.3-2.553.2.2,0,0,1,.214-.2.225.225,0,0,1,.214.227,9.358,9.358,0,0,1-1.426,2.833,1.9,1.9,0,0,1-1.041.489" transform="translate(-449.345 -506.413)" fill="#5779aa"/>
    <path id="Path_12348" data-name="Path 12348" d="M505.871,499.38a.215.215,0,0,1-.153-.366,3.2,3.2,0,0,1,.724-.486c.094-.052.186-.1.266-.151a.215.215,0,0,1,.224.367c-.085.052-.182.105-.283.161a2.915,2.915,0,0,0-.624.411.214.214,0,0,1-.153.064" transform="translate(-465.551 -458.821)" fill="#5779aa"/>
    <path id="Path_12349" data-name="Path 12349" d="M364.39,660.834a.215.215,0,0,1-.215-.215c0-.747-.029-1.507-.056-2.242s-.056-1.5-.056-2.261a.215.215,0,1,1,.43,0c0,.748.029,1.509.056,2.245s.056,1.5.056,2.258a.215.215,0,0,1-.215.215" transform="translate(-335.188 -603.881)" fill="#5779aa"/>
    <path id="Path_12350" data-name="Path 12350" d="M338.221,661.23a.215.215,0,0,1-.213-.191c-.057-.5-.054-1.475-.05-2.414a19.231,19.231,0,0,0-.059-2.3.215.215,0,1,1,.421-.089,18.216,18.216,0,0,1,.069,2.392c0,.927-.007,1.885.047,2.364a.215.215,0,0,1-.189.238h-.025" transform="translate(-311.095 -604.031)" fill="#5779aa"/>
    <path id="Path_12351" data-name="Path 12351" d="M338.4,368.949a.215.215,0,0,1-.215-.215c0-1.877-.046-3.9-.145-6.364-.034-.839-.13-1.691-.224-2.515a28.166,28.166,0,0,1-.239-3.171.215.215,0,1,1,.43,0,27.759,27.759,0,0,0,.237,3.122c.094.831.192,1.691.227,2.546.1,2.47.145,4.5.145,6.381a.215.215,0,0,1-.215.215" transform="translate(-310.8 -328.197)" fill="#5779aa"/>
    <path id="Path_12352" data-name="Path 12352" d="M350.317,662.977a.215.215,0,0,1-.215-.215,8.758,8.758,0,0,0-.073-.958,7.751,7.751,0,0,1-.072-1.165c.007-.185.03-.4.054-.643a6.444,6.444,0,0,0,.035-1.6.215.215,0,1,1,.424-.071,6.746,6.746,0,0,1-.032,1.717c-.023.228-.045.438-.052.616a7.275,7.275,0,0,0,.07,1.1,9.063,9.063,0,0,1,.075,1.006.215.215,0,0,1-.215.215" transform="translate(-322.199 -605.946)" fill="#5779aa"/>
  </g>
</svg>
