<svg id="dr_about" xmlns="http://www.w3.org/2000/svg" width="20" height="20" viewBox="0 0 20 20">
  <rect id="icon" width="20" height="20" transform="translate(0 0)" fill="none"/>
  <path id="Path_14133" data-name="Path 14133" d="M21.682,8.58a9.991,9.991,0,1,0-13.1,13.1,9.962,9.962,0,0,0,10.948-2.149,10.013,10.013,0,0,0,2.149-3.179,9.985,9.985,0,0,0,0-7.773Zm-9.212,13.2a9.31,9.31,0,1,1,9.31-9.31A9.32,9.32,0,0,1,12.47,21.779Z" transform="translate(-2.47 -2.47)" fill="#014e78"/>
  <path id="Path_14134" data-name="Path 14134" d="M12.81,11.507V17.3a.3.3,0,0,1-.117.248.29.29,0,0,1-.214.092h-.01a.363.363,0,0,1-.214-.078.3.3,0,0,1-.117-.17h0a5.243,5.243,0,0,1-.019-.535V12.509a.666.666,0,0,0-.6-.666h0a.373.373,0,0,1-.36-.272l0-.01,0-.01s-.01-.024,0-.073l0-.019v-.019a.335.335,0,0,1,.2-.267h0a1.4,1.4,0,0,1,.326-.039h.763a.339.339,0,0,1,.306.165A.426.426,0,0,1,12.81,11.507Z" transform="translate(-2.47 -2.47)" fill="#014e78"/>
  <path id="Path_14135" data-name="Path 14135" d="M13.15,7.876h0a.683.683,0,0,1-.681.681h0a.683.683,0,0,1-.681-.681h0a.683.683,0,0,1,.681-.681h0A.686.686,0,0,1,13.15,7.876Z" transform="translate(-2.47 -2.47)" fill="#014e78"/>
</svg>
