<svg id="dw_appointments" xmlns="http://www.w3.org/2000/svg" width="20" height="20" viewBox="0 0 20 20">
  <rect id="icon" width="20" height="20" transform="translate(0 0)" fill="none"/>
  <path id="Path_14165" data-name="Path 14165" d="M19.407,2.3a1.173,1.173,0,0,0-.239-.538,1.193,1.193,0,0,0-.569-.4,1.574,1.574,0,0,0-.467-.059c-.318,0-.636-.008-.95-.008-.169,0-.338,0-.5,0h0a.086.086,0,0,1-.078-.086,2.344,2.344,0,0,0,0-.334,1.057,1.057,0,0,0-.078-.31.908.908,0,0,0-.738-.53h-.141a.9.9,0,0,0-.773.573A.906.906,0,0,0,14.8.907a2.7,2.7,0,0,0,0,.31v0a.075.075,0,0,1-.075.075H5.365A.066.066,0,0,1,5.3,1.228V1.068A.92.92,0,0,0,4.474.039H4.333a.9.9,0,0,0-.82.742A1.066,1.066,0,0,0,3.493,1c0,.078,0,.157,0,.228a.074.074,0,0,1-.075.071c-.181,0-.361,0-.538,0-.322,0-.64,0-.946.008a1.453,1.453,0,0,0-.412.055A1.2,1.2,0,0,0,.71,2.21,1.232,1.232,0,0,0,.671,2.5c0,.082,0,.184,0,.3,0,4.278,0,8.611,0,12.881a1.208,1.208,0,0,0,.2.695,1.194,1.194,0,0,0,.648.483,3.179,3.179,0,0,0,.765.059h.9c.993,0,2,0,2.991,0a.508.508,0,0,0,.251-.047.24.24,0,0,0,.118-.251.312.312,0,0,0-.071-.169.217.217,0,0,0-.173-.078H2.041a1.1,1.1,0,0,1-.416-.059.636.636,0,0,1-.349-.349,1.113,1.113,0,0,1-.059-.416c0-3.485,0-7.017,0-10.491a.069.069,0,0,1,.067-.067l17.524,0a.069.069,0,0,1,.067.067V15.522a1.189,1.189,0,0,1-.059.436.622.622,0,0,1-.345.345,1.179,1.179,0,0,1-.432.059H17.3c-.812,0-1.633,0-2.445,0a.538.538,0,0,0-.243.043.235.235,0,0,0-.126.22.3.3,0,0,0,.063.192.235.235,0,0,0,.2.09h3.206a2.4,2.4,0,0,0,.6-.055,1.19,1.19,0,0,0,.769-.671,1.133,1.133,0,0,0,.09-.306,2.659,2.659,0,0,0,.02-.33V2.889C19.427,2.575,19.419,2.374,19.407,2.3ZM15.345.934a.342.342,0,0,1,.341-.341h.02a.342.342,0,0,1,.341.341V2.52a.342.342,0,0,1-.341.341h-.02a.342.342,0,0,1-.341-.341Zm-11.3,0A.342.342,0,0,1,4.384.593H4.4a.342.342,0,0,1,.341.341V2.52a.342.342,0,0,1-.341.341h-.02a.342.342,0,0,1-.341-.341Zm14.835,3.43a.07.07,0,0,1-.071.071H1.291a.075.075,0,0,1-.075-.075V2.61a.709.709,0,0,1,.392-.7.741.741,0,0,1,.306-.063c.243,0,.495-.008.738-.008s.514,0,.773.008a.06.06,0,0,1,.059.059c.008.145.008.29.008.436a1.823,1.823,0,0,0,.039.42.888.888,0,0,0,.808.651.381.381,0,0,0,.067,0,.821.821,0,0,0,.353-.094.886.886,0,0,0,.491-.553,1.707,1.707,0,0,0,.043-.42V1.919a.075.075,0,0,1,.02-.051.083.083,0,0,1,.051-.02h9.352a.075.075,0,0,1,.075.075v.428a1.558,1.558,0,0,0,.039.412.908.908,0,0,0,.867.655.7.7,0,0,0,.216-.031.935.935,0,0,0,.314-.153.858.858,0,0,0,.326-.467,1.731,1.731,0,0,0,.043-.42V1.915a.074.074,0,0,1,.071-.075c.475,0,.962,0,1.448,0h.008a.672.672,0,0,1,.691.424,1.065,1.065,0,0,1,.055.4V4.364Z" transform="translate(-0.049 -0.039)" fill="#014e78"/>
  <path id="Path_14166" data-name="Path 14166" d="M15.251,12.6a1.787,1.787,0,0,0-.9-1.048,1.936,1.936,0,0,0-.738-.2c-.047,0-.094,0-.137,0a1.74,1.74,0,0,0-1.142.424,1.762,1.762,0,0,0-.667,1.3A1.873,1.873,0,0,0,13.171,15a.067.067,0,0,1,.051.067c.008.526,0,1.068,0,1.6a3.512,3.512,0,0,1-.071.746,2.709,2.709,0,0,1-2.131,2.037,2.525,2.525,0,0,1-.487.047A2.707,2.707,0,0,1,8.5,18.6a2.761,2.761,0,0,1-.44-.659,2.611,2.611,0,0,1-.255-1.126V15.078a.072.072,0,0,1,.063-.071,2.784,2.784,0,0,0,1.405-.593,2.879,2.879,0,0,0,.53-.561,2.76,2.76,0,0,0,.506-1.366c.008-.09.012-.353.012-.781,0-.75,0-1.507,0-2.257a1.215,1.215,0,0,0-.4-.934,1.177,1.177,0,0,0-.608-.29A1.352,1.352,0,0,0,9.133,8.2H9.121a.274.274,0,0,0-.149.039.252.252,0,0,0-.137.235.27.27,0,0,0,.067.181.265.265,0,0,0,.184.094l.149.016a.654.654,0,0,1,.479.385,1.018,1.018,0,0,1,.059.392c0,.695,0,1.4,0,2.092,0,.487,0,.746-.008.789a2.234,2.234,0,0,1-.526,1.264,2.2,2.2,0,0,1-1.7.785c-.063,0-.13,0-.192-.008a2.171,2.171,0,0,1-1.491-.754,2.24,2.24,0,0,1-.491-.93,2.935,2.935,0,0,1-.063-.648C5.3,11.291,5.294,10.44,5.3,9.6a1.173,1.173,0,0,1,.063-.451A.662.662,0,0,1,5.8,8.768s.008,0,.192-.024a.257.257,0,0,0,.224-.181.25.25,0,0,0-.063-.286.272.272,0,0,0-.137-.071A.588.588,0,0,0,5.934,8.2a.58.58,0,0,0-.082,0,1.237,1.237,0,0,0-.757.365,1.207,1.207,0,0,0-.345.859c0,.73,0,1.468,0,2.2,0,.467,0,.73.008.781A2.76,2.76,0,0,0,5.385,14a2.725,2.725,0,0,0,.565.522A3.035,3.035,0,0,0,7.182,15a.088.088,0,0,1,.075.086v1.68a3.3,3.3,0,0,0,.263,1.3,3.323,3.323,0,0,0,2.857,1.978h.271a3.231,3.231,0,0,0,1.837-.667,3.2,3.2,0,0,0,1.248-2.119,6.052,6.052,0,0,0,.039-.777V15.043a.072.072,0,0,1,.063-.071.833.833,0,0,0,.181-.039,1.861,1.861,0,0,0,1.02-.757,1.929,1.929,0,0,0,.283-.71A1.673,1.673,0,0,0,15.251,12.6ZM14.7,13.673a1.328,1.328,0,0,1-.848.761.03.03,0,0,1-.016,0,.054.054,0,0,1-.055-.055V13.8a.179.179,0,0,1,.051-.122.6.6,0,0,0,.2-.73.62.62,0,0,0-.31-.306.57.57,0,0,0-.232-.055.522.522,0,0,0-.235.059.6.6,0,0,0-.334.436.621.621,0,0,0,.243.585.169.169,0,0,1,.055.126v.557a.05.05,0,0,1,0,.024.076.076,0,0,1-.067.047.05.05,0,0,1-.024,0,1.32,1.32,0,0,1-.863-.859,1.269,1.269,0,0,1-.043-.6,1.3,1.3,0,0,1,1.032-1.048,1.641,1.641,0,0,1,.239-.02,1.287,1.287,0,0,1,.549.122,1.243,1.243,0,0,1,.632.648,1.318,1.318,0,0,1,.024,1.016Z" transform="translate(-0.049 -0.039)" fill="#014e78"/>
</svg>
