<svg id="dr_are_you_doctor" xmlns="http://www.w3.org/2000/svg" width="20" height="20" viewBox="0 0 20 20">
  <rect id="icon" width="20" height="20" fill="none"/>
  <path id="Path_14148" data-name="Path 14148" d="M17.823,16.735c0-.286-.008-.552-.02-.791a2.087,2.087,0,0,0-.086-.513,2.12,2.12,0,0,0-1.245-1.358c-.055-.023-.305-.1-.744-.239-.5-.157-1.01-.313-1.515-.47a.071.071,0,0,1-.043-.039.4.4,0,0,1-.02-.1c0-.051-.008-.074-.008-.086a.719.719,0,0,0-.391-.454c-.407-.211-.822-.419-1.233-.619a.052.052,0,0,1-.031-.051v-.893a.077.077,0,0,1,.035-.067,4.443,4.443,0,0,0,1.8-2.916.067.067,0,0,1,.067-.055h0c.031,0,.063,0,.094,0a1.144,1.144,0,0,0,.681-.211,1.013,1.013,0,0,0,.431-.654,1.037,1.037,0,0,0-.086-.642,1.077,1.077,0,0,0-.482-.489.066.066,0,0,1-.035-.055V2.862A2.16,2.16,0,0,0,14.375,1.3a2.113,2.113,0,0,0-1.288-.63c-.02,0-.07,0-.157-.012A.486.486,0,0,1,12.824.65a.242.242,0,0,1-.106-.043,2.852,2.852,0,0,0-.474-.258,4.137,4.137,0,0,0-1.5-.325H10.48A10.629,10.629,0,0,0,9.313.11,6.455,6.455,0,0,0,7.606.575L6.745.947a14.768,14.768,0,0,1-1.472.568.832.832,0,0,0-.2.086.228.228,0,0,0-.1.2.626.626,0,0,0,.1.274,2.8,2.8,0,0,0,.36.493.071.071,0,0,1,.008.09A2.445,2.445,0,0,0,5.05,3.942c-.012.673-.016,1.37-.012,2.071a.137.137,0,0,1-.07.117,1.093,1.093,0,0,0-.36.321,1.02,1.02,0,0,0-.176.435.985.985,0,0,0,.125.677A1.019,1.019,0,0,0,5,7.97a1.307,1.307,0,0,0,.572.117h.047a.094.094,0,0,1,.1.09,4.356,4.356,0,0,0,1.8,2.893.067.067,0,0,1,.027.051v.889a.076.076,0,0,1-.039.067c-.419.2-.838.415-1.249.622a.644.644,0,0,0-.384.607.064.064,0,0,1-.043.059c-.6.184-1.21.372-1.8.556A4.094,4.094,0,0,0,3.3,14.2a2.088,2.088,0,0,0-.986,1.221,2.333,2.333,0,0,0-.09.6c-.008.211-.012.485-.016.814,0,.951,0,1.914.008,2.862a.407.407,0,0,0,.02.137.246.246,0,0,0,.078.11A.239.239,0,0,0,2.474,20H2.49a.234.234,0,0,0,.235-.164.86.86,0,0,0,.027-.274V16.582a7.43,7.43,0,0,1,.023-.787,1.54,1.54,0,0,1,.814-1.147,1.915,1.915,0,0,1,.305-.133c.1-.035.207-.07.313-.1.615-.184,1.225-.376,1.82-.56a.108.108,0,0,1,.035,0,.1.1,0,0,1,.086.043l.337.458a.048.048,0,0,1,0,.063l-.313.325a1.455,1.455,0,0,0-.274.344.841.841,0,0,0-.082.489,1.73,1.73,0,0,0,.164.458c.239.5.489,1,.744,1.484a.057.057,0,0,1,.008.027.058.058,0,0,1-.059.059H5.939a.052.052,0,0,1-.051-.051c0-.106,0-.207-.008-.305a.255.255,0,0,0-.168-.251.263.263,0,0,0-.094-.016.124.124,0,0,0-.055.008.254.254,0,0,0-.137.078.338.338,0,0,0-.07.2,1.983,1.983,0,0,0,0,.266v0a.07.07,0,0,1-.07.07H4.189a.553.553,0,0,0-.27.047.293.293,0,0,0-.125.27V19.5a2.249,2.249,0,0,0,.008.309.3.3,0,0,0,.243.215H7.211a.286.286,0,0,0,.2-.106.358.358,0,0,0,.055-.2c.008-.172.008-.348,0-.525a.062.062,0,0,1,0-.047.043.043,0,0,1,.035-.023H7.5a.051.051,0,0,1,.047.031c.1.223.211.442.329.662a.391.391,0,0,0,.145.172.232.232,0,0,0,.114.027.223.223,0,0,0,.051,0,.244.244,0,0,0,.137-.07.274.274,0,0,0,.035-.348c-.638-1.268-1.28-2.556-1.914-3.829a.634.634,0,0,1-.086-.278.408.408,0,0,1,.133-.29l.552-.552a.294.294,0,0,0,.1-.243.489.489,0,0,0-.11-.219c-.2-.27-.4-.54-.6-.81a.113.113,0,0,1-.027-.086.119.119,0,0,1,.059-.067l1.127-.575s.008,0,.012,0l.016,0a.059.059,0,0,1,.059.043c.262.908.528,1.816.791,2.709a.284.284,0,0,0,.282.239.241.241,0,0,0,.168-.07.276.276,0,0,0,.063-.3c-.031-.121-.067-.247-.106-.368a.049.049,0,0,1,0-.051.035.035,0,0,1,.031-.016.076.076,0,0,1,.027,0,3.4,3.4,0,0,0,2.173,0,.05.05,0,0,1,.023,0,.035.035,0,0,1,.031.016.051.051,0,0,1,0,.047l-1.1,3.782c0,.016-.016.051-.043.051s-.039-.035-.043-.051c-.2-.689-.4-1.386-.607-2.071a.394.394,0,0,0-.106-.176.235.235,0,0,0-.164-.059H9.094a.263.263,0,0,0-.251.207.3.3,0,0,0,.016.168.6.6,0,0,1,.031.1c.266.936.544,1.883.822,2.815,0,0,0,0,.027.117A.321.321,0,0,0,10,20.02h.043a.276.276,0,0,0,.235-.207c.693-2.364,1.394-4.772,2.09-7.152,0,0,0,0,0-.008a.048.048,0,0,1,.043-.027.029.029,0,0,1,.02,0c.368.18.736.364,1.092.548.106.055.106.121.086.168,0,0-.008.016-.078.11-.188.254-.38.509-.568.759a.279.279,0,0,0-.047.321,1.725,1.725,0,0,0,.207.227l.411.411a.456.456,0,0,1,.141.27.506.506,0,0,1-.074.274c-.626,1.276-1.272,2.568-1.91,3.836a.358.358,0,0,0-.043.3.326.326,0,0,0,.231.161h.043a.25.25,0,0,0,.176-.1c.266-.509.9-1.777,1.895-3.774.055-.11.1-.2.133-.278a.954.954,0,0,0,.086-.29.893.893,0,0,0-.055-.431,1.386,1.386,0,0,0-.274-.38c-.106-.114-.219-.227-.337-.341a.071.071,0,0,1-.008-.09l.344-.462a.068.068,0,0,1,.055-.027.035.035,0,0,1,.02,0c.724.215,1.437.435,2.106.654a2.269,2.269,0,0,1,.47.207,1.543,1.543,0,0,1,.716,1.135c.012.078.016.337.016.787,0,1.006,0,2.024.008,3.026a.46.46,0,0,0,.035.207.234.234,0,0,0,.176.129.316.316,0,0,0,.059,0,.234.234,0,0,0,.137-.039.276.276,0,0,0,.1-.114.355.355,0,0,0,.023-.149C17.823,18.955,17.827,17.957,17.823,16.735ZM6.933,18.184v1.245a.052.052,0,0,1-.051.051H4.377a.048.048,0,0,1-.035-.016.058.058,0,0,1-.016-.035l0-1.245a.048.048,0,0,1,.047-.047l.936,0a.055.055,0,0,1,.055.047.256.256,0,0,0,.117.215.243.243,0,0,0,.137.039.3.3,0,0,0,.082-.012.264.264,0,0,0,.192-.247.05.05,0,0,1,.047-.043l.94,0A.066.066,0,0,1,6.933,18.184ZM5.68,1.973a.054.054,0,0,1,.031-.027c.63-.235,1.253-.489,1.852-.756.317-.141.564-.239.728-.294A6.587,6.587,0,0,1,10.01.583c.215-.012.4-.016.556-.016.082,0,.161,0,.227,0a3.737,3.737,0,0,1,1.159.243,1.96,1.96,0,0,1,.783.536,1.3,1.3,0,0,1,.164.27.381.381,0,0,0,.129.161.282.282,0,0,0,.125.031h.027a.249.249,0,0,0,.137-.059.261.261,0,0,0,.055-.372c-.012-.023-.023-.047-.012-.067a.036.036,0,0,1,.031-.016.1.1,0,0,1,.043.012,1.608,1.608,0,0,1,.959,1.1,3.585,3.585,0,0,1,.059.783c0,.908,0,1.832,0,2.74a.046.046,0,0,1-.039.047.711.711,0,0,1-.125.012h-.125a.405.405,0,0,1-.317-.117.507.507,0,0,1-.106-.384,3.1,3.1,0,0,0-.129-.986,3.852,3.852,0,0,0-.877-1.55.288.288,0,0,0-.157-.094.1.1,0,0,0-.035,0,.579.579,0,0,0-.141.023c-.419.125-.846.235-1.268.329a9.32,9.32,0,0,1-2,.219c-.164,0-.333,0-.5-.012a4.858,4.858,0,0,1-1.456-.305A3.549,3.549,0,0,1,6.013,2.4a2.609,2.609,0,0,1-.329-.368s0-.008-.008-.012A.078.078,0,0,1,5.68,1.973Zm6.267,10.076a1.511,1.511,0,0,1-.063.364L11.4,14.058a.136.136,0,0,1-.074.086A2.895,2.895,0,0,1,8.7,14.132a.1.1,0,0,1-.055-.063c-.172-.587-.344-1.174-.509-1.742a.9.9,0,0,1-.047-.223c0-.211,0-.423,0-.634a.035.035,0,0,1,0-.02.047.047,0,0,1,.039-.027.035.035,0,0,1,.02,0,4.419,4.419,0,0,0,3.731,0,.029.029,0,0,1,.02,0,.051.051,0,0,1,.051.047C11.959,11.666,11.955,11.858,11.948,12.049Zm.29-1.441a3.741,3.741,0,0,1-1.519.65,3.856,3.856,0,0,1-.677.063H9.935a3.708,3.708,0,0,1-2.642-1.155A3.76,3.76,0,0,1,6.216,7.657a.667.667,0,0,0-.055-.278.214.214,0,0,0-.192-.117.323.323,0,0,0-.1.016.222.222,0,0,0-.125.082.46.46,0,0,0-.067.153.072.072,0,0,1-.059.051H5.563A.525.525,0,0,1,5,7.2a.469.469,0,0,1,.023-.372.508.508,0,0,1,.313-.258,1,1,0,0,1,.321-.043h.082a.954.954,0,0,0,.106,0c.055,0,.114,0,.168-.008a.889.889,0,0,0,.262-.059.857.857,0,0,0,.513-.528A1.66,1.66,0,0,0,6.839,5.4c0-.274,0-.556,0-.83A.272.272,0,0,0,6.69,4.3a.28.28,0,0,0-.121-.031.257.257,0,0,0-.137.043.3.3,0,0,0-.133.282V5.618a.372.372,0,0,1-.082.243.352.352,0,0,1-.207.117A.869.869,0,0,1,5.8,6a1.148,1.148,0,0,1-.161-.012.072.072,0,0,1-.063-.07V4.255c0-.055,0-.117.008-.184s.008-.121.012-.184a2.03,2.03,0,0,1,.235-.849s0,0,0-.008a.068.068,0,0,1,.043-.023.044.044,0,0,1,.031.012,4.561,4.561,0,0,0,1.382.7,5.679,5.679,0,0,0,1.026.211,7.234,7.234,0,0,0,.822.047,7.721,7.721,0,0,0,.795-.043c.153-.016.309-.035.466-.055s.317-.043.462-.07c.517-.1,1.033-.223,1.538-.368l.016,0a.063.063,0,0,1,.043.02,3.078,3.078,0,0,1,.752,2.04,1.533,1.533,0,0,0,.031.356.847.847,0,0,0,.669.646,1.809,1.809,0,0,0,.344.027h.09a2.827,2.827,0,0,1,.317.012.508.508,0,0,1,.368.278.433.433,0,0,1,.035.36.531.531,0,0,1-.2.266.607.607,0,0,1-.368.117.578.578,0,0,1-.082,0,.05.05,0,0,1-.043-.043.336.336,0,0,0-.082-.176.256.256,0,0,0-.161-.082c-.012,0-.027,0-.039,0a.248.248,0,0,0-.18.082.241.241,0,0,0-.059.114.722.722,0,0,0-.016.133A3.823,3.823,0,0,1,12.237,10.609Z" transform="translate(-0.016 -0.023)" fill="#014e78"/>
  <path id="Path_14149" data-name="Path 14149" d="M8.71,5.614v.027a.252.252,0,0,1-.251.251H7.818a.252.252,0,0,1-.251-.251V5.614a.252.252,0,0,1,.251-.251H8.46A.252.252,0,0,1,8.71,5.614Z" transform="translate(-0.016 -0.023)" fill="#014e78"/>
  <path id="Path_14150" data-name="Path 14150" d="M12.476,5.614v.027a.252.252,0,0,1-.251.251h-.642a.252.252,0,0,1-.251-.251V5.614a.252.252,0,0,1,.251-.251h.642A.252.252,0,0,1,12.476,5.614Z" transform="translate(-0.016 -0.023)" fill="#014e78"/>
  <path id="Path_14151" data-name="Path 14151" d="M8.4,6.557V6.9a.241.241,0,0,1-.243.243H8.127A.241.241,0,0,1,7.884,6.9V6.557a.241.241,0,0,1,.243-.243h.035A.244.244,0,0,1,8.4,6.557Z" transform="translate(-0.016 -0.023)" fill="#014e78"/>
  <path id="Path_14152" data-name="Path 14152" d="M12.167,6.9a.241.241,0,0,1-.243.243h-.039a.244.244,0,0,1-.243-.243V6.557a.241.241,0,0,1,.243-.243h.039V6.3h0v.012a.244.244,0,0,1,.243.243Z" transform="translate(-0.016 -0.023)" fill="#014e78"/>
  <path id="Path_14153" data-name="Path 14153" d="M11.216,8.831a.381.381,0,0,1-.145.184,1.6,1.6,0,0,1-.779.305,2.337,2.337,0,0,1-.286.02,2.153,2.153,0,0,1-.587-.086A1.244,1.244,0,0,1,8.9,8.961a.24.24,0,0,1-.074-.27A.261.261,0,0,1,9,8.522a.333.333,0,0,1,.086-.016.283.283,0,0,1,.172.063c.117.082.117.086.121.086a1.349,1.349,0,0,0,.5.153,1.3,1.3,0,0,0,.172.008,1.24,1.24,0,0,0,.744-.239.3.3,0,0,1,.18-.067h.016a.264.264,0,0,1,.168.082A.224.224,0,0,1,11.216,8.831Z" transform="translate(-0.016 -0.023)" fill="#014e78"/>
  <path id="Path_14154" data-name="Path 14154" d="M16.191,18.188a.223.223,0,0,1-.192.094c-.09.008-.18.012-.266.012-.07,0-.141,0-.211-.008h0a.051.051,0,0,0-.051.047v.446a.3.3,0,0,1-.067.2.244.244,0,0,1-.168.086c-.016,0-.027,0-.039,0a.225.225,0,0,1-.18-.082.322.322,0,0,1-.067-.2,4.247,4.247,0,0,1-.012-.446.044.044,0,0,0-.012-.031.048.048,0,0,0-.031-.016h-.125a3.339,3.339,0,0,1-.38-.012.246.246,0,0,1-.223-.2.241.241,0,0,1,.1-.274.579.579,0,0,1,.262-.051h.36a.052.052,0,0,0,.051-.051c0-.149,0-.294,0-.435A.268.268,0,0,1,15.087,17a.274.274,0,0,1,.121-.027.294.294,0,0,1,.133.035.277.277,0,0,1,.133.258c0,.121,0,.262,0,.419a.065.065,0,0,0,.02.047.072.072,0,0,0,.047.02h0c.067,0,.133,0,.192,0,.086,0,.168,0,.243.008a.317.317,0,0,1,.188.07A.28.28,0,0,1,16.191,18.188Z" transform="translate(-0.016 -0.023)" fill="#014e78"/>
</svg>
