<svg id="dr_contactus" xmlns="http://www.w3.org/2000/svg" width="20" height="20" viewBox="0 0 20 20">
  <rect id="icon" width="20" height="20" fill="none"/>
  <path id="Path_14137" data-name="Path 14137" d="M21.749,12.043a1.6,1.6,0,0,0-.3-.648,1.832,1.832,0,0,0-1.206-.686.131.131,0,0,1-.1-.085,1.9,1.9,0,0,0-.69-.979.188.188,0,0,1-.076-.147A7.846,7.846,0,0,0,18.69,6.53a7.62,7.62,0,0,0-2.511-3.1,6.884,6.884,0,0,0-3.721-1.314c-.128,0-.26-.009-.383-.009a6.782,6.782,0,0,0-2.53.487A7.126,7.126,0,0,0,6.846,4.5,7.941,7.941,0,0,0,4.837,9.48a.226.226,0,0,1-.1.18,1.857,1.857,0,0,0-.676.974.091.091,0,0,1-.08.066,1.78,1.78,0,0,0-1.433,1.083,1.663,1.663,0,0,0-.085.246,1.93,1.93,0,0,0-.047.255c0,.525,0,1.054,0,1.579a3.189,3.189,0,0,0,.071.8,1.721,1.721,0,0,0,.634.9,1.746,1.746,0,0,0,.846.34.123.123,0,0,1,.1.085,1.711,1.711,0,0,0,.671.979,1.737,1.737,0,0,0,1.031.35.911.911,0,0,0,.113,0,1.8,1.8,0,0,0,.861-.284,1.694,1.694,0,0,0,.742-1.012,2.273,2.273,0,0,0,.066-.577c.009-1.414.019-2.846.014-4.26a1.924,1.924,0,0,0-.752-1.541.2.2,0,0,1-.071-.156A5.8,5.8,0,0,1,8,6.113a5.437,5.437,0,0,1,.652-.7,5.3,5.3,0,0,1,2.2-1.182,4.754,4.754,0,0,1,.946-.147c.109,0,.217-.009.322-.009A4.974,4.974,0,0,1,15.6,5.461a5.731,5.731,0,0,1,1.863,4.08.1.1,0,0,1-.043.09,1.809,1.809,0,0,0-.7,1.007,2.132,2.132,0,0,0-.061.515c0,.147,0,.326,0,.534V15.48a1.744,1.744,0,0,0,.96,1.645,1.21,1.21,0,0,0,.142.061l.156.071a.086.086,0,0,1,.043.1,3.374,3.374,0,0,1-.515,1.026,5.024,5.024,0,0,1-1.622,1.39,7.4,7.4,0,0,1-3.366.908h0a.106.106,0,0,1-.09-.057,1.063,1.063,0,0,0-.813-.652c-.071-.009-.288-.024-.652-.033-.08,0-.156,0-.232,0a3.7,3.7,0,0,0-.426.019,1.017,1.017,0,0,0-.842.591.991.991,0,0,0-.113.662,1.022,1.022,0,0,0,.686.823,1.336,1.336,0,0,0,.435.066c.151,0,.307,0,.463,0h.052a5.163,5.163,0,0,0,.629-.024,1.14,1.14,0,0,0,.809-.657.135.135,0,0,1,.118-.076,9.534,9.534,0,0,0,1.8-.265,7.475,7.475,0,0,0,1.976-.8,5.812,5.812,0,0,0,1.437-1.173,4.448,4.448,0,0,0,.95-1.735.108.108,0,0,1,.085-.076,1.838,1.838,0,0,0,1.433-1.314.134.134,0,0,1,.109-.09,1.752,1.752,0,0,0,1.461-1.234,3.668,3.668,0,0,0,.071-.884v-1.04A3.457,3.457,0,0,0,21.749,12.043ZM3.986,15.158a.043.043,0,0,1,0,.024.081.081,0,0,1-.08.061.043.043,0,0,1-.024,0,1.013,1.013,0,0,1-.426-.222,1.11,1.11,0,0,1-.392-.87c0-.53,0-1.064,0-1.593a1.114,1.114,0,0,1,.8-1.163.08.08,0,0,1,.033,0,.1.1,0,0,1,.1.1Zm7.787,5.891a.4.4,0,0,1-.118.284.408.408,0,0,1-.284.118H10.34a.4.4,0,0,1-.4-.407v-.028a.4.4,0,0,1,.407-.4h1.031a.4.4,0,0,1,.284.118.405.405,0,0,1,.118.284v.033ZM6.889,11.069V15.6a1.078,1.078,0,0,1-1.078,1.078H5.745A1.078,1.078,0,0,1,4.667,15.6v-4.53A1.078,1.078,0,0,1,5.745,9.991h.066A1.078,1.078,0,0,1,6.889,11.069ZM16.284,5.22a6.133,6.133,0,0,0-.7-.619,5.746,5.746,0,0,0-3.319-1.168c-.066,0-.132,0-.2,0a5.4,5.4,0,0,0-.733.052,5.766,5.766,0,0,0-2.5.974A6.119,6.119,0,0,0,7.475,5.74,6.6,6.6,0,0,0,6.1,9.229a.114.114,0,0,1-.113.1h0l-.407,0h0a.081.081,0,0,1-.076-.09A7.135,7.135,0,0,1,7.787,4.454a6.26,6.26,0,0,1,2.861-1.527,5.73,5.73,0,0,1,.941-.147c.175-.014.35-.019.525-.019a6.326,6.326,0,0,1,4.184,1.6A7.152,7.152,0,0,1,18.7,9.239h0v0a.1.1,0,0,1-.09.095l-.411.009h0a.1.1,0,0,1-.095-.085A6.533,6.533,0,0,0,16.284,5.22Zm3.258,10.374a1.078,1.078,0,0,1-1.078,1.078H18.4a1.078,1.078,0,0,1-1.078-1.078v-4.53A1.078,1.078,0,0,1,18.4,9.986h.066a1.078,1.078,0,0,1,1.078,1.078Zm.823-.364a.1.1,0,0,1-.038,0h0a.116.116,0,0,1-.118-.113l.009-3.636a.092.092,0,0,1,0-.033.1.1,0,0,1,.095-.071.06.06,0,0,1,.028,0,1.065,1.065,0,0,1,.719.662,2.707,2.707,0,0,1,.08.8v1.234A1.1,1.1,0,0,1,20.364,15.229Z" transform="translate(-2.102 -2.104)" fill="#014e78"/>
</svg>
