<svg id="dr_favorite" xmlns="http://www.w3.org/2000/svg" width="20" height="20" viewBox="0 0 20 20">
  <rect id="icon" width="20" height="20" fill="none"/>
  <path id="Path_17216" data-name="Path 17216" d="M20.056,5.3a4.46,4.46,0,0,0-.286-.7A5.35,5.35,0,0,0,16.859,1.94a4.828,4.828,0,0,0-.722-.222,5.4,5.4,0,0,0-1.181-.137H14.94a5.326,5.326,0,0,0-3.008.923,5.811,5.811,0,0,0-.6.472c-.254.23-.5.472-.738.718l0,0,0,0a.353.353,0,0,1-.254.1.367.367,0,0,1-.258-.109c-.2-.2-.4-.4-.6-.6a5.4,5.4,0,0,0-2.94-1.464,4.766,4.766,0,0,0-.758-.06H5.722a5.369,5.369,0,0,0-2.8.774,4.794,4.794,0,0,0-.621.44A5.5,5.5,0,0,0,1.036,4.274,5.441,5.441,0,0,0,.323,6.887v.161a5.4,5.4,0,0,0,1.185,3.266,7.364,7.364,0,0,0,.52.565c2.637,2.649,5.315,5.327,7.96,7.964a1.1,1.1,0,0,0,.258.214.264.264,0,0,0,.073.016.243.243,0,0,0,.1-.024,1.055,1.055,0,0,0,.23-.194c2.661-2.641,5.355-5.327,8-7.984a6.564,6.564,0,0,0,.516-.565,5.437,5.437,0,0,0,1.157-3.242V6.9A5.814,5.814,0,0,0,20.056,5.3Zm-.294,2.137a4.778,4.778,0,0,1-.976,2.488,6.879,6.879,0,0,1-.569.629c-2.173,2.177-4.383,4.379-6.565,6.544-.351.347-.714.71-1.085,1.081l0,0a.355.355,0,0,1-.246.1.351.351,0,0,1-.25-.1L2.657,10.77c-.161-.161-.3-.3-.411-.419A4.846,4.846,0,0,1,.911,6.266a4.63,4.63,0,0,1,.54-1.625,4.7,4.7,0,0,1,.48-.714A4.813,4.813,0,0,1,4.25,2.339,4.516,4.516,0,0,1,5.1,2.157a5.751,5.751,0,0,1,.637-.04A4.8,4.8,0,0,1,8.891,3.3c.161.137.508.472,1.052,1.028a1.931,1.931,0,0,0,.29.254.192.192,0,0,0,.081.016.275.275,0,0,0,.093-.02.642.642,0,0,0,.169-.129c.258-.254.516-.5.77-.758a8.168,8.168,0,0,1,.625-.569,4.747,4.747,0,0,1,2.444-.98c.181-.016.359-.028.532-.028a4.7,4.7,0,0,1,2.7.843,4.886,4.886,0,0,1,2.1,3.609A3.9,3.9,0,0,1,19.762,7.435Z" transform="translate(-0.323 -0.323)" fill="#014e78"/>
</svg>
