<svg id="dr_hospital" xmlns="http://www.w3.org/2000/svg" width="20" height="20" viewBox="0 0 20 20">
  <rect id="icon" width="20" height="20" transform="translate(0 0)" fill="none"/>
  <path id="Path_14155" data-name="Path 14155" d="M22.036,9.375a1.112,1.112,0,0,0-.429-.048H19.356a.207.207,0,0,1-.205-.205V4.745a.761.761,0,0,0-.048-.339.334.334,0,0,0-.339-.172H16.314A.214.214,0,0,1,16.1,4.02c0-.134,0-.253,0-.358a1.346,1.346,0,0,0-.62-1.23,1.19,1.19,0,0,0-.687-.224H10.262a6.6,6.6,0,0,0-.839.024,1.352,1.352,0,0,0-.987.782,1.342,1.342,0,0,0-.11.5c0,.157-.01.329-.01.51v0a.228.228,0,0,1-.229.224h0c-.606-.01-1.221-.014-1.831-.014H5.665a.352.352,0,0,0-.358.181.621.621,0,0,0-.043.272v4.43a.212.212,0,0,1-.21.21H2.6A.342.342,0,0,0,2.26,9.5a.6.6,0,0,0-.043.286V21.75a.663.663,0,0,0,.043.281.29.29,0,0,0,.2.162,3.213,3.213,0,0,0,.463.014H21.769a.7.7,0,0,0,.243-.029.281.281,0,0,0,.153-.143.832.832,0,0,0,.043-.353V9.738C22.208,9.495,22.108,9.413,22.036,9.375ZM5.26,21.335a.2.2,0,0,1-.2.2H3.081a.2.2,0,0,1-.2-.2V10.2a.2.2,0,0,1,.2-.2H5.064a.2.2,0,0,1,.2.2v11.14ZM9.671,2.885l5.064-.01a.692.692,0,0,1,.691.691l.01,5.064a.681.681,0,0,1-.2.486.715.715,0,0,1-.486.205l-5.069.01h0a.692.692,0,0,1-.691-.691l-.01-5.064A.692.692,0,0,1,9.671,2.885Zm4.235,18.45a.2.2,0,0,1-.2.2H10.711a.2.2,0,0,1-.2-.2V17.83a.2.2,0,0,1,.2-.2h2.995a.2.2,0,0,1,.2.2Zm4.578,0a.2.2,0,0,1-.205.205H14.788a.212.212,0,0,1-.21-.21V17.382a.394.394,0,0,0-.172-.377.4.4,0,0,0-.205-.038c-.9-.01-1.8-.014-2.7-.014h-.949a3.261,3.261,0,0,0-.467.014.321.321,0,0,0-.21.167.507.507,0,0,0-.043.243v3.944a.212.212,0,0,1-.21.21H6.133a.2.2,0,0,1-.205-.205V5.136a.214.214,0,0,1,.215-.215l1.955,0a.212.212,0,0,1,.21.21V8.507a1.957,1.957,0,0,0,.052.5,1.286,1.286,0,0,0,.93.93,1.726,1.726,0,0,0,.5.052c1.159,0,2.332,0,3.491,0H14.44a2.588,2.588,0,0,0,.706-.062,1.327,1.327,0,0,0,.587-.372,1.292,1.292,0,0,0,.334-.644,5.177,5.177,0,0,0,.029-.758V5.117a.2.2,0,0,1,.205-.205h1.974a.2.2,0,0,1,.2.2V21.33Zm3.052,0a.2.2,0,0,1-.2.2H19.351a.2.2,0,0,1-.2-.2V10.2a.2.2,0,0,1,.2-.2h1.984a.2.2,0,0,1,.2.2Z" transform="translate(-2.213 -2.208)" fill="#014e78"/>
  <path id="Path_14156" data-name="Path 14156" d="M14.02,6.276a.331.331,0,0,1-.124.119.48.48,0,0,1-.167.038c-.2.014-.41.019-.625.019-.114,0-.229,0-.348,0h0a.206.206,0,0,0-.205.2v.739a1.107,1.107,0,0,1-.043.391.284.284,0,0,1-.272.181H12.2a.312.312,0,0,1-.191-.057.307.307,0,0,1-.1-.129.4.4,0,0,1-.029-.172c-.01-.305-.01-.625,0-.944a.222.222,0,0,0-.057-.148.2.2,0,0,0-.143-.062h-.01c-.114,0-.234,0-.343,0-.181,0-.362,0-.539-.01a.673.673,0,0,1-.267-.052.284.284,0,0,1-.148-.367.314.314,0,0,1,.086-.162A.244.244,0,0,1,10.6,5.78c.11-.01.372-.014.773-.014h.291a.2.2,0,0,0,.2-.191v0c0-.234,0-.467,0-.7a1.235,1.235,0,0,1,.038-.42.281.281,0,0,1,.281-.2h.029a.289.289,0,0,1,.186.057.293.293,0,0,1,.1.134.4.4,0,0,1,.029.172c.01.305.01.615,0,.93a.217.217,0,0,0,.057.153.2.2,0,0,0,.148.067h.014c.119,0,.238,0,.353,0q.3,0,.587.014a.4.4,0,0,1,.215.057.328.328,0,0,1,.138.219A.281.281,0,0,1,14.02,6.276Z" transform="translate(-2.213 -2.208)" fill="#014e78"/>
  <path id="Path_14157" data-name="Path 14157" d="M9.99,12.184v.052a.309.309,0,0,1-.31.31H8.631a.309.309,0,0,1-.31-.31v-.052a.309.309,0,0,1,.31-.31H9.68A.309.309,0,0,1,9.99,12.184Z" transform="translate(-2.213 -2.208)" fill="#014e78"/>
  <path id="Path_14158" data-name="Path 14158" d="M13.042,12.184v.052a.309.309,0,0,1-.31.31H11.683a.309.309,0,0,1-.31-.31v-.052a.309.309,0,0,1,.31-.31h1.049A.309.309,0,0,1,13.042,12.184Z" transform="translate(-2.213 -2.208)" fill="#014e78"/>
  <path id="Path_14159" data-name="Path 14159" d="M16.094,12.184v.052a.309.309,0,0,1-.31.31H14.735a.309.309,0,0,1-.31-.31v-.052a.309.309,0,0,1,.31-.31h1.049A.309.309,0,0,1,16.094,12.184Z" transform="translate(-2.213 -2.208)" fill="#014e78"/>
  <path id="Path_14160" data-name="Path 14160" d="M9.99,14.726v.048a.307.307,0,0,1-.305.305H8.627a.3.3,0,0,1-.305-.305v-.048a.307.307,0,0,1,.305-.305H9.685A.3.3,0,0,1,9.99,14.726Z" transform="translate(-2.213 -2.208)" fill="#014e78"/>
  <path id="Path_14161" data-name="Path 14161" d="M13.042,14.726v.048a.307.307,0,0,1-.305.305H11.679a.3.3,0,0,1-.305-.305v-.048a.307.307,0,0,1,.305-.305h1.059A.3.3,0,0,1,13.042,14.726Z" transform="translate(-2.213 -2.208)" fill="#014e78"/>
  <path id="Path_14162" data-name="Path 14162" d="M16.094,14.726v.048a.307.307,0,0,1-.305.305H14.731a.3.3,0,0,1-.305-.305v-.048a.307.307,0,0,1,.305-.305h1.059A.3.3,0,0,1,16.094,14.726Z" transform="translate(-2.213 -2.208)" fill="#014e78"/>
</svg>
