<svg id="dr_location" xmlns="http://www.w3.org/2000/svg" width="20" height="20" viewBox="0 0 20 20">
  <rect id="icon" width="20" height="20" fill="none"/>
  <path id="Path_14167" data-name="Path 14167" d="M18.7,8.04c-.02-.25-.056-.508-.1-.77a8.566,8.566,0,0,0-.9-2.589A8.575,8.575,0,0,0,13.488.931,8.8,8.8,0,0,0,10.5.323h-.343A8.714,8.714,0,0,0,7.008.992,8.37,8.37,0,0,0,4.387,2.778a8.306,8.306,0,0,0-1.54,2.085,8.443,8.443,0,0,0-.815,2.484,7.551,7.551,0,0,0-.093.77,7.967,7.967,0,0,0,.6,3.657,12.067,12.067,0,0,0,1.1,2.065,19.359,19.359,0,0,0,2.226,2.77c.621.641,1.274,1.27,1.94,1.871.952.859,1.544,1.383,1.758,1.565a1.183,1.183,0,0,0,.734.278h.052a1.17,1.17,0,0,0,.694-.254c.222-.181.73-.629,1.508-1.339s1.383-1.274,1.77-1.657A22.139,22.139,0,0,0,16.407,14.7a14.085,14.085,0,0,0,1-1.516,11.3,11.3,0,0,0,.94-2.089A7.491,7.491,0,0,0,18.7,8.04Zm-.956,3.081a11.611,11.611,0,0,1-1.367,2.645,17.143,17.143,0,0,1-1.185,1.544A25.321,25.321,0,0,1,13.2,17.375c-.786.73-1.6,1.46-2.4,2.165a.884.884,0,0,1-.327.2.666.666,0,0,1-.153.02.592.592,0,0,1-.4-.161c-.637-.556-1.278-1.129-1.9-1.7-.468-.423-.931-.867-1.379-1.31A20.156,20.156,0,0,1,4.3,13.815a12.467,12.467,0,0,1-.968-1.661,8.728,8.728,0,0,1-.758-2.327A6.88,6.88,0,0,1,2.5,9.133a6.63,6.63,0,0,1,0-.694A7.8,7.8,0,0,1,4.423,3.6a7.517,7.517,0,0,1,.585-.6A7.789,7.789,0,0,1,9.94.907C10.069.9,10.2.9,10.335.9c.149,0,.3,0,.452.016a7.8,7.8,0,0,1,5.056,2.262,7.457,7.457,0,0,1,.569.621A7.814,7.814,0,0,1,18.1,7.766,7.238,7.238,0,0,1,17.746,11.121Z" transform="translate(-0.325 -0.323)" fill="#014e78"/>
  <path id="Path_14168" data-name="Path 14168" d="M10.323,4.883a3.52,3.52,0,1,0,3.52,3.52A3.526,3.526,0,0,0,10.323,4.883Zm0,6.476A2.958,2.958,0,1,1,13.278,8.4,2.96,2.96,0,0,1,10.323,11.359Z" transform="translate(-0.325 -0.323)" fill="#014e78"/>
</svg>
