<svg id="dr_login" xmlns="http://www.w3.org/2000/svg" width="20" height="20" viewBox="0 0 20 20">
  <rect id="icon" width="20" height="20" fill="none"/>
  <path id="Path_14171" data-name="Path 14171" d="M20.407,10.171v.5a9.555,9.555,0,0,1-4.9,8.073c-.228.13-.463.248-.691.354a9.593,9.593,0,0,1-7.52.179c-.236-.093-.472-.2-.707-.321a9.554,9.554,0,0,1-4.549-4.894,1.063,1.063,0,0,1-.073-.22.25.25,0,0,1,0-.11.238.238,0,0,1,.154-.175.165.165,0,0,1,.085-.02.3.3,0,0,1,.093.016.283.283,0,0,1,.146.093L2.606,14a8.951,8.951,0,0,0,8.252,5.415,8.513,8.513,0,0,0,.854-.041A9.019,9.019,0,0,0,19.7,12.118a7.564,7.564,0,0,0,.122-.846,8.949,8.949,0,0,0-.919-4.9,8.839,8.839,0,0,0-1.935-2.561c-.207-.191-.427-.374-.654-.549A8.945,8.945,0,0,0,10.65,1.415a8.518,8.518,0,0,0-.854.057,8.941,8.941,0,0,0-4.87,2.167,7.7,7.7,0,0,0-.614.593,8.816,8.816,0,0,0-1.8,2.825.319.319,0,0,1-.175.2.268.268,0,0,1-.374-.2A.244.244,0,0,1,1.984,6.9,9.618,9.618,0,0,1,4.862,2.976c.2-.163.411-.317.626-.463a9.434,9.434,0,0,1,4.37-1.6,9.584,9.584,0,0,1,3.732.341c.244.073.488.159.732.252a9.538,9.538,0,0,1,6.085,8.663Z" transform="translate(-0.406 -0.407)" fill="#014e78"/>
  <path id="Path_14172" data-name="Path 14172" d="M14.061,10.5a.3.3,0,0,1-.093.134c-.126.114-.138.126-.146.134-1.118,1.122-2.256,2.256-3.386,3.378a.589.589,0,0,1-.163.13.28.28,0,0,1-.28-.053A.257.257,0,0,1,9.9,14a.235.235,0,0,1,.081-.163c.809-.817,1.63-1.638,2.439-2.443a.415.415,0,0,0-.293-.715H.967c-.1,0-.183,0-.252,0a.555.555,0,0,1-.126-.016.275.275,0,0,1-.183-.224V10.39c.041-.167.114-.252.366-.252,1.874,0,5.7,0,11.362,0a.413.413,0,0,0,.386-.256.407.407,0,0,0-.093-.451c-.764-.768-1.537-1.545-2.3-2.309a1.049,1.049,0,0,1-.191-.232.207.207,0,0,1,0-.207.287.287,0,0,1,.191-.154.219.219,0,0,1,.159.016.906.906,0,0,1,.211.179c1.11,1.114,2.24,2.24,3.362,3.354a1.067,1.067,0,0,1,.2.236A.256.256,0,0,1,14.061,10.5Z" transform="translate(-0.406 -0.407)" fill="#014e78"/>
</svg>
