<svg id="dr_logout" xmlns="http://www.w3.org/2000/svg" width="20" height="20" viewBox="0 0 20 20">
  <rect id="icon" width="20" height="20" transform="translate(0 0)" fill="none"/>
  <path id="Path_14131" data-name="Path 14131" d="M11.009,1v9.724a.285.285,0,0,1-.285.285h-.017a.285.285,0,0,1-.285-.285V1a.285.285,0,0,1,.285-.285h.017A.285.285,0,0,1,11.009,1Z" transform="translate(-0.717 -0.716)" fill="#014e78"/>
  <path id="Path_14132" data-name="Path 14132" d="M20.695,11.377A9.976,9.976,0,0,1,19,16.308c-.151.222-.31.44-.477.649a10.008,10.008,0,0,1-3.763,2.9,9.766,9.766,0,0,1-3.667.846c-.13,0-.26.008-.385.008a9.9,9.9,0,0,1-4.743-1.193c-.23-.126-.465-.264-.691-.41A10.158,10.158,0,0,1,3.014,17.1a10.256,10.256,0,0,1-1.557-2.6c-.1-.251-.2-.506-.276-.753a10.068,10.068,0,0,1,.837-7.966A10.275,10.275,0,0,1,4.27,3.051a1.069,1.069,0,0,1,.218-.159.265.265,0,0,1,.088-.021.247.247,0,0,1,.059.008.314.314,0,0,1,.193.151.275.275,0,0,1,.021.239.184.184,0,0,1-.046.075c-.017.017-.067.059-.193.167a9.438,9.438,0,0,0-3.257,8.229,7.543,7.543,0,0,0,.138.862,9.407,9.407,0,0,0,2.5,4.7,7.8,7.8,0,0,0,.64.594,9.352,9.352,0,0,0,4.638,2.126,8.942,8.942,0,0,0,1.423.113,9.524,9.524,0,0,0,1.084-.063c.289-.033.578-.08.862-.138a9.437,9.437,0,0,0,7.35-7.581c.05-.285.088-.578.113-.866a9.306,9.306,0,0,0-.95-4.977,9.165,9.165,0,0,0-2.323-2.943,2.2,2.2,0,0,1-.272-.255.256.256,0,0,1,0-.226.281.281,0,0,1,.08-.109.35.35,0,0,1,.13-.067.323.323,0,0,1,.063-.008.263.263,0,0,1,.08.013.564.564,0,0,1,.163.109,9.887,9.887,0,0,1,3.642,7.547C20.72,10.841,20.712,11.109,20.695,11.377Z" transform="translate(-0.717 -0.716)" fill="#014e78"/>
</svg>
