<svg id="dr_privacypolicy" xmlns="http://www.w3.org/2000/svg" width="20" height="20" viewBox="0 0 20 20">
  <rect id="icon" width="20" height="20" transform="translate(0 0)" fill="none"/>
  <path id="Path_17640" data-name="Path 17640" d="M11.766,2.052a2.715,2.715,0,0,1,.51.753.034.034,0,0,0,.031.02q1.8,0,3.6.011a2.1,2.1,0,0,1,.581.066,1.523,1.523,0,0,1,.649.4,1.249,1.249,0,0,1,.353.867q.027,1.187,0,2.374a.36.36,0,0,1-.038.175.237.237,0,0,1-.151.115.264.264,0,0,1-.324-.1.59.59,0,0,1-.052-.288V4.252a.874.874,0,0,0-.069-.353.758.758,0,0,0-.214-.277.938.938,0,0,0-.623-.221H14.5a.032.032,0,0,0-.03.044.756.756,0,0,1,.048.265q.007.5.009,1.008a4.383,4.383,0,0,1-.035.786.948.948,0,0,1-.571.625,1.368,1.368,0,0,1-.53.075Q10.117,6.2,6.848,6.2a2.489,2.489,0,0,1-.311-.018.927.927,0,0,1-.3-.086.9.9,0,0,1-.464-.5,1.817,1.817,0,0,1-.066-.581V3.956s0-.041,0-.115a1.075,1.075,0,0,1,.061-.4.032.032,0,0,0,0-.029A.033.033,0,0,0,5.739,3.4H4.523q-.395,0-.474.012A.985.985,0,0,0,3.6,3.6a.734.734,0,0,0-.258.353,1.43,1.43,0,0,0-.043.419V19.6s0,.064-.006.188a.851.851,0,0,0,.757.944,2.7,2.7,0,0,0,.431.02q5.661-.009,11.321-.009a2.829,2.829,0,0,0,.353-.016.829.829,0,0,0,.718-.53,1.113,1.113,0,0,0,.056-.4q0-.523,0-1.045A.519.519,0,0,1,17,18.464a.284.284,0,0,1,.362-.072.2.2,0,0,1,.111.113.4.4,0,0,1,.027.149q.011.35.011.7,0,.58-.014.7a1.379,1.379,0,0,1-1,1.186,1.9,1.9,0,0,1-.65.081l-.225,0-11.275,0a2.128,2.128,0,0,1-.4-.037,1.623,1.623,0,0,1-.38-.119,1.322,1.322,0,0,1-.8-.986,6.573,6.573,0,0,1-.033-.882V4.617q0-.358.018-.541a1.261,1.261,0,0,1,.428-.844,1.557,1.557,0,0,1,1.078-.4q1.833,0,3.667,0A.042.042,0,0,0,7.958,2.8a2.835,2.835,0,0,1,.515-.759,2.3,2.3,0,0,1,1-.628,2.166,2.166,0,0,1,.873-.082A2.229,2.229,0,0,1,11.766,2.052ZM10.5,1.926A1.6,1.6,0,0,0,9.874,1.9,1.835,1.835,0,0,0,8.393,3.083l-.032.094a.325.325,0,0,1-.342.225h-1.3a.633.633,0,0,0-.209.026.337.337,0,0,0-.172.136.544.544,0,0,0-.057.285V5.291a.3.3,0,0,0,.132.254.391.391,0,0,0,.2.069q.088.009.213.009h6.738a.358.358,0,0,0,.324-.157.606.606,0,0,0,.062-.317V3.873a.629.629,0,0,0-.057-.313.344.344,0,0,0-.318-.159H12.257a.646.646,0,0,1-.213-.024.263.263,0,0,1-.157-.166,1.937,1.937,0,0,0-.819-1.051A1.888,1.888,0,0,0,10.5,1.926Z" transform="translate(-1.31 -1.321)" fill="#014e78"/>
  <path id="Path_17641" data-name="Path 17641" d="M10.117,4.92A1.118,1.118,0,1,1,11.211,3.8,1.106,1.106,0,0,1,10.117,4.92Zm.007-.567a.55.55,0,1,0-.531-.544.538.538,0,0,0,.531.544Z" transform="translate(-1.31 -1.321)" fill="#014e78"/>
  <path id="Path_17642" data-name="Path 17642" d="M11.937,17.288a7.94,7.94,0,0,1-2.583-4.995,9.524,9.524,0,0,1-.077-1.125q0-.5-.005-.512-.015-.753,0-1.507a.368.368,0,0,1,.046-.2A.345.345,0,0,1,9.5,8.825q4.069-1.418,4.99-1.737a.354.354,0,0,1,.238,0q2.471.868,4.945,1.733a.319.319,0,0,1,.186.148.5.5,0,0,1,.034.219q0,.938,0,1.875a9.927,9.927,0,0,1-.12,1.513,8.032,8.032,0,0,1-1.015,2.848,7.314,7.314,0,0,1-.493.733,9.057,9.057,0,0,1-1.689,1.693,12.607,12.607,0,0,1-1.581,1.036l-.285.157a.348.348,0,0,1-.244-.005l-.207-.11A11.377,11.377,0,0,1,11.937,17.288Zm.288-.509a10.933,10.933,0,0,0,2.321,1.644.088.088,0,0,0,.084,0,12.871,12.871,0,0,0,1.728-1.137,8.423,8.423,0,0,0,1.114-1.05,7.107,7.107,0,0,0,1.687-3.441,8.747,8.747,0,0,0,.155-1.528q.012-.939.015-1.917a.057.057,0,0,0-.039-.055L14.627,7.673a.119.119,0,0,0-.08,0L9.87,9.3a.032.032,0,0,0-.021.03q-.011.661-.008,1.626a10.614,10.614,0,0,0,.1,1.464,7.675,7.675,0,0,0,.173.865A7.166,7.166,0,0,0,12.226,16.779Z" transform="translate(-1.31 -1.321)" fill="#014e78"/>
  <rect id="Rectangle_17962" data-name="Rectangle 17962" width="3.618" height="0.573" transform="translate(3.375 7.494)" fill="#014e78"/>
  <path id="Path_17643" data-name="Path 17643" d="M13.441,14.921a.506.506,0,0,1-.2-.554q.167-.745.345-1.5a.085.085,0,0,0-.023-.08,1.871,1.871,0,0,1-.441-.661,1.044,1.044,0,0,1-.058-.472,1.556,1.556,0,0,1,.562-1.095,1.41,1.41,0,0,1,1.237-.338,1.435,1.435,0,0,1,.773.414,1.633,1.633,0,0,1,.41.731,1.409,1.409,0,0,1-.434,1.414.118.118,0,0,0-.03.108l.285,1.23a1.381,1.381,0,0,1,.054.512.467.467,0,0,1-.266.335.762.762,0,0,1-.331.058H13.806A.592.592,0,0,1,13.441,14.921Zm.592-2.335a.324.324,0,0,1,.12.355l-.342,1.472a.036.036,0,0,0,.035.045h1.432q.088,0,.067-.086Q15.18,13.69,15,12.946a.3.3,0,0,1,.091-.324,1.067,1.067,0,0,0,.432-.915,1.037,1.037,0,0,0-.129-.46.92.92,0,0,0-.347-.353.874.874,0,0,0-.7-.1,1.025,1.025,0,0,0-.362,1.765Z" transform="translate(-1.31 -1.321)" fill="#014e78"/>
  <rect id="Rectangle_17963" data-name="Rectangle 17963" width="3.617" height="0.566" transform="translate(3.375 9.209) rotate(0.1)" fill="#014e78"/>
  <rect id="Rectangle_17964" data-name="Rectangle 17964" width="3.618" height="0.573" transform="translate(3.375 10.929)" fill="#014e78"/>
  <rect id="Rectangle_17965" data-name="Rectangle 17965" width="3.618" height="0.572" transform="translate(3.375 12.639) rotate(0.1)" fill="#014e78"/>
  <rect id="Rectangle_17966" data-name="Rectangle 17966" width="4.847" height="0.573" transform="translate(3.385 14.353)" fill="#014e78"/>
  <rect id="Rectangle_17967" data-name="Rectangle 17967" width="5.71" height="0.563" transform="translate(3.375 16.076)" fill="#014e78"/>
</svg>
