<svg id="dr_settings" xmlns="http://www.w3.org/2000/svg" width="20" height="20" viewBox="0 0 20 20">
  <rect id="icon" width="20" height="20" transform="translate(0)" fill="none"/>
  <path id="Path_14169" data-name="Path 14169" d="M20.078,8.877a1.974,1.974,0,0,0-1.579-.8c-.061,0-.115,0-.164,0s-.09,0-.131,0h-.057a.763.763,0,0,1-.745-.458.78.78,0,0,1,.188-.884c.049-.057.1-.115.151-.168a3.339,3.339,0,0,0,.393-.483c.016-.025.029-.045.041-.065A1.912,1.912,0,0,0,18.4,4.839a2.212,2.212,0,0,0-.1-.385,3.206,3.206,0,0,0-.213-.43l-.049-.086c-.041-.053-.082-.1-.127-.151-.061-.07-.119-.131-.176-.188l-.385-.385a4.288,4.288,0,0,0-.352-.3c-.057-.041-.115-.082-.172-.115a1.967,1.967,0,0,0-.687-.237,2.348,2.348,0,0,0-.29-.016,1.955,1.955,0,0,0-1.395.569c-.02.02-.045.049-.074.078a1.482,1.482,0,0,1-.229.217.778.778,0,0,1-.52.213.816.816,0,0,1-.319-.07.759.759,0,0,1-.454-.757V2.79a2.45,2.45,0,0,1,0-.245V2.426a2.827,2.827,0,0,0-.049-.4.92.92,0,0,1-.02-.09l0-.016a1.674,1.674,0,0,0-.074-.2A1.951,1.951,0,0,0,11.393.552a2.243,2.243,0,0,0-.409-.061c-.086,0-.164-.008-.237-.008h-.573a1,1,0,0,0-.11,0h0a2.194,2.194,0,0,0-.7.135.674.674,0,0,0-.09.037c-.016.008-.033.012-.049.02A.446.446,0,0,0,9.176.7L9.159.712,9.135.724,9.106.753l-.061.02h0L9.012.79,9,.8,9,.8a0,0,0,0,0,0,0l0,0,0,0a.64.64,0,0,0-.07.049l-.008,0a.086.086,0,0,1-.025.016,2.264,2.264,0,0,0-.438.45,2.032,2.032,0,0,0-.352,1.215,1.8,1.8,0,0,1-.016.331.809.809,0,0,1-.65.716.522.522,0,0,1-.082,0,.983.983,0,0,1-.47-.131,1.1,1.1,0,0,1-.225-.18l-.188-.164a2.514,2.514,0,0,0-.43-.335,2.271,2.271,0,0,0-.417-.176H5.6l-.008,0a1.944,1.944,0,0,0-.507-.07,2.03,2.03,0,0,0-.495.065l-.049.012-.008,0s-.008,0-.012,0-.016,0-.02.008q-.123.043-.245.1H4.25l-.008,0h0a2.194,2.194,0,0,0-.54.38c-.045.045-.094.086-.139.131l0,0L3.3,3.5l-.25.25a2.319,2.319,0,0,0-.209.274,2.5,2.5,0,0,0-.237.54v.012a1.548,1.548,0,0,0-.041.188c0,.008,0,.016,0,.025l0,.02a.794.794,0,0,0-.008.1v.008c0,.012,0,.025,0,.037v.008a2.375,2.375,0,0,0,0,.241.139.139,0,0,0,0,.041h0a.8.8,0,0,0,.008.094c0,.016,0,.029,0,.045V5.4a.037.037,0,0,0,0,.02l0,.016c0,.016,0,.033.008.045v.008a.205.205,0,0,1,.008.049v.008c0,.012,0,.02.008.033a.052.052,0,0,1,0,.025l0,.008v0l.02.065v0c0,.008,0,.02.008.029a.147.147,0,0,0,.016.045c.008.025.02.053.033.086l.037.086c.012.025.02.041.029.061a.378.378,0,0,1,.02.041.447.447,0,0,1,.033.061l.037.061.008.012,0,.008,0,.008,0,0,.02.033,0,0q.055.08.123.16c.02.025.045.053.07.078h0c.012.012.02.025.033.037l.025.025.012.016.025.025a1.234,1.234,0,0,1,.164.164.77.77,0,0,1-.495,1.362c-.143.02-.278.025-.413.033a2.309,2.309,0,0,0-.54.07,2.065,2.065,0,0,0-.626.3h0l0,0L1.24,8.5h0a1.952,1.952,0,0,0-.348.34l0,.008a2.177,2.177,0,0,0-.372.81,1.709,1.709,0,0,0-.037.29c0,.09-.008.18-.008.274v.536a3.779,3.779,0,0,0,.037.45,1.776,1.776,0,0,0,.086.36l0,.008c.029.078.061.155.094.225h0c.008.016.016.029.025.045a.089.089,0,0,0,.012.02l.008.012a1.906,1.906,0,0,0,.708.712h.008a.021.021,0,0,0,.016.008l.008,0a2.589,2.589,0,0,0,.356.155c.033.008.061.02.09.029l.041.012a1.748,1.748,0,0,0,.389.057c.119,0,.241.008.368.008h.1a.752.752,0,0,1,.745.495.773.773,0,0,1-.213.859,2.288,2.288,0,0,0-.663.859,1.98,1.98,0,0,0,.188,1.9c.025.037.041.074.057.1l.462.462.479.479a2.489,2.489,0,0,0,.929.372,2.348,2.348,0,0,0,.29.016,1.939,1.939,0,0,0,1.391-.569c.02-.02.045-.049.074-.078a1.359,1.359,0,0,1,.295-.262.946.946,0,0,1,.483-.143.711.711,0,0,1,.25.045.863.863,0,0,1,.466.573,1.257,1.257,0,0,1,.029.4c0,.037,0,.07,0,.1A1.948,1.948,0,0,0,9.7,20.434a2.5,2.5,0,0,0,.356.037c.045,0,.09,0,.135,0h.777a2.34,2.34,0,0,0,.368-.053,3.443,3.443,0,0,0,.393-.143h0a2,2,0,0,0,1.133-1.747c0-.033,0-.07,0-.115a1.449,1.449,0,0,1,.025-.409h0a1.224,1.224,0,0,1,.041-.131c0-.008,0-.012.008-.02v-.008l0,0a.8.8,0,0,1,.4-.434.669.669,0,0,1,.274-.053.927.927,0,0,1,.487.143,1.489,1.489,0,0,1,.209.172c.061.053.123.11.184.16a2.684,2.684,0,0,0,.43.335,2.1,2.1,0,0,0,.344.151,1.961,1.961,0,0,0,.6.094,1.928,1.928,0,0,0,.642-.11.041.041,0,0,1,.012,0s0,0,.008,0a2.581,2.581,0,0,0,.27-.119l0,0h0l0,0a2.119,2.119,0,0,0,.385-.274c.057-.049.11-.1.16-.147l.4-.4c.029-.033.061-.061.09-.094a2.2,2.2,0,0,0,.438-.675l.012-.037,0-.008,0-.008c0-.008.008-.02.012-.029.012-.033.02-.065.033-.094h0a1.881,1.881,0,0,0,.078-.544v-.045a2.057,2.057,0,0,0-.6-1.37c-.016-.016-.041-.037-.065-.061a1.21,1.21,0,0,1-.258-.3.9.9,0,0,1-.086-.745.866.866,0,0,1,.642-.458c.16-.025.315-.033.462-.041a2.566,2.566,0,0,0,.54-.065,1.909,1.909,0,0,0,1.387-1.534.548.548,0,0,1,.033-.106V9.8A2.406,2.406,0,0,0,20.078,8.877Zm-.3,2.009v.008A1.289,1.289,0,0,1,18.5,12.17h-.311a1.191,1.191,0,0,0-.127,0,1.462,1.462,0,0,0-1.043,2.442,2.275,2.275,0,0,0,.172.176c.057.057.119.115.176.18a1.451,1.451,0,0,1,.18.245,1.269,1.269,0,0,1-.18,1.522c-.012.012-.02.025-.033.037s-.025.029-.037.041l-.012.012c-.151.16-.307.319-.466.466-.025.025-.049.045-.074.07l0,0h0l0,0a1.287,1.287,0,0,1-1.755,0c-.065-.061-.123-.119-.176-.176s-.1-.1-.143-.139a1.725,1.725,0,0,0-.487-.327h0a1.439,1.439,0,0,0-.528-.1,1.258,1.258,0,0,0-.217.016,2.064,2.064,0,0,0-.348.1,1.762,1.762,0,0,0-.327.172,1.409,1.409,0,0,0-.511.749,2.77,2.77,0,0,0-.061.638c0,.049,0,.094,0,.143a1.5,1.5,0,0,1-.053.364.36.36,0,0,1-.02.061.281.281,0,0,0-.012.033.459.459,0,0,1-.02.053A.282.282,0,0,1,12.06,19a1.924,1.924,0,0,1-.106.213,1.058,1.058,0,0,1-.131.151l-.025.025a.536.536,0,0,1-.053.049.911.911,0,0,1-.1.078.533.533,0,0,1-.061.041.9.9,0,0,1-.106.061.615.615,0,0,1-.074.037.488.488,0,0,1-.082.033.311.311,0,0,0-.045.016,1.246,1.246,0,0,1-.352.065h-.082c-.127,0-.25,0-.372,0-.1,0-.2,0-.29,0h-.053a.914.914,0,0,1-.151-.008,1.272,1.272,0,0,1-1.129-.843,1.368,1.368,0,0,1-.078-.409c0-.086,0-.168,0-.25s0-.172,0-.25a1.368,1.368,0,0,0-.794-1.223,1.5,1.5,0,0,0-.683-.176,1.345,1.345,0,0,0-.794.27,2.972,2.972,0,0,0-.356.311c-.049.049-.1.1-.151.147a1.315,1.315,0,0,1-.9.364,1.249,1.249,0,0,1-.638-.176,1.4,1.4,0,0,1-.237-.172c-.074-.065-.135-.139-.209-.2-.147-.139-.29-.286-.434-.434a1.28,1.28,0,0,1-.008-1.755c.07-.078.143-.147.213-.217.033-.033.07-.065.1-.1a1.465,1.465,0,0,0-1.035-2.5h-.1A2.4,2.4,0,0,1,2.1,12.1a1.272,1.272,0,0,1-.822-.7,1.514,1.514,0,0,1-.115-.483,7.474,7.474,0,0,1,0-.908,1.3,1.3,0,0,1,.524-1,1.366,1.366,0,0,1,.749-.25,5.016,5.016,0,0,0,.7-.041A1.5,1.5,0,0,0,3.686,8.5a1.142,1.142,0,0,0,.2-.172c.029-.029.053-.061.078-.09A1.645,1.645,0,0,0,4.3,7.5,1.93,1.93,0,0,0,4.3,7.122a1.178,1.178,0,0,0-.192-.552L4.1,6.549a.089.089,0,0,1-.012-.02v0h0a1.337,1.337,0,0,0-.115-.151l-.008-.008c-.061-.074-.131-.143-.209-.225l-.012-.012c-.049-.049-.1-.1-.151-.155a1.277,1.277,0,0,1-.115-1.661q.055-.074.123-.147c.131-.135.258-.266.393-.4.061-.061.123-.119.184-.18a1.555,1.555,0,0,1,.151-.135,1.35,1.35,0,0,1,.184-.106.58.58,0,0,1,.074-.033.173.173,0,0,1,.057-.025c.02-.008.037-.012.053-.02l.041-.012c.033-.008.061-.016.1-.025h.008c.012,0,.029,0,.041-.008a.451.451,0,0,1,.074-.008H5.22l.094.012c.008,0,.02,0,.029,0l.057.012a.42.42,0,0,1,.057.016l.033.012.037.012a.4.4,0,0,1,.045.02.424.424,0,0,1,.041.016h.012l.11.061a1.094,1.094,0,0,1,.115.074c.033.025.065.049.1.078A.49.49,0,0,1,6,3.579l.143.143c.057.057.11.115.164.16a1.71,1.71,0,0,0,.2.16h0a.072.072,0,0,1,.02.016h.008c.02.012.037.025.053.033.037.02.07.041.1.057.016.008.033.016.053.025h0a.069.069,0,0,0,.02.008l.033.012h0s.008,0,.016.008h.008c.016.008.037.012.053.02s.029.008.049.016H6.93s.012,0,.016,0l.008,0h.008a.332.332,0,0,0,.045.012h.008c.008,0,.012,0,.02,0h0a.282.282,0,0,0,.053.008c.016,0,.033,0,.049,0a.09.09,0,0,1,.033,0h.155a.169.169,0,0,0,.049,0h.008a.07.07,0,0,0,.029,0c.02,0,.045,0,.065-.008l.065-.012h.008c.033-.008.061-.012.09-.02,0,0,.008,0,.012,0h0l.037-.008.012,0h0s.008,0,.012,0l.008,0H7.74l.135-.041.217-.119h0l.008,0,.008-.008.012,0a.089.089,0,0,0,.02-.012L8.165,4h0a.041.041,0,0,0,.02-.016L8.2,3.98a.225.225,0,0,0,.037-.029c.008-.008.016-.012.025-.02l.008-.008.008,0a0,0,0,0,0,0,0h0a.917.917,0,0,0,.2-.217,1.313,1.313,0,0,0,.151-.266,1.675,1.675,0,0,0,.119-.618,2.59,2.59,0,0,1,.115-.92,1.3,1.3,0,0,1,.573-.6.615.615,0,0,1,.074-.037h0c.012,0,.025-.012.037-.016a.624.624,0,0,1,.1-.037.3.3,0,0,1,.057-.016,1.294,1.294,0,0,1,.331-.045h.061c.119,0,.241,0,.36,0s.225,0,.335,0h.11a.988.988,0,0,1,.192.02c.016,0,.029,0,.045.008a.306.306,0,0,1,.065.016,1.266,1.266,0,0,1,.945,1.2c0,.094,0,.188,0,.274s0,.16,0,.237a1.434,1.434,0,0,0,.671,1.154l0,0a1.435,1.435,0,0,0,.225.11,1.62,1.62,0,0,0,.511.119h.045a1.374,1.374,0,0,0,.687-.184,2.82,2.82,0,0,0,.491-.4l.037-.037c.033-.033.065-.065.1-.1a1.284,1.284,0,0,1,1.8,0,.247.247,0,0,1,.033.033c.164.16.327.319.479.479.045.045.09.09.127.135l.008.008h0l.008.008a1.264,1.264,0,0,1,.262,1.17,1.3,1.3,0,0,1-.327.565c-.053.057-.11.11-.164.164s-.127.127-.18.184a1.372,1.372,0,0,0-.29,1.432,1.349,1.349,0,0,0,1.1.965,2.9,2.9,0,0,0,.479.029c.065,0,.135,0,.2,0a1.3,1.3,0,0,1,1.276,1.28c0,.143,0,.282,0,.421S19.779,10.751,19.779,10.886Z" transform="translate(-0.47 -0.479)" fill="#014e78"/>
  <path id="Path_14170" data-name="Path 14170" d="M10.472,6.525a3.948,3.948,0,1,0,3.948,3.948A3.953,3.953,0,0,0,10.472,6.525Zm0,7.323a3.375,3.375,0,1,1,3.375-3.375A3.378,3.378,0,0,1,10.472,13.847Z" transform="translate(-0.47 -0.479)" fill="#014e78"/>
</svg>
