<svg id="dr_shareapp" xmlns="http://www.w3.org/2000/svg" width="20" height="20" viewBox="0 0 20 20">
  <rect id="icon" width="20" height="20" fill="none"/>
  <path id="Path_14136" data-name="Path 14136" d="M21.784,16.916A3.632,3.632,0,0,0,21,15.757h0a3.557,3.557,0,0,0-1.225-.8,3.821,3.821,0,0,0-1.386-.274,3.687,3.687,0,0,0-1.977.606,3.735,3.735,0,0,0-1.173,1.183.315.315,0,0,1-.27.151.228.228,0,0,1-.1-.019h0l-.024,0-.024-.009-5.4-2.711a.291.291,0,0,1-.142-.369,3.681,3.681,0,0,0,.009-2.748.294.294,0,0,1,0-.237.288.288,0,0,1,.151-.156l5.407-2.7a.271.271,0,0,1,.142-.033.286.286,0,0,1,.251.142A3.68,3.68,0,0,0,17.8,9.508a3.568,3.568,0,0,0,.615.047,3.357,3.357,0,0,0,.478-.038h0A3.271,3.271,0,0,0,19.958,9.2h0a3.592,3.592,0,0,0,1.906-2.1,3.773,3.773,0,0,0,.222-1.391v0a3.569,3.569,0,0,0-.956-2.361,3.564,3.564,0,0,0-2.625-1.216h-.1a3.69,3.69,0,0,0-2.7,1.154,3.739,3.739,0,0,0-.762,1.183,3.925,3.925,0,0,0-.18,2.19.343.343,0,0,1-.175.364h-.009L9.054,9.773l-.009,0-.009,0a.375.375,0,0,1-.137.028.329.329,0,0,1-.265-.123A3.7,3.7,0,0,0,6.476,8.463,3.878,3.878,0,0,0,5.757,8.4a3.467,3.467,0,0,0-1.637.407A3.637,3.637,0,0,0,2.384,10.7a3.706,3.706,0,0,0-.279,1.377,3.52,3.52,0,0,0,.8,2.323,3.6,3.6,0,0,0,2.554,1.386h0a2.967,2.967,0,0,0,.36.014,3.649,3.649,0,0,0,1.045-.147,3.778,3.778,0,0,0,1.793-1.168.263.263,0,0,1,.218-.1.247.247,0,0,1,.066.009h.019l.043.019,5.563,2.767a.337.337,0,0,1,.189.374,3.8,3.8,0,0,0,.8,3.2,3.909,3.909,0,0,0,1.093.894,3.5,3.5,0,0,0,1.7.445c.071,0,.142,0,.218-.009.043,0,.085,0,.128,0a3.578,3.578,0,0,0,2.431-1.206,3.815,3.815,0,0,0,.724-1.206A3.469,3.469,0,0,0,21.784,16.916ZM18.4,2.786a3.046,3.046,0,1,1-3.046,3.046A3.051,3.051,0,0,1,18.4,2.786ZM5.847,15.142a3.037,3.037,0,1,1,3.037-3.037A3.04,3.04,0,0,1,5.847,15.142ZM18.4,21.425a3.046,3.046,0,1,1,3.046-3.046A3.051,3.051,0,0,1,18.4,21.425Z" transform="translate(-2.104 -2.11)" fill="#014e78"/>
</svg>
