<svg id="dw.search_dr" xmlns="http://www.w3.org/2000/svg" width="20" height="20" viewBox="0 0 20 20">
  <rect id="icon" width="20" height="20" fill="none"/>
  <path id="Path_14163" data-name="Path 14163" d="M21.888,12.406c-.014.288-.042.6-.074.9a11.841,11.841,0,0,1-1.139,3.86A8.115,8.115,0,0,1,18.763,19.7a5.9,5.9,0,0,1-2.288,1.256,4.7,4.7,0,0,1-.832.163c-.274.028-.53.047-.753.047h-.107a2.96,2.96,0,0,1-1.479-.414,2.769,2.769,0,0,1-1.042-1.056,4.252,4.252,0,0,1-.4-.963,7.83,7.83,0,0,1-.279-1.669.465.465,0,0,0-.381-.428,4.786,4.786,0,0,1-2.855-1.539,4.8,4.8,0,0,1-1.186-2.576,7.631,7.631,0,0,1-.042-.874c0-1.163,0-2.344,0-3.511,0-.6.014-.753.019-.786a.279.279,0,0,1,.256-.228c.033,0,.158-.009.679-.009h1.5c.27,0,.339.107.372.153a.313.313,0,0,1,.056.2.287.287,0,0,1-.093.2.307.307,0,0,1-.228.093c-.488.009-.977.009-1.455.009a.456.456,0,0,0-.456.456v3.064c0,.693.009.884.014.967a4.126,4.126,0,0,0,3.5,3.739,3.9,3.9,0,0,0,.614.047c.14,0,.279-.009.414-.019A4.132,4.132,0,0,0,16,12.43a9.209,9.209,0,0,0,.037-.981V8.221a.458.458,0,0,0-.46-.46H14.369a1.391,1.391,0,0,1-.363-.028.3.3,0,0,1-.172-.167.3.3,0,0,1-.028-.167.358.358,0,0,1,.07-.167.3.3,0,0,1,.149-.1,1.4,1.4,0,0,1,.288-.019h1.869a1.02,1.02,0,0,1,.312.033.273.273,0,0,1,.158.163,1.073,1.073,0,0,1,.033.353V11.83a5.209,5.209,0,0,1-.07.851,4.979,4.979,0,0,1-.209.814,4.781,4.781,0,0,1-1.832,2.353,4.725,4.725,0,0,1-1.958.777.468.468,0,0,0-.4.456,4.142,4.142,0,0,0,.911,2.683,1.672,1.672,0,0,0,.419.372,2.852,2.852,0,0,0,1.5.428c.084,0,.172,0,.256-.009a5.417,5.417,0,0,0,3.069-1.4A8.185,8.185,0,0,0,20.4,16.145a11.77,11.77,0,0,0,.818-3.581,9.357,9.357,0,0,0-6.98-9.723,8.126,8.126,0,0,0-.958-.2,9.742,9.742,0,0,0-1.414-.107,9.358,9.358,0,0,0-3.962.893c-.009,0-.023.014-.158.079a.389.389,0,0,1-.186.051A.335.335,0,0,1,7.37,3.5a.241.241,0,0,1-.088-.1.321.321,0,0,1-.037-.149A.269.269,0,0,1,7.338,3a2.441,2.441,0,0,1,.409-.209,9.831,9.831,0,0,1,4.111-.9c.214,0,.428,0,.646.019a10.012,10.012,0,0,1,3.418.828c.26.116.53.251.8.4a9.851,9.851,0,0,1,4.622,5.487A9.627,9.627,0,0,1,21.888,12.406Z" transform="translate(-1.906 -1.897)" fill="#014e78"/>
  <path id="Path_14164" data-name="Path 14164" d="M7.454,18.1a2.576,2.576,0,0,0-.5-.628,2.48,2.48,0,0,0-1.469-.665,2.356,2.356,0,0,0-.256-.014,1.814,1.814,0,0,0-.274.019,3.247,3.247,0,0,0-.544.116.43.43,0,0,1-.135.019.457.457,0,0,1-.391-.223,9.429,9.429,0,0,1-1.33-4.538,8.584,8.584,0,0,1,.023-.977A9.379,9.379,0,0,1,5.189,5.385a.283.283,0,0,0,.093-.237.306.306,0,0,0-.1-.214.353.353,0,0,0-.223-.088H4.938a.294.294,0,0,0-.228.112A10.379,10.379,0,0,0,2.7,8,10.209,10.209,0,0,0,1.92,11.56c-.014.3-.009.6,0,.888a10.21,10.21,0,0,0,1.437,4.645.476.476,0,0,1-.051.558,2.548,2.548,0,0,0-.637,1.535,2.35,2.35,0,0,0,.284,1.335,2.687,2.687,0,0,0,.479.642,2.5,2.5,0,0,0,1.186.66,2.616,2.616,0,0,0,.6.074c.065,0,.13,0,.191-.009a2.437,2.437,0,0,0,1.4-.549,2.7,2.7,0,0,0,.544-.586,2.44,2.44,0,0,0,.4-1.079A2.527,2.527,0,0,0,7.454,18.1ZM5.208,21.246A1.907,1.907,0,1,1,7.115,19.34,1.909,1.909,0,0,1,5.208,21.246Z" transform="translate(-1.906 -1.897)" fill="#014e78"/>
</svg>
