<svg id="dr_terms" xmlns="http://www.w3.org/2000/svg" width="20" height="20" viewBox="0 0 20 20">
  <rect id="icon" width="20" height="20" fill="none"/>
  <path id="Path_17644" data-name="Path 17644" d="M13.642,2.439a2.24,2.24,0,0,1,.07.425.746.746,0,0,1-.062.385.565.565,0,0,1-.416.32,4.576,4.576,0,0,1-.494.013h-4.7a1.077,1.077,0,0,1-.417-.06.555.555,0,0,1-.309-.342.809.809,0,0,1-.026-.367,2.052,2.052,0,0,1,.082-.365.026.026,0,0,0-.025-.034H4.135a.5.5,0,0,0-.537.351.709.709,0,0,0-.027.2q0,.16-.008.2a.276.276,0,0,1-.112.207.3.3,0,0,1-.209.057.27.27,0,0,1-.163-.075A.294.294,0,0,1,3,3.205a.95.95,0,0,1-.02-.3A1.078,1.078,0,0,1,3.7,1.9a1.1,1.1,0,0,1,.36-.058q1.919-.04,3.5-.006a1.434,1.434,0,0,0,.169,0,.332.332,0,0,0,.155-.059,1.746,1.746,0,0,0,.461-.456q.189-.273.218-.3A1.131,1.131,0,0,1,9,.727,1.5,1.5,0,0,1,9.468.663Q10.28.652,11.092.654a4.157,4.157,0,0,1,.829.05,1.213,1.213,0,0,1,.715.575,1.514,1.514,0,0,0,.529.509.3.3,0,0,0,.162.042q1.768-.019,3.535,0a1.717,1.717,0,0,1,.344.036A.93.93,0,0,1,17.519,2a1.112,1.112,0,0,1,.5,1q0,6.273,0,12.546a.561.561,0,0,1-.041.246.254.254,0,0,1-.232.145.277.277,0,0,1-.219-.082.332.332,0,0,1-.089-.242V3.193a1.372,1.372,0,0,0-.06-.5.5.5,0,0,0-.5-.274q-.692,0-3.215,0a.017.017,0,0,0-.013.006.016.016,0,0,0,0,.014ZM11.949,1.363a.668.668,0,0,0-.4-.128q-1.039,0-2.078.012a.888.888,0,0,0-.315.047.522.522,0,0,0-.25.219,1.9,1.9,0,0,1-.4.487l-.323.271a.89.89,0,0,0-.317.7.027.027,0,0,0,.008.019A.026.026,0,0,0,7.9,3h5.2a.03.03,0,0,0,.03-.029.837.837,0,0,0-.322-.709q-.168-.139-.34-.274a1.58,1.58,0,0,1-.364-.45A.553.553,0,0,0,11.949,1.363Z" transform="translate(-0.497 -0.654)" fill="#014e78"/>
  <rect id="Rectangle_17968" data-name="Rectangle 17968" width="2.91" height="0.588" transform="translate(8.548 1.171) rotate(0.1)" fill="#014e78"/>
  <path id="Path_17645" data-name="Path 17645" d="M17.412,18.709q-5.935,0-11.871,0a.285.285,0,0,1-.3-.2.3.3,0,0,1,0-.213.265.265,0,0,1,.165-.162.7.7,0,0,1,.24-.026l.14,0H17.407a.029.029,0,0,0,.029-.029V16.967a.354.354,0,0,1,.114-.289.273.273,0,0,1,.267-.05.258.258,0,0,1,.181.179.887.887,0,0,1,.021.237q0,1.252,0,2.5a1.079,1.079,0,0,1-1.1,1.1l-12.29,0a4.94,4.94,0,0,1-.83-.04,1.05,1.05,0,0,1-.771-.766.716.716,0,0,1-.029-.163q0-.056-.01-.112t-.005-.111V4.624q0-.137.01-.235a.335.335,0,0,1,.064-.179.264.264,0,0,1,.175-.1.289.289,0,0,1,.236.065.31.31,0,0,1,.105.251V4.7q0,6.692,0,13.384a.022.022,0,0,0,.021.022,2.91,2.91,0,0,0,.4.009,1.407,1.407,0,0,1,.246.007.391.391,0,0,1,.223.09.264.264,0,0,1,.059.307.251.251,0,0,1-.149.155.583.583,0,0,1-.2.025H3.612a.046.046,0,0,0-.033.014.046.046,0,0,0-.013.033q.013.4.007.827a.46.46,0,0,0,.344.469.958.958,0,0,0,.312.04l12.623-.017a.515.515,0,0,0,.581-.576q0-.379,0-.758a.021.021,0,0,0-.021-.02Z" transform="translate(-0.497 -0.654)" fill="#014e78"/>
  <path id="Path_17646" data-name="Path 17646" d="M6.033,5.206q-.185-.213.062-.422a.387.387,0,0,1,.247-.062q4.807.007,9.613.006a.331.331,0,0,1,.252.1.292.292,0,0,1,.08.23.275.275,0,0,1-.24.255,1.717,1.717,0,0,1-.352.022q-4.687-.009-9.374-.007a.459.459,0,0,1-.16-.028A.313.313,0,0,1,6.033,5.206Z" transform="translate(-0.497 -0.654)" fill="#014e78"/>
  <path id="Path_17647" data-name="Path 17647" d="M4.809,6.856a.271.271,0,0,1-.1-.17.287.287,0,0,1,.031-.181.3.3,0,0,1,.29-.162H15.967a.325.325,0,0,1,.24.092.273.273,0,0,1,.077.219q-.015.282-.361.282-5.264,0-10.527,0-.177,0-.282-.007h-.1A.31.31,0,0,1,4.809,6.856Z" transform="translate(-0.497 -0.654)" fill="#014e78"/>
  <rect id="Rectangle_17969" data-name="Rectangle 17969" width="11.583" height="0.583" transform="translate(4.21 7.304)" fill="#014e78"/>
  <rect id="Rectangle_17970" data-name="Rectangle 17970" width="11.583" height="0.583" transform="translate(4.21 8.918)" fill="#014e78"/>
  <path id="Path_17648" data-name="Path 17648" d="M16.456,15.919a1.169,1.169,0,0,1-1.169,1.169H11.418a1.169,1.169,0,0,1-1.169-1.169V12.043a1.169,1.169,0,0,1,1.169-1.169h3.869a1.169,1.169,0,0,1,1.169,1.169Zm-.582-3.88a.572.572,0,0,0-.572-.572H11.4a.572.572,0,0,0-.572.572v3.887a.572.572,0,0,0,.572.572h3.9a.572.572,0,0,0,.572-.572Z" transform="translate(-0.497 -0.654)" fill="#014e78"/>
  <rect id="Rectangle_17971" data-name="Rectangle 17971" width="4.572" height="0.582" transform="translate(4.211 10.533)" fill="#014e78"/>
  <path id="Path_17649" data-name="Path 17649" d="M13.053,14.835q.972-1.327,1.933-2.662a.276.276,0,0,1,.18-.116.282.282,0,0,1,.194.038.252.252,0,0,1,.137.314.989.989,0,0,1-.152.263q-.955,1.323-1.908,2.648a.958.958,0,0,1-.219.243.292.292,0,0,1-.372-.078q-.249-.235-1.35-1.34l-.172-.174a.316.316,0,0,1-.057-.168.279.279,0,0,1,.044-.164.282.282,0,0,1,.386-.1.707.707,0,0,1,.176.147q.573.579,1.155,1.149a.018.018,0,0,0,.027,0Z" transform="translate(-0.497 -0.654)" fill="#014e78"/>
  <rect id="Rectangle_17972" data-name="Rectangle 17972" width="4.571" height="0.582" transform="translate(4.211 12.147)" fill="#014e78"/>
  <rect id="Rectangle_17973" data-name="Rectangle 17973" width="4.572" height="0.583" transform="translate(4.211 13.761)" fill="#014e78"/>
</svg>
