<svg id="evening" xmlns="http://www.w3.org/2000/svg" width="21" height="21" viewBox="0 0 21 21">
  <rect id="Rectangle_17718" data-name="Rectangle 17718" width="21" height="21" transform="translate(0)" fill="none"/>
  <path id="Path_13467" data-name="Path 13467" d="M19.984,9.878a10.051,10.051,0,0,1-8.091,9.886,9.912,9.912,0,0,1-9.029-2.641.8.8,0,0,1-.3-.854.785.785,0,0,1,.692-.549A16.3,16.3,0,0,0,15.268,5.032c.207-.611.341-1.249.492-1.877a.757.757,0,0,1,1.326-.378,10,10,0,0,1,2.869,6.306c.009.117.025.234.029.35.005.148,0,.3,0,.445Z" transform="translate(1.014 1.016)" fill="#014e78"/>
  <path id="Path_13468" data-name="Path 13468" d="M13.288,4.544a16.636,16.636,0,0,1-8.864,8.7,6.618,6.618,0,0,1,8.864-8.7Z" transform="translate(1.534 1.578)" fill="#014e78"/>
  <path id="Path_13469" data-name="Path 13469" d="M2.013,9.113c-.406,0-.813,0-1.218,0a.751.751,0,1,1-.006-1.5q1.23-.008,2.46,0a.75.75,0,0,1,.79.749.742.742,0,0,1-.784.75c-.414,0-.828,0-1.242,0Z" transform="translate(0 3.057)" fill="#014e78"/>
  <path id="Path_13470" data-name="Path 13470" d="M9.112,2.028c0,.406,0,.813,0,1.218a.749.749,0,1,1-1.5,0Q7.6,2.021,7.615.79a.75.75,0,1,1,1.5.019c0,.406,0,.813,0,1.218Z" transform="translate(3.044 0.013)" fill="#014e78"/>
  <path id="Path_13471" data-name="Path 13471" d="M2.2,3.007a.848.848,0,0,1,.48-.7.672.672,0,0,1,.788.1c.645.625,1.283,1.257,1.9,1.906A.72.72,0,0,1,5.3,5.327a.734.734,0,0,1-1.019,0c-.341-.321-.666-.66-1-.991-.265-.265-.544-.519-.789-.8a2.961,2.961,0,0,1-.3-.528Z" transform="translate(0.879 0.902)" fill="#014e78"/>
</svg>
