<svg id="experience" xmlns="http://www.w3.org/2000/svg" width="15" height="15" viewBox="0 0 15 15">
  <rect id="Rectangle_17767" data-name="Rectangle 17767" width="15" height="15" transform="translate(0)" fill="none"/>
  <path id="Path_17231" data-name="Path 17231" d="M7.8,1.242q.709.373,1.415.751a.237.237,0,0,0,.146.026A.453.453,0,0,0,9.5,1.967q.758-.4,1.512-.8a.208.208,0,0,1,.2.013.272.272,0,0,1,.157.318q-.144.851-.286,1.7a.236.236,0,0,0,.016.129.34.34,0,0,0,.074.1q.717.733,1.131,1.129a1.011,1.011,0,0,1,.1.111.279.279,0,0,1,.058.136.244.244,0,0,1-.1.246.543.543,0,0,1-.228.073q-.557.086-1.563.233a.308.308,0,0,0-.213.121q-.008.01-.1.208-.311.64-.623,1.279a.579.579,0,0,1-.153.214.23.23,0,0,1-.287-.007.348.348,0,0,1-.108-.137L8.354,5.556a.3.3,0,0,0-.262-.2Q7.345,5.241,6.6,5.134a.685.685,0,0,1-.289-.087.244.244,0,0,1-.081-.289.329.329,0,0,1,.089-.14Q7.3,3.631,7.489,3.454a.322.322,0,0,0,.1-.176.635.635,0,0,0-.013-.194q-.123-.728-.244-1.456a1.543,1.543,0,0,1-.03-.236.257.257,0,0,1,.148-.212.239.239,0,0,1,.19-.021Q7.658,1.165,7.8,1.242Z" transform="translate(-0.237 -0.23)" fill="#014e78"/>
  <path id="Path_17232" data-name="Path 17232" d="M12.406,8.944A13.628,13.628,0,0,1,14.068,7.5a4.675,4.675,0,0,1,.6-.373.5.5,0,0,1,.4-.041.213.213,0,0,1,.135.316,3,3,0,0,1-.324.537q-.2.27-.346.447l-2.324,2.851a5.3,5.3,0,0,1-.412.457,2.882,2.882,0,0,1-1.493.779,5.2,5.2,0,0,1-.6.059l-3.2.185q-.755.044-1.546.071a.038.038,0,0,1-.036-.022A7.725,7.725,0,0,0,2.232,9.6a.02.02,0,0,1,0-.031A11.008,11.008,0,0,1,3.983,8.3a2.522,2.522,0,0,1,.966-.322,2.622,2.622,0,0,1,.6,0,3.383,3.383,0,0,1,.951.248,5.815,5.815,0,0,1,.937.512,1.578,1.578,0,0,0,.4.186,2.32,2.32,0,0,0,.426.078q.451.048.9.081a5.658,5.658,0,0,1,.78.111,1.878,1.878,0,0,1,.9.464.128.128,0,0,1-.006.22,1.236,1.236,0,0,1-.415.234,3.534,3.534,0,0,1-.46.1,5.331,5.331,0,0,1-.608.063,7.979,7.979,0,0,1-1.345-.053Q7.3,10.133,6.6,10A.41.41,0,0,0,6.436,10a.218.218,0,0,0-.105.065.23.23,0,0,0-.052.107.207.207,0,0,0,.076.232.548.548,0,0,0,.206.069q.468.087,1.031.17t1.074.108a6.692,6.692,0,0,0,1.743-.142,1.588,1.588,0,0,0,.785-.417l.116-.109q.057-.054.134-.138.251-.273.729-.758Z" transform="translate(-0.237 -0.23)" fill="#014e78"/>
  <path id="Path_17233" data-name="Path 17233" d="M1.2,9.609a1.643,1.643,0,0,1,.428.153A4.467,4.467,0,0,1,2.01,10a7.184,7.184,0,0,1,2.464,2.9,2.214,2.214,0,0,1,.091.22.755.755,0,0,1,.048.232.607.607,0,0,1-.114.362,1.328,1.328,0,0,1-.234.257,3.91,3.91,0,0,1-.44.32.1.1,0,0,1-.084.009,1.237,1.237,0,0,1-.443-.285q-.267-.262-.529-.529-.75-.762-1.48-1.542-.244-.26-.735-.751a1.17,1.17,0,0,1-.214-.269.9.9,0,0,1-.1-.479A.947.947,0,0,1,.452,9.9a.852.852,0,0,1,.56-.3A.543.543,0,0,1,1.2,9.609Z" transform="translate(-0.237 -0.23)" fill="#014e78"/>
</svg>
