<svg id="fees" xmlns="http://www.w3.org/2000/svg" width="18" height="18" viewBox="0 0 18 18">
  <rect id="Rectangle_17694" data-name="Rectangle 17694" width="18" height="18" fill="none"/>
  <path id="Path_13694" data-name="Path 13694" d="M18,6.21c-.059.332-.09.672-.181.995a5.749,5.749,0,0,1-4.275,4.219.167.167,0,0,1-.206-.073,2.027,2.027,0,0,0-1.684-.825c-.6,0-1.2.007-1.792-.008a.7.7,0,0,1-.4-.142,5.208,5.208,0,0,0-1.621-.891.517.517,0,0,1-.23-.17,5.745,5.745,0,0,1,.361-7.486,5.713,5.713,0,0,1,3.683-1.8A.882.882,0,0,0,11.777,0h.844c.138.021.276.045.414.063a5.8,5.8,0,0,1,4.792,4.344c.075.316.116.64.173.961V6.21ZM11.672,8.329c0,.191,0,.378,0,.564a.529.529,0,1,0,1.054.009c0-.135.008-.27,0-.4a.207.207,0,0,1,.145-.234,1.574,1.574,0,0,0-.63-3,.536.536,0,0,1-.535-.348.517.517,0,0,1,.15-.573.534.534,0,0,1,.638-.053,2.269,2.269,0,0,1,.3.214.53.53,0,0,0,.742-.051.524.524,0,0,0-.045-.741,2.026,2.026,0,0,0-.291-.225c-.153-.1-.378-.148-.453-.285s-.016-.364-.019-.551a.527.527,0,1,0-1.054.005c0,.2,0,.4,0,.592l-.09.04a1.576,1.576,0,0,0,.62,3.027.506.506,0,0,1,.481.322.491.491,0,0,1-.1.555.458.458,0,0,1-.557.137,2.1,2.1,0,0,1-.507-.359.538.538,0,0,0-.755-.059.516.516,0,0,0-.037.752,2.146,2.146,0,0,0,.939.663Z" transform="translate(0 0.015)" fill="#014e78"/>
  <path id="Path_13695" data-name="Path 13695" d="M18,12.385a2.665,2.665,0,0,1-.6,1.114q-1.088,1.432-2.161,2.875a3.738,3.738,0,0,1-3.179,1.591c-1.517-.006-3.035,0-4.552,0a12.474,12.474,0,0,1-3.11-.394c-.045-.011-.088-.027-.145-.045v-.173q0-3.061,0-6.122a.285.285,0,0,1,.158-.277,3.69,3.69,0,0,1,4.312.285,1.69,1.69,0,0,0,1.16.412c.58-.013,1.16,0,1.74,0a1.053,1.053,0,1,1,0,2.1c-1.055,0-2.109,0-3.164,0a.528.528,0,0,0-.552.4.518.518,0,0,0,.5.654c1.406,0,2.812.008,4.218,0a1.515,1.515,0,0,0,1.155-.582q1.175-1.363,2.359-2.718a1.048,1.048,0,0,1,1.733.178A2.8,2.8,0,0,1,18,12v.386Z" transform="translate(0 0.015)" fill="#014e78"/>
  <path id="Path_13696" data-name="Path 13696" d="M0,10.982a.652.652,0,0,1,.707-.39c.4.024.8-.015,1.19.04a1.526,1.526,0,0,1,1.3,1.5q.015,2.147,0,4.293a1.566,1.566,0,0,1-1.539,1.536c-.316.007-.633-.012-.948.006A.654.654,0,0,1,0,17.578v-6.6Z" transform="translate(0 0.015)" fill="#014e78"/>
</svg>
