<svg id="files_image" xmlns="http://www.w3.org/2000/svg" width="168" height="168" viewBox="0 0 168 168">
  <path id="Path_14061" data-name="Path 14061" d="M219.419,76.864A84,84,0,1,1,128.6.3a84,84,0,0,1,90.823,76.56" transform="translate(-51.727 0.004)" fill="rgba(1,78,120,0.1)"/>
  <path id="Path_14062" data-name="Path 14062" d="M210.784,320.3,127.53,354.365,82.464,250.928l83.293-34.065Z" transform="translate(-71.911 -198.844)" fill="#c1822f"/>
  <path id="Path_14063" data-name="Path 14063" d="M1043.42,955.484l-3.523-49.219a4.061,4.061,0,0,0-4.34-3.76l-49.219,3.523a4.06,4.06,0,0,0-3.76,4.34l3.523,49.219a4.06,4.06,0,0,0,4.34,3.76l49.219-3.523a4.06,4.06,0,0,0,3.76-4.34" transform="translate(-897.225 -827.508)" fill="#3a7ec1" opacity="0.2"/>
  <path id="Path_14064" data-name="Path 14064" d="M1021.836,924.415H972.491a4.06,4.06,0,0,1-4.06-4.06V871.01a4.06,4.06,0,0,1,4.06-4.06h49.345a4.06,4.06,0,0,1,4.06,4.06v49.345a4.06,4.06,0,0,1-4.06,4.06" transform="translate(-884.263 -794.916)" fill="#fff"/>
  <path id="Path_14065" data-name="Path 14065" d="M1061.846,962.72h-45.118a2.359,2.359,0,0,1-2.356-2.357V915.246a2.359,2.359,0,0,1,2.356-2.357h45.118a2.359,2.359,0,0,1,2.356,2.357v45.118a2.359,2.359,0,0,1-2.356,2.357m-45.118-48.813a1.34,1.34,0,0,0-1.339,1.339v45.118a1.34,1.34,0,0,0,1.339,1.339h45.118a1.34,1.34,0,0,0,1.339-1.339V915.246a1.34,1.34,0,0,0-1.339-1.339Z" transform="translate(-926.386 -837.038)" fill="#014e78"/>
  <path id="Path_14066" data-name="Path 14066" d="M1197.454,1070.134h-27.228a1.336,1.336,0,1,1,0-2.672h27.228a1.336,1.336,0,0,1,0,2.672" transform="translate(-1068.066 -978.768)" fill="#014e78"/>
  <path id="Path_14067" data-name="Path 14067" d="M1099.726,1068.8a1.336,1.336,0,1,0,1.336-1.336,1.336,1.336,0,0,0-1.336,1.336" transform="translate(-1004.649 -978.768)" fill="#3d98f2"/>
  <path id="Path_14068" data-name="Path 14068" d="M1197.454,1199.349h-27.228a1.336,1.336,0,1,1,0-2.672h27.228a1.336,1.336,0,0,1,0,2.672" transform="translate(-1068.066 -1097.246)" fill="#014e78"/>
  <path id="Path_14069" data-name="Path 14069" d="M1099.726,1198.013a1.336,1.336,0,1,0,1.336-1.336,1.336,1.336,0,0,0-1.336,1.336" transform="translate(-1004.649 -1097.246)" fill="#3d98f2"/>
  <path id="Path_14070" data-name="Path 14070" d="M1197.454,1328.564h-27.228a1.336,1.336,0,1,1,0-2.672h27.228a1.336,1.336,0,0,1,0,2.672" transform="translate(-1068.066 -1215.725)" fill="#014e78"/>
  <path id="Path_14071" data-name="Path 14071" d="M1099.726,1327.228a1.336,1.336,0,1,0,1.336-1.336,1.336,1.336,0,0,0-1.336,1.336" transform="translate(-1004.649 -1215.725)" fill="#3d98f2"/>
  <path id="Path_14072" data-name="Path 14072" d="M832.091,367.2l-13.621-47.427a4.061,4.061,0,0,0-5.024-2.782l-47.427,13.622a4.06,4.06,0,0,0-2.782,5.023l13.622,47.427a4.06,4.06,0,0,0,5.023,2.782l47.428-13.622a4.06,4.06,0,0,0,2.782-5.023" transform="translate(-695.973 -290.51)" fill="#3a7ec1" opacity="0.22"/>
  <path id="Path_14073" data-name="Path 14073" d="M795.637,345.828l-48.341,9.9a4.06,4.06,0,0,1-4.793-3.163l-9.9-48.341a4.06,4.06,0,0,1,3.163-4.793l48.341-9.9a4.06,4.06,0,0,1,4.793,3.163l9.9,48.341a4.06,4.06,0,0,1-3.163,4.793" transform="translate(-667.951 -265.398)" fill="#fff"/>
  <path id="Path_14074" data-name="Path 14074" d="M794.46,397.949a2.361,2.361,0,0,1-2.308-1.884l-9.055-44.2a2.36,2.36,0,0,1,1.836-2.782l44.2-9.054a2.359,2.359,0,0,1,2.781,1.836l9.055,44.2a2.357,2.357,0,0,1-1.836,2.781l-44.2,9.055a2.354,2.354,0,0,1-.473.048M829.607,341a1.345,1.345,0,0,0-.269.027l-44.2,9.054a1.34,1.34,0,0,0-1.043,1.58l9.054,44.2a1.34,1.34,0,0,0,1.58,1.043l44.2-9.054a1.339,1.339,0,0,0,1.043-1.58l-9.054-44.2a1.341,1.341,0,0,0-1.311-1.07" transform="translate(-714.285 -311.732)" fill="#014e78"/>
  <path id="Path_14075" data-name="Path 14075" d="M945.155,546.916l6.052-17.071a.625.625,0,0,1,1.037-.227l4.455,4.572a.625.625,0,0,0,1.033-.217l6.012-16.081a.625.625,0,0,1,1.09-.15l16.046,21.953a.944.944,0,0,1-.573,1.481l-34.074,6.98a.944.944,0,0,1-1.079-1.24" transform="translate(-862.87 -474.487)" fill="#014e78"/>
  <path id="Path_14076" data-name="Path 14076" d="M51.918,757.845,0,663.236l12.793-6.33Z" transform="translate(3.702 -602.324)" fill="#3a7ec1" opacity="0.2"/>
  <path id="Path_14077" data-name="Path 14077" d="M672.5,1328.232l6.18,11.709-53.842,33.451Z" transform="translate(-569.222 -1217.87)" fill="#3a7ec1" opacity="0.22"/>
  <path id="Path_14078" data-name="Path 14078" d="M127.425,78.021l12.149,26.644L133.88,115,165.612,184.6l-57.281,42.463L61.526,124.414Z" transform="translate(-52.712 -71.538)" fill="#ffcb48"/>
</svg>
