<svg id="filter" xmlns="http://www.w3.org/2000/svg" xmlns:xlink="http://www.w3.org/1999/xlink" width="20" height="20" viewBox="0 0 20 20">
  <defs>
    <clipPath id="clip-path">
      <rect id="Rectangle_1292" data-name="Rectangle 1292" width="18" height="18" transform="translate(327.579 123.579)" fill="#fff"/>
    </clipPath>
  </defs>
  <rect id="Rectangle_9" data-name="Rectangle 9" width="20" height="20" fill="none"/>
  <g id="Mask_Group_54" data-name="Mask Group 54" transform="translate(-326.579 -122.579)" clip-path="url(#clip-path)">
    <g id="Layer_1" data-name="Layer 1" transform="translate(327.579 125.991)">
      <g id="filter-2" data-name="filter">
        <path id="Path_13405" data-name="Path 13405" d="M17.478,11.485a1.183,1.183,0,0,1-.347.051c-.149,0-.311,0-.512,0H15.3c-.2,0-.368,0-.52-.005h-.013a.264.264,0,0,0-.274.192,2.4,2.4,0,0,1-2.237,1.447c-.08,0-.162,0-.242-.011a2.425,2.425,0,0,1-.529-4.7,2.525,2.525,0,0,1,.8-.131,2.415,2.415,0,0,1,1.3.379,2.374,2.374,0,0,1,.9,1.053.3.3,0,0,0,.325.209h.008c.425,0,.853-.006,1.271-.006.379,0,.76,0,1.134,0a.779.779,0,0,1,.252,1.513Z" fill="#014e78"/>
        <path id="Path_13406" data-name="Path 13406" d="M8.149,2.417A2.425,2.425,0,0,1,6.225,4.8a2.324,2.324,0,0,1-.506.056A2.415,2.415,0,0,1,3.513,3.42.3.3,0,0,0,3.2,3.2h-.02c-.149,0-.31.006-.507.006H2.323l-.334,0H1.267l-.452,0a.843.843,0,0,1-.6-.245A.754.754,0,0,1,0,2.42a.776.776,0,0,1,.812-.77c.374,0,.745,0,1.1,0,.436,0,.868,0,1.284.005h.006a.279.279,0,0,0,.3-.2,2.424,2.424,0,0,1,4.645.962Z" fill="#014e78"/>
        <path id="Path_13407" data-name="Path 13407" d="M7.828,11.366a1.009,1.009,0,0,1-.515.165c-1.1.006-2.306.009-3.676.009l-2.81,0A.792.792,0,0,1,0,10.756a.755.755,0,0,1,.217-.542A.865.865,0,0,1,.838,9.97H5.925l1.42,0a.781.781,0,0,1,.755.535.737.737,0,0,1-.272.86Z" fill="#014e78"/>
        <path id="Path_13408" data-name="Path 13408" d="M17.829,2.92a.746.746,0,0,1-.568.282c-.169.005-.355.008-.583.008h-.361l-.362,0H12.022c-.521,0-.948,0-1.342,0a.829.829,0,0,1-.656-.3.782.782,0,0,1,.551-1.254c.038,0,.08,0,.132,0h6.448a.773.773,0,0,1,.828.628.786.786,0,0,1-.154.643Z" fill="#014e78"/>
      </g>
    </g>
  </g>
</svg>
