<svg id="home" xmlns="http://www.w3.org/2000/svg" xmlns:xlink="http://www.w3.org/1999/xlink" width="24" height="24" viewBox="0 0 24 24">
  <defs>
    <clipPath id="clip-path">
      <rect id="back" width="24" height="24" transform="translate(1514 653)" fill="rgba(27,44,65,0.3)"/>
    </clipPath>
  </defs>
  <g id="home-2" data-name="home" transform="translate(-1514 -653)" clip-path="url(#clip-path)">
    <g id="Layer_1" data-name="Layer 1" transform="translate(1514 654.267)">
      <g id="home-3" data-name="home">
        <path id="Path_12747" data-name="Path 12747" d="M.13,10.677a.515.515,0,0,1,.048-.732C1.85,8.5,8.247,3.01,11.5.236c.372-.317.572-.315.946,0L15.683,3c.046.039.1.072.171.128.005-.1.011-.178.012-.252,0-.572,0-1.144,0-1.715a.541.541,0,0,1,.571-.605c.791-.012,1.582-.014,2.373,0,.393.007.584.246.584.671,0,1.566,0,3.133,0,4.7a.436.436,0,0,0,.171.377q2.079,1.762,4.148,3.536c.275.235.349.451.242.692a.5.5,0,0,1-.707.241,1.388,1.388,0,0,1-.227-.165L12.143,1.347c-.048-.04-.1-.079-.165-.134-.059.045-.121.088-.178.137C8.659,4.025,2.473,9.326.851,10.725a.515.515,0,0,1-.722-.048h0ZM16.9,1.612a15.633,15.633,0,0,1-.011,1.6,1.284,1.284,0,0,0,.637,1.368,7.547,7.547,0,0,1,.813.674V1.612Z" fill="rgba(27,44,65,0.3)"/>
        <path id="Path_12748" data-name="Path 12748" d="M20.212,11.209v.348q0,4.569,0,9.139a1.963,1.963,0,0,1-.017.328.49.49,0,0,1-.415.422,1.676,1.676,0,0,1-.328.019H4.486a2.266,2.266,0,0,1-.281-.012A.516.516,0,0,1,3.742,21a2.156,2.156,0,0,1-.015-.3q0-4.569,0-9.139v-.338c-.242.206-.434.382-.64.54a.507.507,0,0,1-.831-.241.558.558,0,0,1,.231-.6q.751-.64,1.5-1.283L11.4,3.3l.126-.106a.566.566,0,0,1,.889-.005q.976.829,1.947,1.663Q17.9,7.876,21.433,10.9a.588.588,0,0,1,.258.61.508.508,0,0,1-.825.26c-.107-.078-.2-.171-.305-.257l-.351-.3ZM11.979,4.186c-.048.036-.073.053-.1.074Q8.395,7.23,4.9,10.2a.4.4,0,0,0-.141.346q0,4.816,0,9.633c0,.076.008.152.012.233H8.864v-.293q0-2.831,0-5.662c0-.488.178-.664.667-.664h4.84c.552,0,.711.159.711.715q0,2.819,0,5.639v.269h4.085c.005-.081.013-.149.013-.218q0-4.84-.006-9.679a.494.494,0,0,0-.161-.328q-2.334-2.006-4.68-4l-2.353-2ZM9.914,14.834v5.575h4.114V14.834Z" fill="rgba(27,44,65,0.3)"/>
      </g>
    </g>
  </g>
</svg>
