<svg id="homelogo" xmlns="http://www.w3.org/2000/svg" xmlns:xlink="http://www.w3.org/1999/xlink" width="97.378" height="28" viewBox="0 0 97.378 28">
  <defs>
    <clipPath id="clip-path">
      <rect id="Rectangle_17881" data-name="Rectangle 17881" width="97.378" height="28" fill="#014e78"/>
    </clipPath>
  </defs>
  <g id="Group_17040" data-name="Group 17040" clip-path="url(#clip-path)">
    <path id="Path_17224" data-name="Path 17224" d="M32.593,12.91a3.635,3.635,0,0,1-4.318.1,1.723,1.723,0,1,0-1.813,2.931,7.369,7.369,0,0,0,3.916,1.163,7.049,7.049,0,0,0,4.481-1.6,1.734,1.734,0,0,0,.159-2.44,1.714,1.714,0,0,0-2.425-.157" transform="translate(22.379 10.892)" fill="#014e78"/>
    <path id="Path_17225" data-name="Path 17225" d="M35.521,10.586a2,2,0,0,0-1.455.6,2.015,2.015,0,0,0,0,2.882,2,2,0,0,0,1.455.6,2.038,2.038,0,0,0,1.463-.592,1.926,1.926,0,0,0,.616-1.442,1.959,1.959,0,0,0-.607-1.448,2.019,2.019,0,0,0-1.472-.6" transform="translate(29.198 9.238)" fill="#014e78"/>
    <path id="Path_17226" data-name="Path 17226" d="M22.983,10.586a2,2,0,0,0-1.455.6,2.015,2.015,0,0,0,0,2.882,2,2,0,0,0,1.455.6,2.046,2.046,0,0,0,1.464-.592,1.931,1.931,0,0,0,.614-1.442,1.959,1.959,0,0,0-.607-1.448,2.019,2.019,0,0,0-1.472-.6" transform="translate(18.257 9.238)" fill="#014e78"/>
    <path id="Path_17227" data-name="Path 17227" d="M7.367,10.375a2,2,0,0,0-1.455.6,2.015,2.015,0,0,0,0,2.882,2,2,0,0,0,1.455.6,2.046,2.046,0,0,0,1.464-.592,1.931,1.931,0,0,0,.614-1.442,1.959,1.959,0,0,0-.607-1.448,2.019,2.019,0,0,0-1.472-.6" transform="translate(4.629 9.054)" fill="#014e78"/>
    <path id="Path_17228" data-name="Path 17228" d="M9.733,10.375a2,2,0,0,0-1.455.6,2.015,2.015,0,0,0,0,2.882,2,2,0,0,0,1.455.6,2.046,2.046,0,0,0,1.464-.592,1.931,1.931,0,0,0,.614-1.442,1.959,1.959,0,0,0-.607-1.448,2.019,2.019,0,0,0-1.472-.6" transform="translate(6.694 9.054)" fill="#014e78"/>
    <path id="Path_17229" data-name="Path 17229" d="M72.985,10.644v3.963h-2.7a3.51,3.51,0,0,1-2.676-.97,3.9,3.9,0,0,1-.813-2.989l.365-6.082H62.61l.363,6.082a3.912,3.912,0,0,1-.811,2.989,3.515,3.515,0,0,1-2.678.97h-.94a3.51,3.51,0,0,1-2.676-.97,3.9,3.9,0,0,1-.813-2.989l.365-6.082H50.871l.363,6.082a3.912,3.912,0,0,1-.811,2.989,3.515,3.515,0,0,1-2.678.97h-.94a3.51,3.51,0,0,1-2.676-.97,3.912,3.912,0,0,1-.813-2.989l.365-6.082H39.131l.363,6.082a3.9,3.9,0,0,1-.811,2.989,3.513,3.513,0,0,1-2.676.97H35.08a3.536,3.536,0,0,1-2.684-.97c-.051-.051-.1-.107-.152-.167L27.391,2.154,26.648,0a43.767,43.767,0,0,0-4.792.972,10.4,10.4,0,0,0-5.234,2.843,4.535,4.535,0,0,0-.97,4.451,8.848,8.848,0,0,0,.94,2.163,26.043,26.043,0,0,0,1.684,2.433l.622.775q.379.5.669.97H8.918A6.187,6.187,0,0,1,6.1,14.06a3.26,3.26,0,0,1-1.547-1.7,5.4,5.4,0,0,1-.333-2.669q.258-3.261.258-3.884H0q0,.607.257,3.9a9.221,9.221,0,0,0,2.26,5.839Q4.579,17.7,8.918,17.7H25.009a14.45,14.45,0,0,0-1.243-3.586,20.756,20.756,0,0,0-1.728-2.571l-.622-.788q-.927-1.244-1.38-1.972a4.961,4.961,0,0,1-.607-1.29,2.2,2.2,0,0,1,.5-2.109,5.456,5.456,0,0,1,2.685-1.425c.474-.122.94-.217,1.4-.288l4.974,11.451-.015.062a1.5,1.5,0,0,0,.107.152l.092.212.06-.015a4.935,4.935,0,0,0,1.457,1.305,6.527,6.527,0,0,0,3.442.863h1.882a6.287,6.287,0,0,0,3.7-.91,4.657,4.657,0,0,0,1.562-1.865,5.113,5.113,0,0,0,1.865,1.88,5.713,5.713,0,0,0,2.974.9h1.637a6.289,6.289,0,0,0,3.7-.91,4.657,4.657,0,0,0,1.562-1.865,5.113,5.113,0,0,0,1.865,1.88,5.713,5.713,0,0,0,2.974.9h1.637a6.279,6.279,0,0,0,3.7-.91,4.646,4.646,0,0,0,1.564-1.865,5.113,5.113,0,0,0,1.865,1.88,5.712,5.712,0,0,0,2.972.9H87.135a7.694,7.694,0,0,0,5.416-1.728,6.293,6.293,0,0,0,1.865-4.854,7.528,7.528,0,0,0-1.27-4.367l4.232-.672L96.365,1.642,91.077,3.287,76.764,6.627l.006-.781L77.1.322,72.55.352l0,.013H72.5l.27,2.59L72.985,5.5v5.142ZM89.957,13.7a3.84,3.84,0,0,1-2.822.9H76.549v-4l.135-.032.051,0v-.011l8.481-2.021,2.107-.5a2.767,2.767,0,0,1,2.65.524,3.48,3.48,0,0,1,.88,2.556,3.515,3.515,0,0,1-.9,2.586" transform="translate(0 0)" fill="#014e78"/>
  </g>
</svg>
