<svg id="Instagram" xmlns="http://www.w3.org/2000/svg" xmlns:xlink="http://www.w3.org/1999/xlink" width="51" height="50" viewBox="0 0 51 50">
  <defs>
    <linearGradient id="linear-gradient" x1="0.988" y1="-0.101" x2="0.187" y2="0.886" gradientUnits="objectBoundingBox">
      <stop offset="0.01" stop-color="#3542e0"/>
      <stop offset="0.17" stop-color="#3741de"/>
      <stop offset="0.27" stop-color="#3f3fda"/>
      <stop offset="0.36" stop-color="#4e3cd2"/>
      <stop offset="0.43" stop-color="#6237c7"/>
      <stop offset="0.5" stop-color="#7d31b9"/>
      <stop offset="0.56" stop-color="#9d29a7"/>
      <stop offset="0.62" stop-color="#c32193"/>
      <stop offset="0.62" stop-color="#c82091"/>
      <stop offset="0.76" stop-color="#f62b37"/>
      <stop offset="1" stop-color="#ffc658"/>
    </linearGradient>
  </defs>
  <rect id="Rectangle_2094" data-name="Rectangle 2094" width="51" height="50" rx="25" fill="#e4e4e4"/>
  <circle id="Ellipse_108" data-name="Ellipse 108" cx="25" cy="25" r="25" transform="translate(0.5)" fill="url(#linear-gradient)"/>
  <path id="Path_12741" data-name="Path 12741" d="M38.289,18.447a7.034,7.034,0,0,0-2.144-4.511,7.276,7.276,0,0,0-4.854-1.962c-3.115-.162-10.5-.283-13.107.142a6.649,6.649,0,0,0-5.724,5.138c-.627,2.245-.506,12.642-.142,14.867a6.725,6.725,0,0,0,5.32,5.785c2.083.546,12.358.465,14.664.1a6.7,6.7,0,0,0,5.805-5.3c.607-2.306.384-12.156.182-14.239ZM35.841,31.675a4.5,4.5,0,0,1-4.207,4c-2.144.243-11.671.364-13.653-.182a4.354,4.354,0,0,1-3.3-3.742,86.663,86.663,0,0,1,0-13.37A4.48,4.48,0,0,1,18.871,14.4a93.554,93.554,0,0,1,13.046.061A4.485,4.485,0,0,1,35.9,18.689a93.154,93.154,0,0,1-.061,13.006ZM25.263,18.244a6.8,6.8,0,1,0,6.8,6.8A6.8,6.8,0,0,0,25.263,18.244Zm-.04,11.185a4.389,4.389,0,1,1,4.43-4.349A4.385,4.385,0,0,1,25.222,29.43ZM33.92,18a1.588,1.588,0,1,1-1.578-1.6A1.571,1.571,0,0,1,33.92,18Z" transform="translate(0.5)" fill="#fff"/>
  <path id="Path_12742" data-name="Path 12742" d="M38.289,18.447a7.034,7.034,0,0,0-2.144-4.511,7.276,7.276,0,0,0-4.854-1.962c-3.115-.162-10.5-.283-13.107.142a6.649,6.649,0,0,0-5.724,5.138c-.627,2.245-.506,12.642-.142,14.867a6.725,6.725,0,0,0,5.32,5.785c2.083.546,12.358.465,14.664.1a6.7,6.7,0,0,0,5.805-5.3c.607-2.306.384-12.156.182-14.239ZM35.841,31.675a4.5,4.5,0,0,1-4.207,4c-2.144.243-11.671.364-13.653-.182a4.354,4.354,0,0,1-3.3-3.742,86.663,86.663,0,0,1,0-13.37A4.48,4.48,0,0,1,18.871,14.4a93.554,93.554,0,0,1,13.046.061A4.485,4.485,0,0,1,35.9,18.689a93.154,93.154,0,0,1-.061,13.006ZM25.263,18.244a6.8,6.8,0,1,0,6.8,6.8A6.8,6.8,0,0,0,25.263,18.244Zm-.04,11.185a4.389,4.389,0,1,1,4.43-4.349A4.385,4.385,0,0,1,25.222,29.43ZM33.92,18a1.588,1.588,0,1,1-1.578-1.6A1.571,1.571,0,0,1,33.92,18Z" transform="translate(0.5)" fill="#fff"/>
</svg>
