<svg id="lab" xmlns="http://www.w3.org/2000/svg" width="54" height="58" viewBox="0 0 54 58">
  <rect id="Rectangle_1296" data-name="Rectangle 1296" width="54" height="58" fill="none"/>
  <g id="Group_4964" data-name="Group 4964" transform="translate(0 2.699)">
    <path id="Path_12353" data-name="Path 12353" d="M55.66,29.48A27.965,27.965,0,0,1,53.621,40c-.033.083-.066.166-.1.248q-.426,1.027-.932,2.01-.094.182-.19.362-.551,1.034-1.184,2.013c-.055.085-.111.17-.168.255q-.573.865-1.207,1.682c-.065.083-.13.167-.2.249a26.4,26.4,0,0,1-38.675,3.161q-.619-.564-1.2-1.168c-.121-.124-.239-.249-.357-.376a27.513,27.513,0,0,1-3.16-4.114q-.265-.421-.514-.852a27.649,27.649,0,0,1-2.75-6.588A28.117,28.117,0,0,1,2,29.48C2,14.3,14.012,2,28.83,2S55.66,14.3,55.66,29.48" transform="translate(-1.83 -1.83)" fill="#bbe4f9" fill-rule="evenodd"/>
    <path id="Path_12354" data-name="Path 12354" d="M27,55.3a26.6,26.6,0,0,1-17.976-7.02c-.406-.37-.813-.766-1.209-1.176-.121-.125-.24-.25-.359-.378a27.74,27.74,0,0,1-3.179-4.139c-.174-.276-.348-.565-.517-.857A27.841,27.841,0,0,1,.992,35.1,28.331,28.331,0,0,1,0,27.65,27.808,27.808,0,0,1,7.907,8.1a26.554,26.554,0,0,1,38.187,0,28.2,28.2,0,0,1,5.855,30.139c-.033.084-.067.168-.1.252-.279.673-.595,1.354-.937,2.02-.063.123-.127.244-.191.365-.365.686-.766,1.367-1.192,2.025-.056.086-.112.172-.169.257-.382.576-.79,1.145-1.214,1.691l-.2.251A26.673,26.673,0,0,1,27,55.3M27,.34C12.3.34.34,12.591.34,27.65a27.985,27.985,0,0,0,.98,7.363A27.5,27.5,0,0,0,4.053,41.56c.167.289.338.574.51.846A27.405,27.405,0,0,0,7.7,46.5c.117.126.235.25.355.373.391.405.793.8,1.194,1.161a26.23,26.23,0,0,0,38.427-3.141l.194-.247c.419-.54.823-1.1,1.2-1.672.057-.085.112-.169.167-.254.42-.65.816-1.323,1.177-2,.063-.119.126-.239.189-.361.337-.657.649-1.329.926-2,.036-.083.069-.164.1-.246A27.717,27.717,0,0,0,53.66,27.65C53.66,12.591,41.7.34,27,.34" fill="#5779aa"/>
    <path id="Path_12355" data-name="Path 12355" d="M70.613,205.149a2.578,2.578,0,0,0,.995-.628,2.913,2.913,0,0,0,.547-1.21,2.481,2.481,0,0,0,.47,1.167,2.286,2.286,0,0,0,1,.61,1.9,1.9,0,0,0-.933.612,2.8,2.8,0,0,0-.482,1.154,2.9,2.9,0,0,0-.547-1.115,1.958,1.958,0,0,0-1.048-.589" transform="translate(-64.609 -186.024)" fill="#fff" fill-rule="evenodd"/>
    <path id="Path_12356" data-name="Path 12356" d="M47.845,150.809s-.906.963-1.122,1.219a2.13,2.13,0,0,0-.332.671l-5.124,1.684-.6.058s-1.093.061-1.579.153c-.339.064-.725.114-.928.138l-.14.016.312.378,0,0v.006c0,.088,0,1.108,0,1.415a13.073,13.073,0,0,1-.048,2.006,5.189,5.189,0,0,0-.026,1.258,4.9,4.9,0,0,0-.722.043,4.421,4.421,0,0,0-1.092.387s-1.957.8-3.014,1.171c-.446.158-1.637.434-2.865.7l-.013,0c-.893.193-1.8.381-2.461.514-.58.118-.963.194-.963.194l-1.4.387-4.148,1.144q-.619-.564-1.2-1.168a4.309,4.309,0,0,1-.809-.3c-1.27-.623-2.218-1.917-2.9-3.956q-.179-.538-.326-1.087a27.649,27.649,0,0,1-2.75-6.588c.114-.974.385-4.092.434-4.943.054-.928-.022-2.878,0-3.34a24.116,24.116,0,0,1,.507-2.787c.156-.571,1.221-3.227,1.558-3.9a17.857,17.857,0,0,1,2.067-2.712,36.549,36.549,0,0,1,3.312-2.39c.5-.3,3.15-1.751,3.15-1.751l-.173-.576,1.242-.819,1.2-.954L28.113,127l.847.333L34,133.667l.435.826s.593-.247.792-.106a9.235,9.235,0,0,1,.813.894l.817,1.1s1.693,2.95,1.921,3.326,1.905,3.915,2.166,4.614,1.186,4.665,1.239,5.014.072.983.072.983l4.825.363Z" transform="translate(-12.444 -116.202)" fill="#fff"/>
    <path id="Path_12357" data-name="Path 12357" d="M5.1,53.809c.015.049.031.1.047.145-.094-.146-.186-.293-.277-.441-.081-.132-.161-.265-.24-.4A27.95,27.95,0,0,1,1.9,46.841c-.059-.2-.116-.4-.169-.6A28.237,28.237,0,0,1,.74,38.817,27.532,27.532,0,0,1,19.687,12.373a.23.23,0,0,1,.14.439,27.074,27.074,0,0,0-18.627,26,27.918,27.918,0,0,0,.683,6.152c.054.236.111.472.171.706A27.434,27.434,0,0,0,4.23,51.437q.21.412.434.815c.125.526.268,1.046.433,1.558" transform="translate(-0.677 -11.311)" fill="#5779aa"/>
    <path id="Path_12358" data-name="Path 12358" d="M125.082,550.359a26.555,26.555,0,0,1-34.989-.794l-.216-.2q-.556-.515-1.083-1.063-.184-.19-.364-.384l.06.023a4.6,4.6,0,0,0,.808.219q.149.152.3.3.39.385.8.754c.072.066.145.133.219.2a26.092,26.092,0,0,0,34.174.591.23.23,0,0,1,.294.355" transform="translate(-80.911 -501.332)" fill="#5779aa"/>
    <path id="Path_12359" data-name="Path 12359" d="M232.416,131.23a2.857,2.857,0,0,0-1,2.188,4.237,4.237,0,0,0,.19,2.18,2.949,2.949,0,0,0,1.728,1.512,5.168,5.168,0,0,0,2.331.2,2.784,2.784,0,0,0,1.535-.558,2.516,2.516,0,0,0,.5-2.595,4.812,4.812,0,0,0-2.177-2.78,2.554,2.554,0,0,0-2.278-.29Z" transform="translate(-211.694 -119.792)" fill="#fde6e0"/>
    <path id="Path_12360" data-name="Path 12360" d="M191.206,77.336l-.31-.758a.609.609,0,0,0-.443-.24c-.331-.049-.552-.163-.829.02s-.349-.01-.692.144-.858.413-.858.413l-.958.479-1.226.215a5.609,5.609,0,0,1-.381.687,11.927,11.927,0,0,1-.926.957c-.22.18-.975.737-.975.737l-.356.253s.9.99,1.082,1.206a8.751,8.751,0,0,1,1.12,1.261l.9,1.347,1.118,1.686.543,1.153.057.344a1.049,1.049,0,0,0,.858,0,6.892,6.892,0,0,0,1.033-1.666,15,15,0,0,0,.916,1.406,2.262,2.262,0,0,0,2.683.438,3.3,3.3,0,0,0,1.208-.639c.333-.309.642-.923,1.105-1.038.126-.029.844.205.9.09l.237-.526.191-.757-.825-.79a1.868,1.868,0,0,1,.171-.793,2.106,2.106,0,0,1,.654-.637,1.357,1.357,0,0,1,.689-.152,1.311,1.311,0,0,1,.445.25l.249.284a3.9,3.9,0,0,0,.495-.447,7.361,7.361,0,0,0,.953-1.532c.148-.409.464-1.487.464-1.487v-.635l-.349-.132a2.081,2.081,0,0,0-.487-.48c-.222-.121-.756-.387-.756-.387s-1.16-.269-1.294-.536a2.687,2.687,0,0,1-.455-1.167c.012-.435-.032-1.176-.032-1.176s.015-.1-.35.241a2.367,2.367,0,0,0-.661.791c-.122.284-.19.767-.287.952s.04.4-.159.66-.338.466-.564.5a1.42,1.42,0,0,0-.523.287,2.85,2.85,0,0,0-.754.038,1.758,1.758,0,0,0-.874.409c-.218.224-.264.368-.433.444a1.6,1.6,0,0,1-.644-.031l-.261-.822Z" transform="translate(-167.671 -68.363)" fill="#fde6e0"/>
    <path id="Path_12361" data-name="Path 12361" d="M218.182,11.141l-.941.215a5.458,5.458,0,0,0-.826-.076c-.254.017-1.3.282-1.3.282l-1.023.643a12.409,12.409,0,0,0-1.077.879,10.541,10.541,0,0,0-.914,1.21c-.144.251-.585,1.122-.691,1.35s-.958,1.943-1.057,2.1-1.208,1.47-1.208,1.47.03.2.331.17,1.331-.215,1.331-.215.8-.4,1.063-.531a7.274,7.274,0,0,1,1.107-.294l.592-.261.707.061a2.465,2.465,0,0,1,.47.457c.052.13.519,1.386.6,1.557s.225.779.225.779a.564.564,0,0,0,.554-.047,12.54,12.54,0,0,1,1.051-.9,9.78,9.78,0,0,1,1.1-.055.793.793,0,0,1,.436-.265c.278-.057.6-.231.661-.44s.13-.957.251-1.235a8.248,8.248,0,0,1,.65-.976l.589-.274a7.384,7.384,0,0,0,.035,1.406,2.353,2.353,0,0,0,.95.922c.343.133,1.254.411,1.254.411s.391.376.466.452.4.361.4.361l.226.721a1.353,1.353,0,0,0,.6-.083,4.269,4.269,0,0,0,.98-.7c.239-.238.2-1.236.2-1.236s-.224-.7-.319-.94-.5-.571-.592-.9-.1-1.285-.209-1.644a3.112,3.112,0,0,0-.72-1.234c-.317-.275-.732-.182-.918-.41s-.573-1.081-.892-1.439a3.409,3.409,0,0,0-1.013-.88,4.079,4.079,0,0,0-1.36-.473c-.332.006-1.758.066-1.758.066" transform="translate(-191.36 -10.133)" fill="#f8a4a3"/>
    <path id="Path_12362" data-name="Path 12362" d="M335.169,416.638l1.98-.55,3.177-1.1,1.087-.392a1.234,1.234,0,0,1,.658-.091c.315.065.96.215.96.215l.21-.029.47-.3,1.2-.622.558-.2a5.147,5.147,0,0,1,.8.027c.235.048.376-.061.522.152s.582.762.582.762a.537.537,0,0,1,.435.206c.213.235.4.457.4.457l.386.173.281.378.355.676a1.5,1.5,0,0,0,.13.665,1.929,1.929,0,0,1,.2.679,4.268,4.268,0,0,1,0,.613c-.029.084-.11.357-.11.357H349l-.5.179-.4.211s-1.161.019-1.614,0-2.751.033-2.751.033a16.34,16.34,0,0,0-1.841.251c-.564.144-1.627.538-2.219.759a5.8,5.8,0,0,1-1.461.4,8.2,8.2,0,0,1-1.639-.161c-.375-.1-.492.062-.443-.236a9.544,9.544,0,0,0-.425-2.647,3.6,3.6,0,0,0-.534-.861" transform="translate(-306.67 -378.399)" fill="#8cb8ed"/>
    <path id="Path_12363" data-name="Path 12363" d="M171.03,127.774l-.742-.293-1.415.128s1,2.016,1.079,2.178.952,2.243.961,2.422.631,2.049.686,2.289.976,2.512,1.064,2.621,1.616,2.609,1.888,2.988a27.521,27.521,0,0,1,1.2,3.408c.063.262.669,1.932.749,2.212s.823,2.381.9,2.758-.154,3.825-.154,3.825l-.331,1.9-.087.331,1.968.284a11.832,11.832,0,0,1,.052-1.572c.087-.975-.156-3.948-.148-4.682s-.351-3.79-.337-4.317a14.71,14.71,0,0,0-.64-2.468c-.094-.358-1.095-2.772-1.169-3.106s-.134-1.692-.134-1.692l.646.732a8.273,8.273,0,0,0,.289-1.291c.029-.434.074-1.574.074-1.574l-.619-1s-.506,1.218-.819,1.392a2.628,2.628,0,0,1-.942.188l-.235-.457s-1.39-2.221-1.613-2.639a27.373,27.373,0,0,0-2.022-2.607c-.273-.266-.965-.952-.993-1.2s.267-.258.267-.258Z" transform="translate(-154.514 -116.642)" fill="#c8e4fc"/>
    <path id="Path_12364" data-name="Path 12364" d="M234.559,221.054l-.5.9.5.917.3.567-.3,2.382.037.554s.631,1.868.7,2.232.464,1.683.464,1.683l.295.968s.7,1.516.773,1.829.162,1.08.162,1.08.141-1.335.129-1.614a26.246,26.246,0,0,0-.431-2.96c-.163-.522-1.1-4.342-1.1-4.342v-.766l-.013-.966a6.131,6.131,0,0,0,.233-.915,2.877,2.877,0,0,0-.035-.614s-.448-.556-.589-.685-.443-.344-.443-.344Z" transform="translate(-214.156 -202.177)" fill="#b78fc1"/>
    <path id="Path_12365" data-name="Path 12365" d="M303.292,448.206a1.289,1.289,0,0,0-.969.024,8.467,8.467,0,0,1-1.775.285,3.381,3.381,0,0,1,.378,1.865,15.773,15.773,0,0,1-.155,2.9,4.988,4.988,0,0,1,1.824-.528,9,9,0,0,0,1.679-.626.417.417,0,0,0,.192-.136.41.41,0,0,0,.046-.211,5.908,5.908,0,0,0-.23-2.01,3.138,3.138,0,0,0-1.149-1.633Z" transform="translate(-274.993 -410.015)" fill="#c8e4fc"/>
    <path id="Path_12366" data-name="Path 12366" d="M401.928,407.519l1.067-.645-2.061-.526a1.561,1.561,0,0,0-.474-.07,1.448,1.448,0,0,0-.9.545,8.516,8.516,0,0,0-1.081,1.422,2.418,2.418,0,0,1,2.14-.207.71.71,0,0,0,.412.083.614.614,0,0,0,.192-.1l1.34-.9Z" transform="translate(-364.595 -371.731)" fill="#c8e4fc"/>
    <path id="Path_12367" data-name="Path 12367" d="M246.745,94.926a.126.126,0,0,1-.112-.069,2.709,2.709,0,0,1-.039-2.176,1.456,1.456,0,0,1,.748-.892,1.419,1.419,0,0,1,.827-.043,1.181,1.181,0,0,1,.409.143,1.389,1.389,0,0,1,.516.967.125.125,0,1,1-.245.053,1.2,1.2,0,0,0-.4-.807.957.957,0,0,0-.324-.109,1.193,1.193,0,0,0-.685.028,1.223,1.223,0,0,0-.61.75,2.458,2.458,0,0,0,.029,1.974.125.125,0,0,1-.112.182" transform="translate(-225.436 -83.909)" fill="#5779aa"/>
    <path id="Path_12368" data-name="Path 12368" d="M261.139,105.342a.125.125,0,0,1-.125-.115,2.845,2.845,0,0,0-.276-1,.125.125,0,1,1,.225-.11,3.058,3.058,0,0,1,.3,1.092.125.125,0,0,1-.115.135h-.011" transform="translate(-238.557 -95.197)" fill="#5779aa"/>
    <path id="Path_12369" data-name="Path 12369" d="M330.965,159.6c-.123.172-.128.38-.01.464s.312.012.435-.16.128-.38.01-.464-.312-.012-.435.16" transform="translate(-302.737 -145.852)" fill="#5779aa"/>
    <path id="Path_12370" data-name="Path 12370" d="M182.943,115.955a.125.125,0,0,1-.059-.236,6.8,6.8,0,0,0,2.231-1.9.125.125,0,1,1,.2.151A7.046,7.046,0,0,1,183,115.941a.124.124,0,0,1-.059.015" transform="translate(-167.272 -104.096)" fill="#5779aa"/>
    <path id="Path_12371" data-name="Path 12371" d="M336.227,162.765a.125.125,0,0,1-.125-.117,1.618,1.618,0,0,1,1.413-1.709.794.794,0,0,1,.7.193.125.125,0,1,1-.182.172.582.582,0,0,0-.483-.117,1.367,1.367,0,0,0-1.194,1.445.125.125,0,0,1-.117.133h-.008" transform="translate(-307.521 -147.245)" fill="#5779aa"/>
    <path id="Path_12372" data-name="Path 12372" d="M340.921,168.183h0a.125.125,0,0,1-.121-.13,1.589,1.589,0,0,1,1.645-1.529.125.125,0,0,1,.121.13.121.121,0,0,1-.13.121,1.338,1.338,0,0,0-1.385,1.288.125.125,0,0,1-.125.121" transform="translate(-311.819 -152.363)" fill="#5779aa"/>
    <path id="Path_12373" data-name="Path 12373" d="M343.982,186.205a.125.125,0,0,1-.1-.046l-1.156-1.421a.125.125,0,1,1,.194-.158L344.079,186a.125.125,0,0,1-.1.2" transform="translate(-313.562 -168.843)" fill="#5779aa"/>
    <path id="Path_12374" data-name="Path 12374" d="M361.339,187.958a.125.125,0,0,1-.125-.122,1.833,1.833,0,0,1,1.705-1.884.125.125,0,0,1,.017.25,1.582,1.582,0,0,0-1.472,1.626.125.125,0,0,1-.121.129h0" transform="translate(-330.5 -170.141)" fill="#5779aa"/>
    <path id="Path_12375" data-name="Path 12375" d="M364.158,172.357a.125.125,0,0,1-.1-.045l-.956-1.135a.125.125,0,0,1,.192-.162l.956,1.135a.125.125,0,0,1-.1.206" transform="translate(-332.205 -156.434)" fill="#5779aa"/>
    <path id="Path_12376" data-name="Path 12376" d="M365.51,193.192a.126.126,0,0,1-.048-.01.544.544,0,0,1-.307-.517c.01-.709.841-1.379,1.362-1.635a.125.125,0,1,1,.111.225c-.5.247-1.213.849-1.221,1.414a.3.3,0,0,0,.153.282.125.125,0,0,1-.049.241" transform="translate(-334.107 -174.776)" fill="#5779aa"/>
    <path id="Path_12377" data-name="Path 12377" d="M370.405,210.91a.125.125,0,0,1-.1-.047l-.567-.712a.125.125,0,1,1,.2-.156l.567.712a.125.125,0,0,1-.02.176.124.124,0,0,1-.078.027" transform="translate(-338.277 -192.095)" fill="#5779aa"/>
    <path id="Path_12378" data-name="Path 12378" d="M374.209,194.978a.125.125,0,0,1-.115-.174,6.056,6.056,0,0,1,2.921-3.066.125.125,0,1,1,.109.226,5.8,5.8,0,0,0-2.8,2.938.125.125,0,0,1-.116.077" transform="translate(-342.276 -175.424)" fill="#5779aa"/>
    <path id="Path_12379" data-name="Path 12379" d="M378.7,231.215a.125.125,0,0,1-.093-.041l-2.252-2.485a.125.125,0,0,1,.186-.168l2.252,2.484a.125.125,0,0,1-.093.21" transform="translate(-344.324 -209.053)" fill="#5779aa"/>
    <path id="Path_12380" data-name="Path 12380" d="M405.335,225.721a.125.125,0,0,1-.107-.191,9.737,9.737,0,0,1,2.74-2.886.125.125,0,1,1,.142.206,9.488,9.488,0,0,0-2.669,2.811.125.125,0,0,1-.107.06" transform="translate(-370.756 -203.693)" fill="#5779aa"/>
    <path id="Path_12381" data-name="Path 12381" d="M413.106,195.536a.125.125,0,0,1-.092-.04l-2.187-2.364a.125.125,0,0,1,.184-.17l2.187,2.364a.125.125,0,0,1-.092.211" transform="translate(-375.865 -176.517)" fill="#5779aa"/>
    <path id="Path_12382" data-name="Path 12382" d="M419.365,198.22a.125.125,0,0,1-.063-.234,1.557,1.557,0,0,1,.935-.2.125.125,0,1,1-.026.249,1.307,1.307,0,0,0-.783.168.126.126,0,0,1-.063.017" transform="translate(-383.592 -180.961)" fill="#5779aa"/>
    <path id="Path_12383" data-name="Path 12383" d="M434.7,202.965a.125.125,0,0,1-.092-.04l-1.436-1.559a.125.125,0,1,1,.185-.17l1.436,1.559a.125.125,0,0,1-.092.21" transform="translate(-396.314 -184.051)" fill="#5779aa"/>
    <path id="Path_12384" data-name="Path 12384" d="M388,92.7a.127.127,0,0,1-.129-.126.125.125,0,0,1,.125-.125h0a1.419,1.419,0,0,0,1.373-1.778,3.093,3.093,0,0,0-.143-.394,1.836,1.836,0,0,1-.194-.782.128.128,0,0,1,.131-.12.125.125,0,0,1,.12.131,1.625,1.625,0,0,0,.176.675,3.318,3.318,0,0,1,.154.426A1.67,1.67,0,0,1,388,92.7" transform="translate(-354.887 -81.772)" fill="#5779aa"/>
    <path id="Path_12385" data-name="Path 12385" d="M383.612,50.6a.125.125,0,0,1-.123-.1,7.09,7.09,0,0,1-.093-1.349c0-.28,0-.569-.026-.849a2.356,2.356,0,0,0-.874-1.8.125.125,0,1,1,.134-.212,2.594,2.594,0,0,1,.989,1.991c.024.29.026.585.027.869a6.91,6.91,0,0,0,.088,1.3.125.125,0,0,1-.1.147l-.025,0" transform="translate(-349.921 -42.338)" fill="#5779aa"/>
    <path id="Path_12386" data-name="Path 12386" d="M379.011,96.466a.122.122,0,0,1-.029,0,.56.56,0,0,1-.393-.419,1.409,1.409,0,0,1-.013-.51l.128-1.282a.127.127,0,0,1,.137-.112.126.126,0,0,1,.112.137l-.128,1.282a1.205,1.205,0,0,0,.006.42.326.326,0,0,0,.208.239.125.125,0,0,1-.029.247" transform="translate(-346.372 -86.135)" fill="#5779aa"/>
    <path id="Path_12387" data-name="Path 12387" d="M346.358,74.1a.125.125,0,0,1-.113-.07.564.564,0,0,0-.459-.324,4.745,4.745,0,0,1-1.156-.4,1.678,1.678,0,0,1-.834-.943,2.55,2.55,0,0,1-.058-.884,1.634,1.634,0,0,0-.136-.969.125.125,0,0,1,.212-.133,1.839,1.839,0,0,1,.174,1.115,2.332,2.332,0,0,0,.047.8,1.432,1.432,0,0,0,.715.8,4.561,4.561,0,0,0,1.1.374.8.8,0,0,1,.624.457.125.125,0,0,1-.112.181" transform="translate(-314.369 -64.346)" fill="#5779aa"/>
    <path id="Path_12388" data-name="Path 12388" d="M314.993,12.825a.125.125,0,0,1-.065-.018,2.223,2.223,0,0,1-.748-.979c-.055-.109-.109-.217-.168-.321a3.3,3.3,0,0,0-1.828-1.471,5.925,5.925,0,0,0-2.343-.119c-.162.013-.325.027-.487.037a.125.125,0,0,1-.016-.25c.161-.01.322-.024.483-.037a6.108,6.108,0,0,1,2.441.131,3.552,3.552,0,0,1,1.967,1.585c.061.107.118.22.174.332a2.01,2.01,0,0,0,.655.878.125.125,0,0,1-.065.232" transform="translate(-282.929 -8.79)" fill="#5779aa"/>
    <path id="Path_12389" data-name="Path 12389" d="M265.962,13.17a.125.125,0,0,1-.084-.219,3.81,3.81,0,0,1,3.167-.9A.125.125,0,0,1,269,12.3a3.556,3.556,0,0,0-2.954.841.126.126,0,0,1-.084.032" transform="translate(-243.233 -10.974)" fill="#5779aa"/>
    <path id="Path_12390" data-name="Path 12390" d="M207.795,37.78a.125.125,0,0,1-.078-.224,7.845,7.845,0,0,0,2.033-3.029l.037-.082a9.109,9.109,0,0,1,1.964-3.109.125.125,0,1,1,.168.186,8.925,8.925,0,0,0-1.9,3.027l-.037.081a8.047,8.047,0,0,1-2.105,3.122.125.125,0,0,1-.078.027" transform="translate(-190.012 -28.643)" fill="#5779aa"/>
    <path id="Path_12391" data-name="Path 12391" d="M212.917,97.9a.125.125,0,0,1,0-.251,3.859,3.859,0,0,0,2.375-.867.125.125,0,1,1,.159.194,4.112,4.112,0,0,1-2.53.923Z" transform="translate(-194.699 -88.525)" fill="#5779aa"/>
    <path id="Path_12392" data-name="Path 12392" d="M280.356,114.332a.125.125,0,0,1-.125-.116,1,1,0,0,0-.114-.465,1.331,1.331,0,0,1-.148-.542.125.125,0,1,1,.249-.026,1.087,1.087,0,0,0,.122.455,1.234,1.234,0,0,1,.14.561.125.125,0,0,1-.116.134h-.009" transform="translate(-256.164 -103.455)" fill="#5779aa"/>
    <path id="Path_12393" data-name="Path 12393" d="M303.525,113.507a.125.125,0,0,1-.063-.017,1.454,1.454,0,0,0-1.239-.071.125.125,0,1,1-.093-.233,1.688,1.688,0,0,1,1.457.087.125.125,0,0,1-.063.234" transform="translate(-276.369 -103.448)" fill="#5779aa"/>
    <path id="Path_12394" data-name="Path 12394" d="M284.475,122.371a.512.512,0,0,1-.229-.052.125.125,0,0,1,.111-.225.438.438,0,0,0,.441-.107,1.43,1.43,0,0,0,.174-.182.125.125,0,1,1,.193.16,1.668,1.668,0,0,1-.205.214.788.788,0,0,1-.485.193" transform="translate(-260.014 -111.406)" fill="#5779aa"/>
    <path id="Path_12395" data-name="Path 12395" d="M317.909,79.423a.649.649,0,0,1-.193-.029.125.125,0,0,1,.074-.239.564.564,0,0,0,.553-.189,1.277,1.277,0,0,0,.275-.626c.02-.1.035-.2.05-.294a4.37,4.37,0,0,1,.087-.46,2.272,2.272,0,0,1,.974-1.325.125.125,0,0,1,.134.212A2.017,2.017,0,0,0,319,77.651a4.087,4.087,0,0,0-.082.433c-.016.1-.031.2-.052.306a1.509,1.509,0,0,1-.335.744.857.857,0,0,1-.62.288" transform="translate(-290.621 -69.76)" fill="#5779aa"/>
    <path id="Path_12396" data-name="Path 12396" d="M217.768,222.682a.125.125,0,0,1-.065-.232,4.714,4.714,0,0,0,1.726-1.844.125.125,0,1,1,.222.116,4.964,4.964,0,0,1-1.818,1.942.124.124,0,0,1-.065.018" transform="translate(-199.137 -201.787)" fill="#5779aa"/>
    <path id="Path_12397" data-name="Path 12397" d="M233.467,233.287a.125.125,0,0,1-.111-.067l-.759-1.448a.125.125,0,1,1,.222-.116l.759,1.448a.125.125,0,0,1-.111.184" transform="translate(-212.807 -211.896)" fill="#5779aa"/>
    <path id="Path_12398" data-name="Path 12398" d="M250.236,236.391a.124.124,0,0,1-.058-.014.125.125,0,0,1-.054-.169,2.94,2.94,0,0,0,.288-1.264.124.124,0,0,1,.131-.12.125.125,0,0,1,.12.131,3.17,3.17,0,0,1-.316,1.369.125.125,0,0,1-.111.068" transform="translate(-228.844 -214.858)" fill="#5779aa"/>
    <path id="Path_12399" data-name="Path 12399" d="M242.65,250.553a.125.125,0,0,1-.048-.01l-.562-.232a.125.125,0,1,1,.1-.232l.562.232a.125.125,0,0,1-.048.241" transform="translate(-221.389 -228.808)" fill="#5779aa"/>
    <path id="Path_12400" data-name="Path 12400" d="M496.081,281.935h-.125l0-.8a.125.125,0,0,1,.125-.125h0a.125.125,0,0,1,.125.126l0,.8Z" transform="translate(-453.786 -257.116)" fill="#5779aa"/>
    <path id="Path_12401" data-name="Path 12401" d="M538.287,313.6a.125.125,0,0,1-.125-.117l-.143-2.218c-.031-.56-.04-.788-.635-.787h0a.125.125,0,0,1,0-.251h.018c.813,0,.839.475.869,1.024l.009.151.134,2.064a.125.125,0,0,1-.117.133h-.008" transform="translate(-491.576 -283.848)" fill="#5779aa"/>
    <path id="Path_12402" data-name="Path 12402" d="M450.62,252.916a1.146,1.146,0,1,1,.849-1.889.125.125,0,1,1-.19.163.9.9,0,1,0,.206.455.125.125,0,1,1,.248-.036,1.183,1.183,0,0,1-.814,1.265,1.071,1.071,0,0,1-.3.042" transform="translate(-411.241 -229.324)" fill="#5779aa"/>
    <path id="Path_12403" data-name="Path 12403" d="M401.775,491.8c-.055.085-.111.17-.168.255-3.438.078-8.746.094-12.374.094-1.768,0-3.136,0-3.7-.005h-.274a.126.126,0,0,1-.125-.128l.018-1.175a.125.125,0,0,1,.125-.123h0a.125.125,0,0,1,.123.127l-.016,1.048c1.236.005,11.141.033,16.383-.092" transform="translate(-352.392 -448.995)" fill="#5779aa"/>
    <path id="Path_12404" data-name="Path 12404" d="M401.689,508.873l-.2.249c-2.127-.02-4.33-.056-6.477-.092-2.782-.045-5.659-.093-8.343-.1a.125.125,0,0,1-.125-.132c.014-.287.029-.5.043-.712s.029-.419.043-.7a.125.125,0,0,1,.056-.1h0a.129.129,0,0,1,.074-.02.116.116,0,0,1,.061.02.122.122,0,0,1,.058.111c-.014.287-.029.5-.043.708-.012.178-.024.355-.036.576,2.648.013,5.477.06,8.214.1,2.212.037,4.483.074,6.669.094" transform="translate(-353.681 -464.128)" fill="#5779aa"/>
    <path id="Path_12405" data-name="Path 12405" d="M581.846,481.826a.125.125,0,0,1-.125-.125l-.008-1.626a.125.125,0,0,1,.125-.126h0a.125.125,0,0,1,.125.125l.008,1.626a.125.125,0,0,1-.125.126Z" transform="translate(-532.251 -439.141)" fill="#5779aa"/>
    <path id="Path_12406" data-name="Path 12406" d="M584.3,475.965c.136-.045.509-.211,1-.435-.063.122-.126.242-.19.362-.352.16-.613.273-.729.311a.127.127,0,0,1-.039.007.126.126,0,0,1-.04-.245" transform="translate(-534.539 -435.097)" fill="#5779aa"/>
    <path id="Path_12407" data-name="Path 12407" d="M415,483.284a.125.125,0,0,1,0-.251l13.049-.04h0a.125.125,0,0,1,0,.251l-13.049.04Z" transform="translate(-379.596 -441.925)" fill="#5779aa"/>
    <path id="Path_12408" data-name="Path 12408" d="M562.3,467.7h0c-.6-.017-1.143-.061-1.663-.1s-1.052-.085-1.65-.1a.125.125,0,0,1,.007-.251c.6.017,1.143.061,1.663.1s1.052.085,1.65.1a.125.125,0,0,1,0,.251" transform="translate(-511.347 -427.511)" fill="#5779aa"/>
    <path id="Path_12409" data-name="Path 12409" d="M515.374,467.518h0l-.984-.028a.125.125,0,0,1-.122-.129.124.124,0,0,1,.129-.122l.984.028a.125.125,0,0,1,0,.251" transform="translate(-470.538 -427.511)" fill="#5779aa"/>
    <path id="Path_12410" data-name="Path 12410" d="M558.991,426.655h0a.125.125,0,0,1-.122-.128l.092-3.795a.132.132,0,0,1,.128-.122.125.125,0,0,1,.122.128l-.092,3.795a.125.125,0,0,1-.125.122" transform="translate(-511.347 -386.677)" fill="#5779aa"/>
    <path id="Path_12411" data-name="Path 12411" d="M525.929,424.281h0a.125.125,0,0,1-.125-.126l.019-4.159a.125.125,0,0,1,.125-.125h0a.125.125,0,0,1,.125.126l-.019,4.158a.125.125,0,0,1-.125.125" transform="translate(-481.096 -384.171)" fill="#5779aa"/>
    <path id="Path_12412" data-name="Path 12412" d="M527.349,469.358a2.56,2.56,0,0,1-1.386-.35.125.125,0,1,1,.138-.21,3.144,3.144,0,0,0,2.681.014.125.125,0,0,1,.1.228,3.81,3.81,0,0,1-1.538.318" transform="translate(-481.189 -428.919)" fill="#5779aa"/>
    <path id="Path_12413" data-name="Path 12413" d="M346.845,141.361a.125.125,0,0,1-.114-.072.938.938,0,0,0-.707-.519.125.125,0,0,1-.108-.141.127.127,0,0,1,.141-.108,1.194,1.194,0,0,1,.9.661.125.125,0,0,1-.06.167.124.124,0,0,1-.053.012" transform="translate(-316.503 -128.573)" fill="#5779aa"/>
    <path id="Path_12414" data-name="Path 12414" d="M332.961,150.055a.125.125,0,0,1-.084-.032,8.308,8.308,0,0,0-1.19-.893.125.125,0,1,1,.132-.213,8.541,8.541,0,0,1,1.226.92.125.125,0,0,1-.084.219" transform="translate(-303.43 -136.237)" fill="#5779aa"/>
    <path id="Path_12415" data-name="Path 12415" d="M316.787,152.45a.47.47,0,0,1-.122-.015.59.59,0,0,1-.323-.258,1.773,1.773,0,0,1-.219-1.4,3.654,3.654,0,0,1,.615-1.255.125.125,0,1,1,.205.144,3.319,3.319,0,0,0-.575,1.167,1.524,1.524,0,0,0,.181,1.2.359.359,0,0,0,.182.158.353.353,0,0,0,.162-.006,1.128,1.128,0,0,0,.585-.336.125.125,0,0,1,.184.171,1.38,1.38,0,0,1-.716.41.754.754,0,0,1-.156.019" transform="translate(-289.194 -136.757)" fill="#5779aa"/>
    <path id="Path_12416" data-name="Path 12416" d="M282.718,108.118a.124.124,0,0,1-.081-.03l-3.988-3.357a.125.125,0,0,1,.161-.192L282.8,107.9a.125.125,0,0,1-.081.221" transform="translate(-254.916 -95.624)" fill="#5779aa"/>
    <path id="Path_12417" data-name="Path 12417" d="M186.768,139.287a.125.125,0,0,1-.111-.067,30.948,30.948,0,0,0-4.025-5.808c-.023-.026-.059-.064-.1-.11-.278-.289-.795-.826-.744-1.228a.415.415,0,0,1,.205-.307.125.125,0,1,1,.132.213.165.165,0,0,0-.088.125c-.036.284.463.8.676,1.023.049.05.088.091.112.12a31.208,31.208,0,0,1,4.058,5.856.125.125,0,0,1-.111.183" transform="translate(-166.323 -120.545)" fill="#5779aa"/>
    <path id="Path_12418" data-name="Path 12418" d="M175.719,147.051a.125.125,0,0,1-.124-.106,12.942,12.942,0,0,0-.895-2.831c-.137-.34-.278-.691-.406-1.041a13.664,13.664,0,0,1-.455-1.656,10.744,10.744,0,0,0-.595-1.991,11.587,11.587,0,0,0-.856-1.5l-.986-1.542a11.1,11.1,0,0,1-1.743-4c-.063-.225-.126-.451-.192-.675a26.64,26.64,0,0,0-2.412-5.683.125.125,0,0,1,.064-.179,2.817,2.817,0,0,1,2.294.167.125.125,0,0,1-.122.219,2.568,2.568,0,0,0-1.943-.2,26.9,26.9,0,0,1,2.36,5.6c.066.225.129.452.192.678a10.875,10.875,0,0,0,1.713,3.928l.986,1.542a11.761,11.761,0,0,1,.874,1.531,10.949,10.949,0,0,1,.61,2.037,13.442,13.442,0,0,0,.446,1.626c.127.345.267.7.4,1.033a13.129,13.129,0,0,1,.91,2.887.125.125,0,0,1-.1.143h-.019" transform="translate(-152.837 -114.998)" fill="#5779aa"/>
    <path id="Path_12419" data-name="Path 12419" d="M143.61,137.545a.125.125,0,0,1-.043-.008l-1.974-.73a3.078,3.078,0,0,1-.852-.422,2.749,2.749,0,0,1-.832-1.544c-.091-.366-.164-.745-.234-1.11a8.665,8.665,0,0,0-.756-2.523.126.126,0,0,1,.05-.17,18.125,18.125,0,0,0,2.04-1.538l.025-.021a.125.125,0,0,1,.16.193l-.025.021a20.167,20.167,0,0,1-1.973,1.5,9.274,9.274,0,0,1,.725,2.487c.07.362.142.737.231,1.1a2.528,2.528,0,0,0,.743,1.407,2.84,2.84,0,0,0,.784.384l1.974.73a.125.125,0,0,1-.043.243" transform="translate(-127.094 -118.443)" fill="#5779aa"/>
    <path id="Path_12420" data-name="Path 12420" d="M199.545,237.8l-.023,0a.125.125,0,0,1-.1-.146,13.143,13.143,0,0,0,.232-4.608,13.6,13.6,0,0,0-1.247-3.451,75.334,75.334,0,0,0-4.23-7.674,2.729,2.729,0,0,1-.59-1.684,2.64,2.64,0,0,1,.239-.752,3.392,3.392,0,0,0,.188-.5.125.125,0,1,1,.243.062,3.624,3.624,0,0,1-.2.541,2.417,2.417,0,0,0-.22.68,2.544,2.544,0,0,0,.553,1.522,75.624,75.624,0,0,1,4.244,7.7A13.8,13.8,0,0,1,199.9,233a13.361,13.361,0,0,1-.232,4.7.126.126,0,0,1-.123.1" transform="translate(-177.117 -200.275)" fill="#5779aa"/>
    <path id="Path_12421" data-name="Path 12421" d="M239.107,253.844a.125.125,0,0,1-.125-.114,3.859,3.859,0,0,1-.011-.542c.012-.253.05-.507.086-.753a4.268,4.268,0,0,0,.066-1.213.125.125,0,0,1,.248-.034,4.516,4.516,0,0,1-.066,1.284c-.036.24-.072.487-.084.728a3.629,3.629,0,0,0,.011.507.125.125,0,0,1-.113.136h-.012" transform="translate(-218.648 -229.731)" fill="#5779aa"/>
    <path id="Path_12422" data-name="Path 12422" d="M252.14,266.322h-.006a.126.126,0,0,1-.119-.131,14.711,14.711,0,0,0-.759-4.664,16.56,16.56,0,0,1-.787-4.333.125.125,0,0,1,.125-.126h0a.125.125,0,0,1,.125.125,16.367,16.367,0,0,0,.778,4.268,14.9,14.9,0,0,1,.768,4.743.125.125,0,0,1-.125.119" transform="translate(-229.172 -235.209)" fill="#5779aa"/>
    <path id="Path_12423" data-name="Path 12423" d="M258.524,266.762l-.022,0a.126.126,0,0,1-.1-.146,21.345,21.345,0,0,0,.047-5.313l-.284-3.811a14.1,14.1,0,0,0-.233-1.926,14.516,14.516,0,0,0-.865-2.475,12.487,12.487,0,0,1-.938-2.871.125.125,0,0,1,.248-.038,12.3,12.3,0,0,0,.921,2.813,14.713,14.713,0,0,1,.878,2.519,14.3,14.3,0,0,1,.238,1.96l.284,3.811a21.534,21.534,0,0,1-.05,5.376.126.126,0,0,1-.123.1" transform="translate(-234.348 -228.81)" fill="#5779aa"/>
    <path id="Path_12424" data-name="Path 12424" d="M23.2,157.627c-2.6,1.306-5.551,2.786-7.377,5.318a14.93,14.93,0,0,0-1.757,3.474,15.675,15.675,0,0,0-.981,3.661,21.322,21.322,0,0,0-.1,2.813c0,.332.007.663.005.994a38.309,38.309,0,0,1-.313,4.483q-.074.592-.158,1.167c-.059-.2-.116-.4-.169-.6.057-.418.11-.844.156-1.275a36.469,36.469,0,0,0,.233-3.779c0-.33,0-.66-.005-.99a21.583,21.583,0,0,1,.1-2.846,15.9,15.9,0,0,1,1-3.719,15.211,15.211,0,0,1,1.788-3.533c1.862-2.581,4.841-4.076,7.468-5.395a.125.125,0,1,1,.112.224" transform="translate(-11.3 -144.007)" fill="#5779aa"/>
    <path id="Path_12425" data-name="Path 12425" d="M49.824,280.88l-.071,3.365a.126.126,0,0,1-.043.092.119.119,0,0,1-.1.03,3.645,3.645,0,0,0-1.831.457l-.049.021a35.924,35.924,0,0,1-10.638,2.8q-1.472.153-2.944.182c-.139,0-.281,0-.425,0a9.756,9.756,0,0,1-1.229-.067,5.893,5.893,0,0,1-.752-.144l-.054-.015a4.294,4.294,0,0,1-.756-.283c-1.27-.623-2.218-1.917-2.9-3.956q-.153-.46-.282-.93c-.015-.053-.029-.1-.043-.157-.134-.5-.251-1.008-.354-1.52-.316-1.586-.5-3.222-.661-4.885-.2-2.081-.391-4.2-.571-6.246a14.831,14.831,0,0,1,.594-6.553.127.127,0,0,1,.162-.071.125.125,0,0,1,.071.162,14.605,14.605,0,0,0-.579,6.44c.18,2.047.366,4.164.571,6.244a43.241,43.241,0,0,0,.845,5.724c.125.526.268,1.046.433,1.558.015.049.031.1.047.145l0,.011c.656,1.972,1.561,3.218,2.768,3.81.093.046.186.087.281.124l.06.023a4.6,4.6,0,0,0,.808.219,9.868,9.868,0,0,0,1.951.113,35.119,35.119,0,0,0,5.315-.512q1.238-.213,2.461-.514l.013,0a35.283,35.283,0,0,0,5.7-1.928l.049-.021a4.117,4.117,0,0,1,1.825-.488l.068-3.233a2.392,2.392,0,0,0-.484-1.856.126.126,0,0,1,.168-.186,1.452,1.452,0,0,1,.27.329,1.794,1.794,0,0,1,.172.395l0,.009a4.306,4.306,0,0,1,.122,1.315" transform="translate(-23.808 -240.631)" fill="#5779aa"/>
    <path id="Path_12426" data-name="Path 12426" d="M87.713,439.277a.125.125,0,0,1-.12-.162,5.227,5.227,0,0,1,2.066-2.433,3.229,3.229,0,0,1,4.027-.833c.1.038.191.077.287.113a14.125,14.125,0,0,0,6.771.46l.219-.029a8.291,8.291,0,0,1,2.016-.1c.23.026.46.072.683.116a3.976,3.976,0,0,0,1.277.117.128.128,0,0,1,.14.109.125.125,0,0,1-.109.14,4.266,4.266,0,0,1-1.357-.12c-.217-.043-.442-.088-.662-.113a8.122,8.122,0,0,0-1.955.1l-.219.029a14.349,14.349,0,0,1-6.892-.474c-.1-.037-.194-.076-.291-.114a2.994,2.994,0,0,0-3.78.8,5.553,5.553,0,0,0-1.895,2.07,3.164,3.164,0,0,0,1.277-.911.125.125,0,1,1,.192.161,3.409,3.409,0,0,1-1.639,1.073.128.128,0,0,1-.035,0" transform="translate(-80.141 -398.448)" fill="#5779aa"/>
    <path id="Path_12427" data-name="Path 12427" d="M84.51,224.543a.126.126,0,0,1-.122-.154,10.634,10.634,0,0,0-.074-3.884c-.06-.428-.123-.87-.167-1.3-.1-.95-.108-1.919-.12-2.855s-.024-1.931-.125-2.888a15.684,15.684,0,0,0-.487-2.559,10.171,10.171,0,0,0-1.7-3.576,6.1,6.1,0,0,0-3.186-2.215.125.125,0,1,1,.064-.242,6.353,6.353,0,0,1,3.32,2.3,10.418,10.418,0,0,1,1.74,3.663,15.941,15.941,0,0,1,.494,2.6c.1.968.114,1.956.126,2.911.012.931.024,1.894.119,2.833.044.429.106.869.166,1.294a10.818,10.818,0,0,1,.069,3.976.125.125,0,0,1-.122.1" transform="translate(-71.771 -187.441)" fill="#5779aa"/>
    <path id="Path_12428" data-name="Path 12428" d="M260.169,255.528a.124.124,0,0,1-.027,0,.125.125,0,0,1-.1-.15,27.5,27.5,0,0,0,.683-7.165,5.153,5.153,0,0,0-.178-.816,4.57,4.57,0,0,1-.2-1.056c0-.3.02-.6.039-.894.02-.314.041-.64.038-.958-.02-2.474-1.447-4.77-2.688-6.493a.125.125,0,1,1,.2-.147c1.263,1.753,2.715,4.092,2.735,6.637,0,.327-.018.657-.039.976-.018.288-.037.587-.038.879a4.455,4.455,0,0,0,.2.99,5.265,5.265,0,0,1,.186.861,27.755,27.755,0,0,1-.688,7.238.125.125,0,0,1-.122.1" transform="translate(-235.8 -217.577)" fill="#5779aa"/>
    <path id="Path_12429" data-name="Path 12429" d="M274.3,252.387a.125.125,0,0,1-.124-.107c-.365-2.47-.809-4.962-1.321-7.407a37.967,37.967,0,0,0-1.69-6.089,16.651,16.651,0,0,0-2.493-4.405.125.125,0,1,1,.195-.158,16.9,16.9,0,0,1,2.532,4.471,38.172,38.172,0,0,1,1.7,6.129c.513,2.45.959,4.948,1.324,7.422a.125.125,0,0,1-.106.142H274.3" transform="translate(-245.805 -214.262)" fill="#5779aa"/>
    <path id="Path_12430" data-name="Path 12430" d="M300.553,452.785a.125.125,0,0,1-.014-.25,11.1,11.1,0,0,0,3.4-.992.148.148,0,0,0,.125-.195,6.491,6.491,0,0,0-.721-3.107.912.912,0,0,0-.318-.348,1.067,1.067,0,0,0-.647-.031l-2.045.307a.125.125,0,0,1-.037-.248l2.045-.307a1.3,1.3,0,0,1,.8.058,1.134,1.134,0,0,1,.416.44,6.709,6.709,0,0,1,.758,3.228.465.465,0,0,1-.044.255.459.459,0,0,1-.229.179,11.342,11.342,0,0,1-3.469,1.012h-.015" transform="translate(-274.66 -409.521)" fill="#5779aa"/>
    <path id="Path_12431" data-name="Path 12431" d="M348.739,449.414a5.026,5.026,0,0,1-1.535-.267.125.125,0,0,1,.076-.239,4.214,4.214,0,0,0,2.334.155,6.961,6.961,0,0,0,1.2-.424c.139-.059.278-.118.418-.174a10.669,10.669,0,0,1,3.686-.748c.506-.013,1.021.008,1.518.029a12.424,12.424,0,0,0,2.634-.077.528.528,0,0,0,.195-.06.216.216,0,0,0,.089-.17.409.409,0,0,0-.126-.319,1.185,1.185,0,0,0-.669-.219l-.077-.009a6.549,6.549,0,0,1-3.219-.961c-.106-.079-.208-.165-.311-.251a2.508,2.508,0,0,0-.735-.487.125.125,0,1,1,.085-.236,2.723,2.723,0,0,1,.811.531c.1.083.2.165.3.241a6.369,6.369,0,0,0,3.1.913l.077.009a1.4,1.4,0,0,1,.807.282.663.663,0,0,1,.208.524.462.462,0,0,1-.2.361.737.737,0,0,1-.29.1,12.592,12.592,0,0,1-2.688.081c-.493-.02-1-.042-1.5-.029a10.422,10.422,0,0,0-3.6.731c-.138.055-.275.113-.413.172a7.134,7.134,0,0,1-1.242.439,4.268,4.268,0,0,1-.929.106" transform="translate(-317.602 -407.115)" fill="#5779aa"/>
    <path id="Path_12432" data-name="Path 12432" d="M335.663,425.579a.126.126,0,0,1-.034-.246c2.071-.592,3.889-1.2,6.078-2.026a1.768,1.768,0,0,1,1.13-.011.125.125,0,0,1-.063.243,1.512,1.512,0,0,0-.977,0c-2.2.831-4.02,1.439-6.1,2.033a.123.123,0,0,1-.035,0" transform="translate(-307.008 -387.223)" fill="#5779aa"/>
    <path id="Path_12433" data-name="Path 12433" d="M426.146,434.519a1.464,1.464,0,0,1-.291-.038.125.125,0,1,1,.05-.246.8.8,0,0,0,.344.02c.076-.02.153-.088.149-.156s-.09-.142-.174-.2a15.519,15.519,0,0,0-3.347-1.608l-3.6-1.386a.125.125,0,1,1,.09-.234l3.6,1.387a15.687,15.687,0,0,1,3.4,1.636.544.544,0,0,1,.281.389.43.43,0,0,1-.335.415.652.652,0,0,1-.168.021" transform="translate(-383.555 -394.045)" fill="#5779aa"/>
    <path id="Path_12434" data-name="Path 12434" d="M432.613,429.129a.125.125,0,0,1-.125-.115c-.033-.418-.436-.721-.811-.972a9.924,9.924,0,0,0-.934-.576,8.377,8.377,0,0,0-.859-.372,28.248,28.248,0,0,0-3.626-1.116.125.125,0,0,1,.057-.244,28.575,28.575,0,0,1,3.658,1.126,8.668,8.668,0,0,1,.885.383,10.19,10.19,0,0,1,.958.59c.306.205.877.587.922,1.161a.125.125,0,0,1-.115.135h-.01" transform="translate(-389.927 -389.532)" fill="#5779aa"/>
    <path id="Path_12435" data-name="Path 12435" d="M453.2,418.441a.125.125,0,0,1-.125-.121,2.987,2.987,0,0,0-.119-.886c-.087-.245-.329-.346-.61-.463l-.035-.015a.125.125,0,0,1,.1-.231l.035.015a1.139,1.139,0,0,1,.75.61,3.177,3.177,0,0,1,.133.962.125.125,0,0,1-.121.129Z" transform="translate(-413.78 -381.284)" fill="#5779aa"/>
    <path id="Path_12436" data-name="Path 12436" d="M433.565,414.552a.125.125,0,0,1-.125-.124l-.008-.721a.572.572,0,0,0-.214-.589c-.029-.026-.059-.052-.086-.08a1.722,1.722,0,0,1-.216-.288,1.675,1.675,0,0,0-.165-.228.777.777,0,0,0-.521-.249c-.078,0-.155-.012-.231-.019a1.824,1.824,0,0,0-.709.026,2.156,2.156,0,0,0-.354.156l-.958.49a1.425,1.425,0,0,0-.63.484.125.125,0,1,1-.2-.146,1.676,1.676,0,0,1,.721-.562l.957-.49a2.364,2.364,0,0,1,.4-.173,2.04,2.04,0,0,1,.8-.036c.073.007.147.013.223.018a1.03,1.03,0,0,1,.691.33,1.9,1.9,0,0,1,.191.262,1.525,1.525,0,0,0,.183.248c.024.024.049.046.074.069a1.014,1.014,0,0,1,.153.158,1.033,1.033,0,0,1,.144.616l.008.721a.125.125,0,0,1-.124.127Z" transform="translate(-392.633 -376.952)" fill="#5779aa"/>
    <path id="Path_12437" data-name="Path 12437" d="M481.32,426.1a.125.125,0,0,1-.125-.118,3.255,3.255,0,0,0-.23-1.079,1.982,1.982,0,0,0-.65-.849.125.125,0,1,1,.147-.2,2.227,2.227,0,0,1,.734.955,3.5,3.5,0,0,1,.25,1.161.125.125,0,0,1-.118.133h-.008" transform="translate(-439.427 -387.792)" fill="#5779aa"/>
    <path id="Path_12438" data-name="Path 12438" d="M488.324,433.514h-.009a.125.125,0,0,1-.117-.134,3.621,3.621,0,0,0-.333-1.759c-.487-1.049-.8-1.174-.915-1.179a.126.126,0,0,1-.12-.131.13.13,0,0,1,.131-.12c.355.016.725.449,1.131,1.324a3.869,3.869,0,0,1,.356,1.881.125.125,0,0,1-.125.117" transform="translate(-445.437 -393.614)" fill="#5779aa"/>
    <path id="Path_12439" data-name="Path 12439" d="M398.584,407.5a.125.125,0,0,1-.1-.2l.135-.191a7.167,7.167,0,0,1,.9-1.12,1.667,1.667,0,0,1,.76-.439,1.605,1.605,0,0,1,.537.007,7.085,7.085,0,0,1,.965.229,4.3,4.3,0,0,0,1.368.234.13.13,0,0,1,.129.121.125.125,0,0,1-.121.129,4.435,4.435,0,0,1-1.446-.244,6.941,6.941,0,0,0-.932-.222,1.37,1.37,0,0,0-.453-.009,1.425,1.425,0,0,0-.64.38,7.025,7.025,0,0,0-.867,1.077l-.136.192a.126.126,0,0,1-.1.052" transform="translate(-364.579 -371.055)" fill="#5779aa"/>
    <path id="Path_12440" data-name="Path 12440" d="M278.968,233.565a.125.125,0,0,1-.124-.11,32.3,32.3,0,0,0-6.5-14.926.125.125,0,1,1,.193-.16,32.577,32.577,0,0,1,6.558,15.056.125.125,0,0,1-.109.14h-.015" transform="translate(-249.158 -199.76)" fill="#5779aa"/>
    <path id="Path_12441" data-name="Path 12441" d="M345.44,400.535a.125.125,0,0,1-.068-.02,1.787,1.787,0,0,0-.549-.1l-.082-.007c-1.869-.178-3.768-.309-5.643-.389a.125.125,0,0,1-.12-.131.13.13,0,0,1,.131-.12c1.88.081,3.783.212,5.656.39l.079.007a1.656,1.656,0,0,1,.665.139.125.125,0,0,1-.068.231" transform="translate(-310.155 -365.777)" fill="#5779aa"/>
    <path id="Path_12442" data-name="Path 12442" d="M504.342,447.83h-2.006a.125.125,0,0,1,0-.251h2.006a.125.125,0,1,1,0,.251" transform="translate(-459.509 -409.523)" fill="#5779aa"/>
    <path id="Path_12443" data-name="Path 12443" d="M560.069,447.58l4.052.118c-.033.083-.066.166-.1.248l-3.957-.116a.126.126,0,0,1,.008-.251" transform="translate(-512.329 -409.523)" fill="#5779aa"/>
    <path id="Path_12444" data-name="Path 12444" d="M302.244,200.777a2.169,2.169,0,0,1-1.622-.748.125.125,0,1,1,.191-.162,1.915,1.915,0,0,0,1.5.658.127.127,0,0,1,.13.121.125.125,0,0,1-.121.13h-.074" transform="translate(-275.033 -182.832)" fill="#5779aa"/>
    <path id="Path_12445" data-name="Path 12445" d="M331.29,192.338a1.566,1.566,0,0,1-.694-.162.125.125,0,1,1,.112-.225,1.314,1.314,0,0,0,.857.107l.025-.006c-.005,0,0-.006,0-.012l.3-.968a.125.125,0,1,1,.24.074l-.3.968a.243.243,0,0,1-.211.19,1.559,1.559,0,0,1-.327.035" transform="translate(-302.422 -174.745)" fill="#5779aa"/>
    <path id="Path_12446" data-name="Path 12446" d="M365.985,129.929a.125.125,0,0,1-.082-.221,3.92,3.92,0,0,0,1-1.421,12.053,12.053,0,0,0,.554-1.7.125.125,0,0,1,.242.066,12.279,12.279,0,0,1-.566,1.734,4.171,4.171,0,0,1-1.065,1.51.125.125,0,0,1-.082.03" transform="translate(-334.751 -115.74)" fill="#5779aa"/>
    <path id="Path_12447" data-name="Path 12447" d="M382.763,193.64a.125.125,0,0,1-.1-.05,8.819,8.819,0,0,0-.694-.818.125.125,0,0,1,.181-.174,9.032,9.032,0,0,1,.714.842.125.125,0,0,1-.1.2" transform="translate(-349.459 -176.186)" fill="#5779aa"/>
    <path id="Path_12448" data-name="Path 12448" d="M389.067,189.943a.125.125,0,0,1-.1-.045l-.542-.646a.125.125,0,1,1,.192-.161l.542.646a.125.125,0,0,1-.1.206" transform="translate(-355.375 -172.972)" fill="#5779aa"/>
    <path id="Path_12449" data-name="Path 12449" d="M369.66,166.795a.126.126,0,0,1-.1-.045l-.839-1a.125.125,0,0,1,.192-.161l.839,1a.125.125,0,0,1-.1.206" transform="translate(-337.347 -151.468)" fill="#5779aa"/>
    <path id="Path_12450" data-name="Path 12450" d="M444.744,422.808a.125.125,0,0,1-.124-.108,1.055,1.055,0,0,1,.224-.8.125.125,0,1,1,.194.158.8.8,0,0,0-.17.6.126.126,0,0,1-.107.141h-.017" transform="translate(-406.807 -385.987)" fill="#5779aa"/>
    <path id="Path_12451" data-name="Path 12451" d="M242.289,216.959a.125.125,0,0,1-.1-.047l-1.18-1.462a2.507,2.507,0,0,0-.872-.788.125.125,0,1,1,.1-.23,2.7,2.7,0,0,1,.967.861l1.022,1.266a10.848,10.848,0,0,0,.213-2.473.125.125,0,0,1,.113-.137.123.123,0,0,1,.137.113,10.685,10.685,0,0,1-.281,2.806.125.125,0,0,1-.1.088l-.025,0" transform="translate(-219.652 -195.757)" fill="#5779aa"/>
    <path id="Path_12452" data-name="Path 12452" d="M246.383,202.757a.3.3,0,0,1-.206-.077.125.125,0,0,1,.17-.184.1.1,0,0,0,.1-.009.531.531,0,0,0,.139-.16l.465-.7c.029-.043.061-.087.094-.133a1.048,1.048,0,0,0,.234-.448.125.125,0,0,1,.249.027,1.24,1.24,0,0,1-.28.569c-.031.042-.061.084-.088.124l-.465.7a.737.737,0,0,1-.216.235.374.374,0,0,1-.195.056" transform="translate(-225.209 -183.853)" fill="#5779aa"/>
    <path id="Path_12453" data-name="Path 12453" d="M261.174,196.333a1.733,1.733,0,0,1-.788-.188,4.452,4.452,0,0,1-2.037-2.821.125.125,0,1,1,.247-.044,4.233,4.233,0,0,0,1.9,2.641c.72.361,1.588.11,2.652-.767a.125.125,0,1,1,.159.194,3.533,3.533,0,0,1-2.136.986" transform="translate(-236.38 -176.751)" fill="#5779aa"/>
    <path id="Path_12454" data-name="Path 12454" d="M411.057,227.657h-8.119a.125.125,0,0,1-.125-.125v-1.6a.125.125,0,0,1,.251,0v1.472h7.868V224.66a1.79,1.79,0,0,0-1.788-1.788h-3.137a.125.125,0,1,1,0-.251h3.137a2.041,2.041,0,0,1,2.039,2.039v2.872a.125.125,0,0,1-.125.125" transform="translate(-368.563 -203.692)" fill="#5779aa"/>
    <path id="Path_12455" data-name="Path 12455" d="M495.841,228.482a.125.125,0,0,1-.125-.125V226.15c0-1.311-.8-2.378-1.788-2.378a.125.125,0,0,1,0-.251,2.393,2.393,0,0,1,2.039,2.628v2.206a.125.125,0,0,1-.125.125" transform="translate(-451.816 -204.517)" fill="#5779aa"/>
    <path id="Path_12456" data-name="Path 12456" d="M426.152,282.952h-5.073a1.555,1.555,0,0,1-1.553-1.553v-.635a.125.125,0,0,1,.251,0v.635a1.3,1.3,0,0,0,1.3,1.3h4.948v-1.938a.125.125,0,1,1,.251,0v2.063a.125.125,0,0,1-.125.125" transform="translate(-383.855 -256.776)" fill="#5779aa"/>
    <path id="Path_12457" data-name="Path 12457" d="M468.791,282.577h-2.644a.754.754,0,0,1-.753-.753v-.582a.125.125,0,0,1,.251,0v.582a.5.5,0,0,0,.5.5h2.518v-1.084a.125.125,0,0,1,.042-.093.126.126,0,0,1,.1-.031l2.414.264v-1.906l-3.11-.318a.125.125,0,1,1,.026-.249l3.222.33a.125.125,0,0,1,.112.125v2.16a.125.125,0,0,1-.139.125l-2.414-.264v1.07a.125.125,0,0,1-.125.125" transform="translate(-425.823 -255.191)" fill="#5779aa"/>
    <path id="Path_12458" data-name="Path 12458" d="M450.438,323.453h-3.292a.125.125,0,0,1-.125-.125v-3.007a.125.125,0,0,1,.125-.125h1.841a.125.125,0,0,1,0,.251h-1.715V323.2h3.167a.125.125,0,1,1,0,.251" transform="translate(-409.011 -292.971)" fill="#5779aa"/>
    <path id="Path_12459" data-name="Path 12459" d="M500.747,322.837a.125.125,0,0,1-.125-.125V320.32a.125.125,0,0,1,.251,0v2.392a.125.125,0,0,1-.125.125" transform="translate(-458.056 -292.97)" fill="#5779aa"/>
    <path id="Path_12460" data-name="Path 12460" d="M489.128,358.961h-2.537a.125.125,0,0,1-.125-.125v-4.009a.125.125,0,0,1,.251,0v3.883H489v-4.129h-.831a.125.125,0,1,1,0-.251h.956a.125.125,0,0,1,.125.125v4.38a.125.125,0,0,1-.125.125" transform="translate(-445.103 -324.202)" fill="#5779aa"/>
    <path id="Path_12461" data-name="Path 12461" d="M519.8,394.049h-4.3a.125.125,0,0,1-.125-.125v-.866a.125.125,0,0,1,.251,0v.741h4.053v-2.078h-3.934a.125.125,0,1,1,0-.251h4.06a.125.125,0,0,1,.125.125v2.329a.125.125,0,0,1-.125.125" transform="translate(-471.548 -358.184)" fill="#5779aa"/>
    <path id="Path_12462" data-name="Path 12462" d="M522.446,357.351a1.519,1.519,0,1,1,1.126-2.5.125.125,0,1,1-.191.163,1.27,1.27,0,1,0,.292.645.125.125,0,0,1,.248-.036,1.569,1.569,0,0,1-1.079,1.678,1.416,1.416,0,0,1-.4.056" transform="translate(-476.613 -324.2)" fill="#5779aa"/>
    <path id="Path_12463" data-name="Path 12463" d="M551.779,318.805a.125.125,0,0,1-.092-.21l.922-1-.031-2.213-.9-.191a.125.125,0,0,1-.1-.122l-.013-2.238c0-.4-.079-.671-.211-.745-.1-.054-.176-.073-.211-.052-.1.062-.085.419-.079.572,0,.04,0,.077,0,.108l.031,2.14a.125.125,0,0,1-.1.125l-.53.1a.125.125,0,0,1-.048-.246l.427-.084-.029-2.035c0-.029,0-.064,0-.1-.012-.278-.027-.658.2-.8a.448.448,0,0,1,.464.047c.222.124.336.448.339.962l.013,2.137.9.191a.125.125,0,0,1,.1.121l.033,2.363a.125.125,0,0,1-.033.087l-.956,1.033a.125.125,0,0,1-.092.04" transform="translate(-503.53 -285.269)" fill="#5779aa"/>
    <path id="Path_12464" data-name="Path 12464" d="M566.107,383.633a.124.124,0,0,1-.08-.028.126.126,0,0,1-.017-.177l.929-1.131.045-2.089a.125.125,0,0,1,.251.005l-.046,2.133a.126.126,0,0,1-.028.077l-.956,1.164a.125.125,0,0,1-.1.046" transform="translate(-517.858 -347.768)" fill="#5779aa"/>
    <path id="Path_12465" data-name="Path 12465" d="M506.944,308.895h-.011l-1.764-.158a.125.125,0,0,1,.022-.25l1.72.154.651-.439a.125.125,0,0,1,.141.208l-.688.464a.125.125,0,0,1-.07.021" transform="translate(-462.111 -281.976)" fill="#5779aa"/>
    <path id="Path_12466" data-name="Path 12466" d="M109.93,550.056l-3.744,1.087-.52.151-.216-.2.518-.15,3.893-1.131a.125.125,0,1,1,.07.241" transform="translate(-96.484 -503.061)" fill="#5779aa"/>
  </g>
</svg>
