<svg id="morning" xmlns="http://www.w3.org/2000/svg" width="21.093" height="21" viewBox="0 0 21.093 21">
  <rect id="Rectangle_17716" data-name="Rectangle 17716" width="21" height="21" transform="translate(0)" fill="none"/>
  <path id="Path_13481" data-name="Path 13481" d="M21.092,9.326a1.109,1.109,0,0,1-1.221.781q-9.361-.012-18.723,0A1.145,1.145,0,0,1,.356,9.88.9.9,0,0,1,.038,8.9.9.9,0,0,1,.8,8.209a1.886,1.886,0,0,1,.348-.025q1.751,0,3.5,0h.215A13.735,13.735,0,0,1,5.31,6.857a5.468,5.468,0,0,1,4.4-3.374A5.551,5.551,0,0,1,15.5,6.223,4.937,4.937,0,0,1,16.183,8c.028.146.083.187.227.186,1.154-.006,2.307.01,3.46-.009a1.1,1.1,0,0,1,1.222.779v.371Z" transform="translate(0 4.681)" fill="#014e78"/>
  <path id="Path_13482" data-name="Path 13482" d="M10.127,8.955q3.429,0,6.857,0a1.8,1.8,0,0,1,.429.034.945.945,0,0,1,.717.979.96.96,0,0,1-.873.892c-.068.007-.137.006-.206.006H3.172a.969.969,0,0,1-1.031-.68.944.944,0,0,1,.82-1.22c.1-.009.206-.011.308-.011h6.857Z" transform="translate(0.852 6.932)" fill="#014e78"/>
  <path id="Path_13483" data-name="Path 13483" d="M6.832,1.886c0-.309-.012-.618,0-.926A.96.96,0,0,1,7.629.015.949.949,0,0,1,8.647.548a.684.684,0,0,1,.079.274c.007.727.043,1.456-.007,2.179a.926.926,0,0,1-1.445.67.973.973,0,0,1-.442-.858c0-.309,0-.618,0-.926h0Z" transform="translate(2.773 3.295)" fill="#014e78"/>
  <path id="Path_13484" data-name="Path 13484" d="M5.289,4.2a.982.982,0,0,1-.548.964.846.846,0,0,1-.984-.106c-.529-.488-1.041-1-1.527-1.527a.91.91,0,0,1,.075-1.252A.909.909,0,0,1,3.542,2.2c.537.489,1.045,1.011,1.541,1.543a1.326,1.326,0,0,1,.205.458Z" transform="translate(0.818 4.103)" fill="#014e78"/>
  <path id="Path_13485" data-name="Path 13485" d="M11.741,5.263a.978.978,0,0,1-.96-.557.85.85,0,0,1,.117-.983c.485-.522.989-1.029,1.514-1.512a.911.911,0,0,1,1.253.062.913.913,0,0,1,.079,1.253c-.485.531-1,1.036-1.528,1.526a1.376,1.376,0,0,1-.474.211Z" transform="translate(4.337 4.103)" fill="#014e78"/>
</svg>
