<svg xmlns="http://www.w3.org/2000/svg" width="21" height="21" viewBox="0 0 21 21">
  <g id="night" transform="translate(-3391 -2867)">
    <rect id="Rectangle_17975" data-name="Rectangle 17975" width="21" height="21" transform="translate(3391 2867)" fill="none"/>
    <g id="moon" transform="translate(3392.5 2868.5)">
      <rect id="Rectangle_17986" data-name="Rectangle 17986" width="18" height="18" fill="none"/>
      <path id="Path_17779" data-name="Path 17779" d="M8.791,0h.29A.562.562,0,0,1,9.5.259.528.528,0,0,1,9.319,1,6.434,6.434,0,0,0,6.376,5.986a6.062,6.062,0,0,0,0,.7A6.214,6.214,0,0,0,6.945,9a6.416,6.416,0,0,0,4.76,3.605,6.285,6.285,0,0,0,4.95-1.283.56.56,0,0,1,.437-.135.525.525,0,0,1,.356.214.487.487,0,0,1,.091.391,2.961,2.961,0,0,1-.122.363A9,9,0,0,1,9.174,18h-.36a8.916,8.916,0,0,1-3.353-.749,9.073,9.073,0,0,1-4.249-3.784A8.773,8.773,0,0,1,0,9.262v-.5A8.929,8.929,0,0,1,1.119,4.692q.167-.3.365-.6A9.087,9.087,0,0,1,5.126.9,8.961,8.961,0,0,1,8.791,0Z" fill="#014e78"/>
      <path id="Path_17780" data-name="Path 17780" d="M11.669,1.593a.533.533,0,0,1,.182-.4.539.539,0,0,1,.339-.136.5.5,0,0,1,.367.142.536.536,0,0,1,.171.393A1.616,1.616,0,0,0,14.265,3.2a.836.836,0,0,1,.256.045.5.5,0,0,1,.249.23.52.52,0,0,1,.054.315.484.484,0,0,1-.33.42,1.067,1.067,0,0,1-.276.043,1.524,1.524,0,0,0-.936.378,1.62,1.62,0,0,0-.563,1.2.515.515,0,0,1-.311.482.46.46,0,0,1-.287.033.509.509,0,0,1-.4-.3.826.826,0,0,1-.046-.26,1.576,1.576,0,0,0-.78-1.315,1.613,1.613,0,0,0-.762-.227A.818.818,0,0,1,9.876,4.2a.5.5,0,0,1-.253-.24.534.534,0,0,1-.055-.309.5.5,0,0,1,.146-.3.527.527,0,0,1,.367-.16l.106,0a1.567,1.567,0,0,0,1.228-.745,1.61,1.61,0,0,0,.25-.726S11.666,1.68,11.669,1.593Z" fill="#014e78"/>
      <circle id="Ellipse_333" data-name="Ellipse 333" cx="0.525" cy="0.525" r="0.525" transform="translate(15.893 1.057)" fill="#014e78"/>
      <path id="Path_17781" data-name="Path 17781" d="M18,5.785v.105a.55.55,0,0,1-.238.381.526.526,0,0,1-.4.072A.475.475,0,0,1,17,6.055a.524.524,0,0,1-.03-.356.48.48,0,0,1,.227-.308.523.523,0,0,1,.476-.038A.534.534,0,0,1,18,5.785Z" fill="#014e78"/>
    </g>
  </g>
</svg>
