<svg id="No_Appointment" xmlns="http://www.w3.org/2000/svg" width="256" height="256" viewBox="0 0 256 256">
  <rect id="Rectangle_17853" data-name="Rectangle 17853" width="256" height="256" fill="none"/>
  <path id="Path_14044" data-name="Path 14044" d="M30,131.4A102.4,102.4,0,1,0,132.4,29,102.4,102.4,0,0,0,30,131.4" transform="translate(-4.4 -4.253)" fill="rgba(1,78,120,0.1)"/>
  <path id="Path_14045" data-name="Path 14045" d="M102.653,63.556h78.965a13.653,13.653,0,0,1,13.653,13.653V182.194a13.653,13.653,0,0,1-13.653,13.653H102.653A13.653,13.653,0,0,1,89,182.194V77.209a13.653,13.653,0,0,1,13.653-13.653" transform="translate(-13.053 -9.322)" fill="#fff"/>
  <path id="Path_14046" data-name="Path 14046" d="M104.181,83.556h34.3a4.181,4.181,0,1,1,0,8.363h-34.3a4.181,4.181,0,1,1,0-8.363" transform="translate(-14.667 -12.255)" fill="#011625"/>
  <path id="Path_14047" data-name="Path 14047" d="M104.181,111.356h76.971a4.181,4.181,0,1,1,0,8.363H104.181a4.181,4.181,0,1,1,0-8.363" transform="translate(-14.667 -16.332)" fill="#d5d5d5"/>
  <path id="Path_14048" data-name="Path 14048" d="M104.181,139.156h76.971a4.181,4.181,0,1,1,0,8.363H104.181a4.181,4.181,0,1,1,0-8.363" transform="translate(-14.667 -20.41)" fill="#d5d5d5"/>
  <path id="Path_14049" data-name="Path 14049" d="M104.181,166.956h76.971a4.181,4.181,0,1,1,0,8.363H104.181a4.181,4.181,0,0,1,0-8.363" transform="translate(-14.667 -24.487)" fill="#d5d5d5"/>
  <path id="Path_14050" data-name="Path 14050" d="M104.181,194.756h76.971a4.181,4.181,0,1,1,0,8.363H104.181a4.181,4.181,0,0,1,0-8.363" transform="translate(-14.667 -28.564)" fill="#d5d5d5"/>
  <path id="Path_14051" data-name="Path 14051" d="M278.595,46.424H227.326A4.444,4.444,0,0,0,223,50.977v25.36a4.444,4.444,0,0,0,4.326,4.553h51.269a4.443,4.443,0,0,0,4.326-4.553V50.977a4.443,4.443,0,0,0-4.326-4.553" transform="translate(-32.707 -6.809)" fill="#fff"/>
  <path id="Path_14052" data-name="Path 14052" d="M237.12,71.24A5.12,5.12,0,1,0,232,66.12a5.12,5.12,0,0,0,5.12,5.12" transform="translate(-34.027 -8.947)" fill="#146795"/>
  <path id="Path_14053" data-name="Path 14053" d="M257.12,61h17.067a5.12,5.12,0,0,1,0,10.24H257.12a5.12,5.12,0,0,1,0-10.24" transform="translate(-36.96 -8.947)" fill="#d5d5d5"/>
  <path id="Path_14054" data-name="Path 14054" d="M175.943,207.23a53.085,53.085,0,0,0,29.692-9.023l34.73,33.154,12.6-14.614-33.513-31.991a53.337,53.337,0,1,0-43.5,22.474m45.49-53.333a45.153,45.153,0,1,1-45.153-45.152A45.154,45.154,0,0,1,221.434,153.9" transform="translate(-17.983 -14.749)" fill="#014e78" fill-rule="evenodd"/>
  <path id="Path_14055" data-name="Path 14055" d="M177.507,201.16A46.082,46.082,0,1,0,131,155.08a46.295,46.295,0,0,0,46.507,46.08" transform="translate(-19.213 -15.987)" fill="none"/>
  <path id="Path_14056" data-name="Path 14056" d="M189.8,159.333l11.255-11.211a5.837,5.837,0,0,0-.116-8.171,5.925,5.925,0,0,0-8.221-.116l-11.279,11.211-11.255-11.211a5.921,5.921,0,0,0-8.457-.119,5.839,5.839,0,0,0,.12,8.405l11.273,11.211-11.273,11.211a5.839,5.839,0,0,0-.12,8.405,5.922,5.922,0,0,0,8.457-.119l11.279-11.211,11.28,11.211a5.925,5.925,0,0,0,8.074-.26,5.836,5.836,0,0,0,.237-8.026Z" transform="translate(-23.467 -20.24)" fill="#014e78"/>
  <path id="Path_14057" data-name="Path 14057" d="M260.6,251.331l12.6-14.614,1.9,1.812a10.228,10.228,0,0,1,.645,13.929,9.189,9.189,0,0,1-6.484,3.224,9.1,9.1,0,0,1-6.752-2.546l-1.9-1.811Z" transform="translate(-38.221 -34.718)" fill="#146795"/>
  <path id="Path_14058" data-name="Path 14058" d="M49.081,86.684A16.136,16.136,0,0,0,48.608,83c-1.071-4.337-5.848-7.121-10.932-7.776s-10.367.835-12.4,4.608a7.14,7.14,0,0,0-.849,5.583,7.263,7.263,0,0,0,3.125,3.859c4.256,2.8,11.711,3.377,15.113,2.205a38.04,38.04,0,0,0,4.605-1.947c-.855,4.9-4.043,9.548-8.3,13.734-9.247,9.1-23.595,16-31.409,18.541a.837.837,0,0,0-.522,1.04.79.79,0,0,0,1,.548c7.969-2.589,22.6-9.641,32.026-18.918,4.872-4.791,8.342-10.186,8.935-15.857,11.012-6.145,20.055-17.294,27.787-26.677a.856.856,0,0,0-.084-1.172.775.775,0,0,0-1.123.088c-7.416,9-16.024,19.7-26.492,25.824m-1.6.892a14.534,14.534,0,0,0-.416-4.158c-.926-3.754-5.182-5.973-9.584-6.54a14.232,14.232,0,0,0-7.648.955,6.691,6.691,0,0,0-3.174,2.821,5.5,5.5,0,0,0-.719,4.262A5.619,5.619,0,0,0,28.4,87.869c3.879,2.557,10.667,3.1,13.763,2.033a37.447,37.447,0,0,0,5.321-2.326" transform="translate(-1.027 -8.884)" fill="#011625" fill-rule="evenodd"/>
  <path id="Path_14059" data-name="Path 14059" d="M284.12,178a5.12,5.12,0,1,1-5.12,5.12,5.12,5.12,0,0,1,5.12-5.12" transform="translate(-40.92 -26.107)" fill="#014e78"/>
  <path id="Path_14060" data-name="Path 14060" d="M57.977,223.756a8.349,8.349,0,0,0,2.617-1.457,5.065,5.065,0,0,0,1.479-2.853c.309-1.364.433-2.817.807-4.183a1.309,1.309,0,0,1,.52-.784,1.225,1.225,0,0,1,.857-.251,1.244,1.244,0,0,1,1.069.73,1.549,1.549,0,0,1,.133.38c.026.126.044.52.073.683.071.4.13.8.186,1.2a11.749,11.749,0,0,0,.877,3.707c.794,1.67,1.591,2.691,2.67,3.145a6.514,6.514,0,0,0,3.887.012q.228-.058.451-.1a1.319,1.319,0,0,1,1.514,1.094A1.383,1.383,0,0,1,74.11,226.7q-.218.051-.43.1a13.74,13.74,0,0,0-6.1,4.32c-.446.541-1.1,2.054-1.768,3.018a3.514,3.514,0,0,1-1.511,1.347,1.3,1.3,0,0,1-.79.038,1.332,1.332,0,0,1-.777-.547,1.6,1.6,0,0,1-.259-.633,4.941,4.941,0,0,1-.025-.6c-.137-.492-.3-.973-.424-1.47a8.523,8.523,0,0,0-1.531-2.927,5.334,5.334,0,0,0-2.3-1.976c-.129-.033-1.172-.3-1.539-.456a1.678,1.678,0,0,1-.887-.809,1.622,1.622,0,0,1-.143-.9,1.5,1.5,0,0,1,.487-.947,1.682,1.682,0,0,1,.783-.391,10.167,10.167,0,0,1,1.084-.1m6.116-1.932c.048.113.1.227.154.342,1.163,2.446,2.464,3.812,4.047,4.474l.053.021A18.009,18.009,0,0,0,65.6,229.3a16.119,16.119,0,0,0-1.132,1.9,11.838,11.838,0,0,0-1.837-3.473,7.992,7.992,0,0,0-2.053-2.14,9.044,9.044,0,0,0,1.713-1.175,6.863,6.863,0,0,0,1.8-2.586" transform="translate(-8.156 -31.419)" fill="#417ba4" fill-rule="evenodd"/>
</svg>
