<svg id="notification" xmlns="http://www.w3.org/2000/svg" width="28" height="28" viewBox="0 0 28 28">
  <rect id="back" width="28" height="28" rx="6" fill="none"/>
  <g id="notification-2" data-name="notification" transform="translate(2.732 2)">
    <rect id="Rectangle_3" data-name="Rectangle 3" width="24" height="24" rx="5" transform="translate(-0.732 0)" fill="none"/>
    <path id="notification-3" data-name="notification" d="M10.332.972c.077-.609.413-.959.909-.972A.942.942,0,0,1,12.2.9a18.107,18.107,0,0,1,2.089.568,8.914,8.914,0,0,1,5.891,7.5c.122.9.032,1.824.074,2.735a10.074,10.074,0,0,0,.194,1.765,4.02,4.02,0,0,0,1.194,2,2.789,2.789,0,0,1-1.964,4.83H15.794A4.747,4.747,0,0,1,13.665,23.3a4.426,4.426,0,0,1-2.632.693,4.746,4.746,0,0,1-4.3-3.687H2.821A2.788,2.788,0,0,1,.88,15.491a4.333,4.333,0,0,0,1.371-2.783c.074-.83.035-1.671.036-2.507A8.919,8.919,0,0,1,6.876,2.116,8.605,8.605,0,0,1,10.333.971Zm.928,17.489h8.446a.883.883,0,0,0,.9-.583.868.868,0,0,0-.218-1.026,4.64,4.64,0,0,1-.335-.358,6.545,6.545,0,0,1-1.659-4.57,21.752,21.752,0,0,0-.06-2.85A7.111,7.111,0,0,0,4.311,8.435a21.421,21.421,0,0,0-.176,2.9c-.025.536.008,1.078-.052,1.61a6.537,6.537,0,0,1-1.94,3.927,1.02,1.02,0,0,0-.274.545.911.911,0,0,0,.974,1.048q4.209,0,8.417,0ZM8.687,20.317a2.781,2.781,0,0,0,2.725,1.833,2.731,2.731,0,0,0,2.42-1.833H8.687Z" fill="#014e78"/>
  </g>
</svg>
