<svg xmlns="http://www.w3.org/2000/svg" xmlns:xlink="http://www.w3.org/1999/xlink" width="1080" height="1080" viewBox="0 0 1080 1080">
  <defs>
    <clipPath id="clip-path">
      <rect id="Rectangle_17881" data-name="Rectangle 17881" width="645.4" height="185.577" fill="#b3d2e2"/>
    </clipPath>
    <clipPath id="clip-placeholder">
      <rect width="1080" height="1080"/>
    </clipPath>
  </defs>
  <g id="placeholder" clip-path="url(#clip-placeholder)">
    <rect width="1080" height="1080" fill="#fff"/>
    <rect id="Rectangle_17878" data-name="Rectangle 17878" width="1080" height="1080" fill="#f8fdff"/>
    <g id="placeholder-2" data-name="placeholder" transform="translate(217.3 447.212)">
      <g id="Group_17040" data-name="Group 17040" transform="translate(0 0)" clip-path="url(#clip-path)">
        <path id="Path_17224" data-name="Path 17224" d="M71.7,15.326c-1.291,1.08-13.082,10.3-28.621.7A11.42,11.42,0,1,0,31.061,35.445a48.838,48.838,0,0,0,25.953,7.708c13.392,0,24.314-5.858,29.7-10.612a11.492,11.492,0,0,0,1.055-16.172A11.36,11.36,0,0,0,71.7,15.326" transform="translate(292.645 142.427)" fill="#b3d2e2"/>
        <path id="Path_17225" data-name="Path 17225" d="M47.124,10.586a13.233,13.233,0,0,0-9.644,3.972,12.938,12.938,0,0,0-4.021,9.594,12.865,12.865,0,0,0,4.021,9.507,13.233,13.233,0,0,0,9.644,3.972,13.51,13.51,0,0,0,9.693-3.922A12.765,12.765,0,0,0,60.9,24.152a12.985,12.985,0,0,0-4.021-9.594,13.384,13.384,0,0,0-9.755-3.972" transform="translate(381.819 120.805)" fill="#b3d2e2"/>
        <path id="Path_17226" data-name="Path 17226" d="M34.586,10.586a13.233,13.233,0,0,0-9.644,3.972,12.938,12.938,0,0,0-4.021,9.594,12.865,12.865,0,0,0,4.021,9.507,13.233,13.233,0,0,0,9.644,3.972,13.56,13.56,0,0,0,9.706-3.922,12.8,12.8,0,0,0,4.071-9.557,12.985,12.985,0,0,0-4.021-9.594,13.384,13.384,0,0,0-9.755-3.972" transform="translate(238.741 120.805)" fill="#b3d2e2"/>
        <path id="Path_17227" data-name="Path 17227" d="M18.97,10.375a13.233,13.233,0,0,0-9.644,3.972,12.938,12.938,0,0,0-4.021,9.594,12.865,12.865,0,0,0,4.021,9.507A13.233,13.233,0,0,0,18.97,37.42,13.56,13.56,0,0,0,28.676,33.5a12.8,12.8,0,0,0,4.071-9.557,12.985,12.985,0,0,0-4.021-9.594,13.384,13.384,0,0,0-9.755-3.972" transform="translate(60.538 118.397)" fill="#b3d2e2"/>
        <path id="Path_17228" data-name="Path 17228" d="M21.336,10.375a13.233,13.233,0,0,0-9.644,3.972,12.938,12.938,0,0,0-4.021,9.594,12.865,12.865,0,0,0,4.021,9.507,13.233,13.233,0,0,0,9.644,3.972A13.559,13.559,0,0,0,31.042,33.5a12.8,12.8,0,0,0,4.071-9.557,12.985,12.985,0,0,0-4.021-9.594,13.384,13.384,0,0,0-9.755-3.972" transform="translate(87.538 118.397)" fill="#b3d2e2"/>
        <path id="Path_17229" data-name="Path 17229" d="M483.728,70.547V96.81h-17.9q-11.655,0-17.736-6.429t-5.387-19.809l2.42-40.313h-30.16l2.408,40.313q.708,13.367-5.374,19.809-6.088,6.423-17.749,6.429h-6.231q-11.654,0-17.736-6.429T364.9,70.572l2.42-40.313H337.16l2.408,40.313q.707,13.367-5.374,19.809-6.088,6.423-17.749,6.429h-6.231q-11.654,0-17.736-6.429t-5.387-19.809l2.42-40.313h-30.16l2.408,40.313q.707,13.367-5.374,19.809Q250.3,96.8,238.649,96.81h-6.144q-11.654,0-17.786-6.429c-.335-.335-.67-.707-1.005-1.1l-32.171-75L176.616,0a290.077,290.077,0,0,0-31.761,6.442q-23.625,6.33-34.69,18.841-11.059,12.529-6.429,29.5a58.646,58.646,0,0,0,6.231,14.335,172.612,172.612,0,0,0,11.158,16.123l4.121,5.138q2.513,3.314,4.431,6.429H59.1q-11.654,0-18.7-3.624A21.6,21.6,0,0,1,30.148,81.929Q27.039,75.1,27.938,64.242,29.651,42.627,29.651,38.5H0q0,4.021,1.7,25.841,2.122,25.431,14.981,38.7Q30.346,117.32,59.1,117.314H165.756q-3.7-15.676-8.241-23.768A137.563,137.563,0,0,0,146.059,76.5l-4.121-5.225q-6.144-8.247-9.147-13.069a32.878,32.878,0,0,1-4.021-8.552,14.57,14.57,0,0,1,3.314-13.975q5.325-6.013,17.8-9.445c3.14-.807,6.231-1.44,9.247-1.911l32.965,75.9-.1.41a9.935,9.935,0,0,0,.707,1.005l.608,1.4.4-.1a32.71,32.71,0,0,0,9.656,8.651q9.439,5.716,22.812,5.722h12.474q16.178,0,24.525-6.032A30.864,30.864,0,0,0,273.526,98.92a33.888,33.888,0,0,0,12.362,12.461q9.849,5.939,19.71,5.933h10.848q16.2,0,24.538-6.032A30.864,30.864,0,0,0,351.334,98.92,33.888,33.888,0,0,0,363.7,111.381q9.849,5.939,19.71,5.933h10.848q16.2,0,24.525-6.032A30.8,30.8,0,0,0,429.142,98.92,33.888,33.888,0,0,0,441.5,111.381q9.849,5.939,19.7,5.933H577.509q23.532,0,35.894-11.456t12.362-32.171c0-11.17-2.83-20.8-8.415-28.944l28.05-4.456-6.715-29.4-35.05,10.9L508.774,43.924l.037-5.176,2.2-36.614-30.16.2.012.087h-.348L482.3,19.585l1.427,16.88V70.547Zm112.486,20.28q-5.939,5.976-18.7,5.982H507.347V70.274l.894-.211.335-.012v-.074l56.212-13.392L578.75,53.27c7.832-1.576,13.7-.422,17.562,3.475q5.827,5.883,5.833,16.942,0,11.152-5.933,17.14" transform="translate(0 0.003)" fill="#b3d2e2"/>
      </g>
    </g>
  </g>
</svg>
