<svg id="rating" xmlns="http://www.w3.org/2000/svg" width="15.001" height="15" viewBox="0 0 15.001 15">
  <rect id="Rectangle_17670" data-name="Rectangle 17670" width="15" height="15" fill="none"/>
  <path id="rating-2" data-name="rating" d="M7.493,0A1.52,1.52,0,0,1,8.9.886q.7,1.394,1.377,2.8a.328.328,0,0,0,.292.2q1.554.215,3.1.454a1.459,1.459,0,0,1,1.238,1.049,1.47,1.47,0,0,1-.389,1.594q-1.116,1.1-2.248,2.193a.312.312,0,0,0-.106.32c.184,1.029.357,2.06.529,3.092a1.553,1.553,0,0,1-2.251,1.641c-.894-.462-1.786-.929-2.671-1.408a.5.5,0,0,0-.549,0c-.866.473-1.743.926-2.617,1.385a1.506,1.506,0,0,1-1.69-.09,1.459,1.459,0,0,1-.631-1.461c.073-.534.176-1.063.267-1.595s.193-1.087.277-1.633a.315.315,0,0,0-.1-.226C1.982,8.449,1.21,7.713.456,6.958a1.531,1.531,0,0,1,.252-2.38,2,2,0,0,1,.726-.255c1.007-.162,2.017-.3,3.027-.441A.282.282,0,0,0,4.71,3.7Q5.4,2.3,6.1.892A1.517,1.517,0,0,1,7.493,0Z" transform="translate(-0.001 0.289)" fill="#fec42d"/>
</svg>
