<svg id="records" xmlns="http://www.w3.org/2000/svg" xmlns:xlink="http://www.w3.org/1999/xlink" width="24" height="24" viewBox="0 0 24 24">
  <defs>
    <clipPath id="clip-path">
      <rect id="Rectangle_1285" data-name="Rectangle 1285" width="24" height="24" transform="translate(1650 653)" fill="rgba(27,44,65,0.3)"/>
    </clipPath>
  </defs>
  <g id="records-2" data-name="records" transform="translate(-1650 -653)" clip-path="url(#clip-path)">
    <g id="Layer_1" data-name="Layer 1" transform="translate(1650 653.222)">
      <g id="record">
        <path id="Path_12749" data-name="Path 12749" d="M6.367,23.555c-.392,0-.544-.312-.65-.649L5.2,21.257l-.214-.679H.848c-.68,0-.847-.168-.847-.858,0-.111,0-.223,0-.334,0-.267,0-.542,0-.814a.594.594,0,0,1,.575-.657H.592a.6.6,0,0,1,.585.668c0,.181,0,.364.006.542,0,.085,0,.169,0,.254H17.839V2.743H7.129V4.017q0,1.213,0,2.427a1.583,1.583,0,1,1-3.16-.008c0-.855,0-1.554,0-2.2,0-.425.231-.7.584-.7h.016c.353.008.573.273.575.69,0,.391,0,.788,0,1.173q0,.514,0,1.028c0,.345.136.521.4.521s.4-.175.4-.52c0-.9,0-1.8,0-2.707V2.75H1.178v13.5c0,.212,0,.858-.584.858H.58C0,17.094,0,16.468,0,16.262V2.349c0-.619.182-.8.812-.8h3.14C4.182.578,4.732.065,5.547.064A1.627,1.627,0,0,1,7.142,1.551H9.694c.892,0,1.95,0,3.034,0a1.683,1.683,0,0,0,.488-.073c1-.31,2.012-.629,2.992-.938l1.464-.46a1.366,1.366,0,0,1,.4-.076c.331,0,.475.239.589.6l5.254,16.6a.857.857,0,0,1,.03.665c-.08.154-.246.259-.574.362l-1.075.339c-1.011.32-2.056.65-3.087.969-.153.047-.188.095-.185.254a.834.834,0,0,1-.166.633.635.635,0,0,1-.48.155c-.046,0-.1,0-.149-.006-.224-.017-.453-.026-.679-.026a11.811,11.811,0,0,0-3.913.744c-1.59.549-3.223,1.057-4.8,1.548-.668.207-1.358.422-2.035.636a1.466,1.466,0,0,1-.434.083Zm.389-1.325,5.21-1.642H6.247Zm12.3-3.86,3.613-1.118L19.053,5.786V18.369ZM5.928,1.537a.36.36,0,0,0-.371-.29H5.541a.352.352,0,0,0-.37.29Zm11.785,0-.066-.218-.678.218h.744Z" fill="rgba(27,44,65,0.3)"/>
        <path id="Path_12750" data-name="Path 12750" d="M15.384,10.168l-.085,0H3.649a.89.89,0,0,1-.161-.012A.584.584,0,0,1,3.487,9a.8.8,0,0,1,.149-.011H15.4A.792.792,0,0,1,15.545,9a.584.584,0,0,1,0,1.158.885.885,0,0,1-.161.012Z" fill="rgba(27,44,65,0.3)"/>
        <path id="Path_12751" data-name="Path 12751" d="M4.158,13.141H3.682a.761.761,0,0,1-.553-.2.549.549,0,0,1-.15-.4c.005-.362.273-.579.717-.579h6.325l1.918,0a.67.67,0,0,1,.484.184.558.558,0,0,1,.157.41.6.6,0,0,1-.653.58H4.158Z" fill="rgba(27,44,65,0.3)"/>
        <path id="Path_12752" data-name="Path 12752" d="M10.488,6.695H9.154c-.443,0-.712-.216-.72-.577a.542.542,0,0,1,.148-.4.8.8,0,0,1,.584-.2h6.167c.444,0,.713.215.72.576a.542.542,0,0,1-.148.4.8.8,0,0,1-.584.2H10.488Z" fill="rgba(27,44,65,0.3)"/>
        <path id="Path_12753" data-name="Path 12753" d="M6.543,16.115H3.692c-.444,0-.71-.22-.712-.585a.548.548,0,0,1,.153-.4.762.762,0,0,1,.555-.191h5.7c.444,0,.711.219.713.585a.546.546,0,0,1-.153.4.764.764,0,0,1-.555.193H6.543Z" fill="rgba(27,44,65,0.3)"/>
        <path id="Path_12754" data-name="Path 12754" d="M14.967,13.143c-.323,0-.642,0-.949-.006a.588.588,0,1,1,.014-1.173c.112,0,.231,0,.376,0h1.139l.348,0a.594.594,0,0,1,.655.577.558.558,0,0,1-.156.409.675.675,0,0,1-.484.188c-.322,0-.64,0-.943,0Z" fill="rgba(27,44,65,0.3)"/>
      </g>
    </g>
  </g>
</svg>
