<svg id="sidemenulogo" xmlns="http://www.w3.org/2000/svg" width="42" height="42" viewBox="0 0 42 42">
  <rect id="Rectangle_17844" data-name="Rectangle 17844" width="42" height="42" rx="21" fill="#fff"/>
  <g id="Group_17044" data-name="Group 17044" transform="translate(2.699 15.738)">
    <path id="Path_17224" data-name="Path 17224" d="M28.256,12.642a1.366,1.366,0,0,1-1.623.039.648.648,0,1,0-.681,1.1,2.77,2.77,0,0,0,1.472.437,2.65,2.65,0,0,0,1.684-.6.652.652,0,0,0,.06-.917.644.644,0,0,0-.912-.059" transform="translate(-7.593 -3.695)" fill="#014e78"/>
    <path id="Path_17225" data-name="Path 17225" d="M34.234,10.586a.75.75,0,0,0-.547.225.757.757,0,0,0,0,1.083.75.75,0,0,0,.547.225.766.766,0,0,0,.55-.222.724.724,0,0,0,.232-.542.736.736,0,0,0-.228-.544.759.759,0,0,0-.553-.225" transform="translate(-9.907 -3.134)" fill="#014e78"/>
    <path id="Path_17226" data-name="Path 17226" d="M21.7,10.586a.75.75,0,0,0-.547.225.757.757,0,0,0,0,1.083.75.75,0,0,0,.547.225.769.769,0,0,0,.55-.222.726.726,0,0,0,.231-.542.736.736,0,0,0-.228-.544.759.759,0,0,0-.553-.225" transform="translate(-6.195 -3.134)" fill="#014e78"/>
    <path id="Path_17227" data-name="Path 17227" d="M6.08,10.375a.75.75,0,0,0-.547.225.757.757,0,0,0,0,1.083.75.75,0,0,0,.547.225.769.769,0,0,0,.55-.222.726.726,0,0,0,.231-.542.736.736,0,0,0-.228-.544.759.759,0,0,0-.553-.225" transform="translate(-1.571 -3.072)" fill="#014e78"/>
    <path id="Path_17228" data-name="Path 17228" d="M8.446,10.375A.75.75,0,0,0,7.9,10.6a.757.757,0,0,0,0,1.083.75.75,0,0,0,.547.225A.769.769,0,0,0,9,11.686a.726.726,0,0,0,.231-.542A.736.736,0,0,0,9,10.6a.759.759,0,0,0-.553-.225" transform="translate(-2.271 -3.072)" fill="#014e78"/>
    <path id="Path_17229" data-name="Path 17229" d="M27.434,4V5.49H26.419a1.319,1.319,0,0,1-1.006-.365A1.468,1.468,0,0,1,25.107,4l.137-2.286h-1.71L23.671,4a1.47,1.47,0,0,1-.3,1.123,1.321,1.321,0,0,1-1.007.365h-.353A1.319,1.319,0,0,1,21,5.126,1.468,1.468,0,0,1,20.695,4l.137-2.286h-1.71L19.258,4a1.47,1.47,0,0,1-.3,1.123,1.321,1.321,0,0,1-1.007.365h-.353a1.319,1.319,0,0,1-1.006-.365A1.47,1.47,0,0,1,16.282,4l.137-2.286h-1.71L14.845,4a1.468,1.468,0,0,1-.3,1.123,1.32,1.32,0,0,1-1.006.365h-.348a1.329,1.329,0,0,1-1.009-.365c-.019-.019-.038-.04-.057-.063L10.3.809,10.017,0a16.451,16.451,0,0,0-1.8.365A3.909,3.909,0,0,0,6.248,1.434a1.7,1.7,0,0,0-.365,1.673,3.326,3.326,0,0,0,.353.813,9.789,9.789,0,0,0,.633.914l.234.291q.143.188.251.365h-4a2.326,2.326,0,0,1-1.061-.206,1.225,1.225,0,0,1-.581-.638,2.028,2.028,0,0,1-.125-1q.1-1.226.1-1.46H0q0,.228.1,1.466a3.466,3.466,0,0,0,.85,2.195,3.193,3.193,0,0,0,2.406.809H9.4a5.432,5.432,0,0,0-.467-1.348,7.8,7.8,0,0,0-.65-.966l-.234-.3Q7.7,3.575,7.531,3.3A1.865,1.865,0,0,1,7.3,2.816a.826.826,0,0,1,.188-.793A2.051,2.051,0,0,1,8.5,1.488c.178-.046.353-.082.524-.108l1.87,4.3-.006.023a.563.563,0,0,0,.04.057l.034.08.023-.006a1.855,1.855,0,0,0,.548.491,2.453,2.453,0,0,0,1.294.324h.707a2.363,2.363,0,0,0,1.391-.342,1.75,1.75,0,0,0,.587-.7,1.922,1.922,0,0,0,.7.707,2.147,2.147,0,0,0,1.118.336h.615a2.364,2.364,0,0,0,1.392-.342,1.75,1.75,0,0,0,.587-.7,1.922,1.922,0,0,0,.7.707,2.147,2.147,0,0,0,1.118.336h.615a2.36,2.36,0,0,0,1.391-.342,1.747,1.747,0,0,0,.588-.7,1.922,1.922,0,0,0,.7.707,2.147,2.147,0,0,0,1.117.336h6.6A2.892,2.892,0,0,0,34.788,6a2.366,2.366,0,0,0,.7-1.825,2.83,2.83,0,0,0-.477-1.641L36.6,2.285,36.222.617l-1.988.618-5.38,1.256,0-.294L28.981.121l-1.71.011v0h-.02l.1.973.081.957V4Zm6.379,1.15a1.443,1.443,0,0,1-1.061.339H28.773v-1.5l.051-.012h.019v0l3.188-.76.792-.188a1.04,1.04,0,0,1,1,.2,1.308,1.308,0,0,1,.331.961,1.321,1.321,0,0,1-.336.972" transform="translate(0 0)" fill="#014e78"/>
  </g>
</svg>
