<svg id="sortby" xmlns="http://www.w3.org/2000/svg" xmlns:xlink="http://www.w3.org/1999/xlink" width="20" height="20" viewBox="0 0 20 20">
  <defs>
    <clipPath id="clip-path">
      <rect id="Rectangle_1292" data-name="Rectangle 1292" width="18" height="18" transform="translate(327.579 123.579)" fill="#fff"/>
    </clipPath>
  </defs>
  <rect id="Rectangle_9" data-name="Rectangle 9" width="20" height="20" fill="none"/>
  <g id="Mask_Group_55" data-name="Mask Group 55" transform="translate(-326.579 -122.579)" clip-path="url(#clip-path)">
    <g id="Layer_1" data-name="Layer 1" transform="translate(327.579 124.107)">
      <g id="shortby">
        <path id="Path_13409" data-name="Path 13409" d="M17.9,5.71a.98.98,0,0,1-.852.573.837.837,0,0,1-.157-.015,1.365,1.365,0,0,1-.616-.316c-.278-.246-.544-.518-.8-.78-.109-.112-.222-.227-.334-.34-.038-.037-.077-.074-.128-.121l-.1-.09L14.8,4.517V14.7c0,.058,0,.119,0,.177a.936.936,0,0,1-1,1.008h-.013a.935.935,0,0,1-.984-1.037c0-2.419,0-4.877,0-7.255V4.539l-.109.093-.073.06a1.318,1.318,0,0,0-.113.1c-.136.135-.272.272-.4.406-.265.269-.539.546-.817.808a1.007,1.007,0,0,1-.7.284,1,1,0,0,1-.965-.807.967.967,0,0,1,.322-.931c.81-.808,1.691-1.689,2.774-2.774a2.851,2.851,0,0,0,.238-.267,1.043,1.043,0,0,1,1.677-.01,3.521,3.521,0,0,0,.272.3l1.079,1.079c.556.556,1.13,1.13,1.693,1.7A.951.951,0,0,1,17.9,5.71Z" fill="#014e78"/>
        <path id="Path_13410" data-name="Path 13410" d="M7.339,1.636A1.573,1.573,0,0,0,5.7,0C5.075,0,4.412,0,3.732,0L1.654,0A1.65,1.65,0,0,0,.464.462,1.648,1.648,0,0,0,0,1.649c0,.466,0,.939,0,1.4q0,.313,0,.626C0,3.882,0,4.1,0,4.31c0,.462,0,.941,0,1.412a1.566,1.566,0,0,0,1.626,1.62c.636,0,1.305,0,1.989,0s1.348,0,2.083,0A1.572,1.572,0,0,0,7.339,5.708c.005-1.366.005-2.737,0-4.073ZM5.324,5.319h-3.3v-3.3h3.3v3.3Z" fill="#014e78"/>
        <path id="Path_13411" data-name="Path 13411" d="M7.34,11.246a1.635,1.635,0,0,0-.462-1.185A1.653,1.653,0,0,0,5.687,9.6l-1.954,0-2.068,0A1.577,1.577,0,0,0,0,11.262c0,1.362,0,2.716,0,4.024a1.58,1.58,0,0,0,1.666,1.658H4.917c.258,0,.515,0,.773,0a1.586,1.586,0,0,0,1.65-1.647c0-1.377,0-2.74,0-4.049ZM5.32,14.928h-3.3v-3.3h3.3v3.3Z" fill="#014e78"/>
      </g>
    </g>
  </g>
</svg>
