<svg id="specialities" xmlns="http://www.w3.org/2000/svg" width="18" height="18" viewBox="0 0 18 18">
  <rect id="Rectangle_17689" data-name="Rectangle 17689" width="18" height="18" fill="none"/>
  <path id="Path_13692" data-name="Path 13692" d="M15.983,10.2H15.32a.6.6,0,0,0-.6.6v.28a3.8,3.8,0,0,1-4.054,3.788,3.886,3.886,0,0,1-3.536-3.919v-.2c1.789-.327,4.83-1.794,5.25-7.936a1.875,1.875,0,0,0-.509-1.42,2.044,2.044,0,0,0-1.49-.64h-.145a1.686,1.686,0,1,0,0,1.868h.145a.15.15,0,0,1,.135.061c-.276,3.993-1.85,6.287-4.32,6.287S2.144,6.674,1.868,2.686c0-.014.047-.065.135-.065h.285a1.686,1.686,0,1,0,0-1.868H2a2.036,2.036,0,0,0-1.49.64A1.88,1.88,0,0,0,0,2.807c.425,6.147,3.461,7.613,5.25,7.936v.168a5.774,5.774,0,0,0,5.119,5.806,5.672,5.672,0,0,0,6.212-5.638V10.8a.6.6,0,0,0-.6-.6Z" transform="translate(0.004 0.629)" fill="#014e78"/>
  <path id="Path_13693" data-name="Path 13693" d="M17.978,5.633a2.156,2.156,0,0,0-2.326-1.8,2.156,2.156,0,0,0-2.326,1.8h-.009v.532A1.864,1.864,0,0,0,14.6,7.823c0,.033-.014.07-.019.1h0v.243a.984.984,0,0,0,1.074.859.984.984,0,0,0,1.074-.859V7.926h0a.364.364,0,0,0-.019-.1A1.876,1.876,0,0,0,18,6.165V5.633h-.009Zm-2.326.813a.859.859,0,0,1-.934-.747.859.859,0,0,1,.934-.747.859.859,0,0,1,.934.747A.859.859,0,0,1,15.652,6.446Z" transform="translate(0.004 0.629)" fill="#014e78"/>
</svg>
