<svg id="splashlogo" xmlns="http://www.w3.org/2000/svg" xmlns:xlink="http://www.w3.org/1999/xlink" width="245.483" height="70.586" viewBox="0 0 245.483 70.586">
  <defs>
    <clipPath id="clip-path">
      <rect id="Rectangle_17880" data-name="Rectangle 17880" width="245.483" height="70.586" fill="none"/>
    </clipPath>
  </defs>
  <g id="Group_17039" data-name="Group 17039" clip-path="url(#clip-path)">
    <path id="Path_17218" data-name="Path 17218" d="M43.161,13.563c-.491.411-4.976,3.918-10.886.264a4.344,4.344,0,1,0-4.57,7.388,18.576,18.576,0,0,0,9.871,2.932,17.771,17.771,0,0,0,11.3-4.036,4.371,4.371,0,0,0,.4-6.151,4.321,4.321,0,0,0-6.113-.4" transform="translate(95.419 46.44)" fill="#fff"/>
    <path id="Path_17219" data-name="Path 17219" d="M38.657,10.586A5.033,5.033,0,0,0,34.989,12.1a5.078,5.078,0,0,0,0,7.265,5.033,5.033,0,0,0,3.668,1.511,5.139,5.139,0,0,0,3.687-1.492A4.855,4.855,0,0,0,43.9,15.746a4.939,4.939,0,0,0-1.53-3.649,5.091,5.091,0,0,0-3.711-1.511" transform="translate(124.495 39.39)" fill="#fff"/>
    <path id="Path_17220" data-name="Path 17220" d="M26.119,10.586A5.033,5.033,0,0,0,22.451,12.1a5.078,5.078,0,0,0,0,7.265,5.033,5.033,0,0,0,3.668,1.511,5.157,5.157,0,0,0,3.692-1.492,4.868,4.868,0,0,0,1.548-3.635,4.939,4.939,0,0,0-1.53-3.649,5.091,5.091,0,0,0-3.711-1.511" transform="translate(77.843 39.39)" fill="#fff"/>
    <path id="Path_17221" data-name="Path 17221" d="M10.5,10.375a5.033,5.033,0,0,0-3.668,1.511,5.079,5.079,0,0,0,0,7.265A5.033,5.033,0,0,0,10.5,20.662a5.157,5.157,0,0,0,3.692-1.492,4.868,4.868,0,0,0,1.548-3.635,4.939,4.939,0,0,0-1.53-3.649A5.091,5.091,0,0,0,10.5,10.375" transform="translate(19.739 38.605)" fill="#fff"/>
    <path id="Path_17222" data-name="Path 17222" d="M12.869,10.375A5.033,5.033,0,0,0,9.2,11.886a5.079,5.079,0,0,0,0,7.265,5.033,5.033,0,0,0,3.668,1.511A5.157,5.157,0,0,0,16.56,19.17a4.868,4.868,0,0,0,1.548-3.635,4.939,4.939,0,0,0-1.53-3.649,5.091,5.091,0,0,0-3.711-1.511" transform="translate(28.542 38.605)" fill="#fff"/>
    <path id="Path_17223" data-name="Path 17223" d="M183.989,26.833v9.989h-6.807q-4.433,0-6.746-2.445t-2.049-7.534l.921-15.333H157.836l.916,15.333q.269,5.084-2.044,7.534t-6.751,2.445h-2.37q-4.433,0-6.746-2.445t-2.049-7.534l.921-15.333H128.241l.916,15.333q.269,5.084-2.044,7.534t-6.751,2.445h-2.37q-4.433,0-6.746-2.445T109.2,26.843l.921-15.333H98.646l.916,15.333q.269,5.084-2.044,7.534t-6.746,2.445H88.435q-4.433,0-6.765-2.445c-.127-.127-.255-.269-.382-.42L69.052,5.429,67.177,0A110.334,110.334,0,0,0,55.1,2.45Q46.111,4.858,41.9,9.616a11.432,11.432,0,0,0-2.445,11.221,22.306,22.306,0,0,0,2.37,5.453,65.656,65.656,0,0,0,4.244,6.132l1.567,1.954q.956,1.26,1.685,2.445H22.481a15.6,15.6,0,0,1-7.114-1.378,8.218,8.218,0,0,1-3.9-4.282,13.6,13.6,0,0,1-.84-6.727q.651-8.221.651-9.791H0q0,1.53.647,9.829.807,9.673,5.7,14.72,5.2,5.431,16.136,5.429H63.047a36.427,36.427,0,0,0-3.135-9.04A52.323,52.323,0,0,0,55.555,29.1l-1.567-1.987q-2.337-3.137-3.479-4.971a12.506,12.506,0,0,1-1.53-3.253,5.542,5.542,0,0,1,1.26-5.316q2.025-2.287,6.77-3.593c1.194-.307,2.37-.548,3.517-.727L73.064,38.121l-.038.156a3.777,3.777,0,0,0,.269.382l.231.533.151-.038a12.442,12.442,0,0,0,3.673,3.29,16.453,16.453,0,0,0,8.677,2.176h4.744q6.154,0,9.328-2.294a11.739,11.739,0,0,0,3.937-4.7,12.89,12.89,0,0,0,4.7,4.74,14.4,14.4,0,0,0,7.5,2.257h4.126q6.161,0,9.333-2.294a11.739,11.739,0,0,0,3.937-4.7,12.89,12.89,0,0,0,4.7,4.74,14.4,14.4,0,0,0,7.5,2.257h4.126q6.161,0,9.328-2.294a11.713,11.713,0,0,0,3.942-4.7,12.89,12.89,0,0,0,4.7,4.74,14.4,14.4,0,0,0,7.492,2.257H219.66q8.951,0,13.653-4.357t4.7-12.236a18.977,18.977,0,0,0-3.2-11.009l10.669-1.695L242.929,4.14,229.6,8.285l-36.081,8.422.014-1.969L194.366.812,182.894.888l0,.033h-.132l.68,6.529.543,6.42V26.833Zm42.785,7.714q-2.259,2.273-7.114,2.275H192.973V26.729l.34-.08.127,0v-.028l21.381-5.094,5.311-1.26c2.979-.6,5.212-.161,6.68,1.322a8.774,8.774,0,0,1,2.219,6.444,8.86,8.86,0,0,1-2.257,6.519" transform="translate(0 0.001)" fill="#fff"/>
  </g>
</svg>
