<svg id="st_language" xmlns="http://www.w3.org/2000/svg" width="20" height="20" viewBox="0 0 20 20">
  <rect id="icon" width="20" height="20" fill="none"/>
  <path id="Path_14142" data-name="Path 14142" d="M7.223,16.6a.028.028,0,0,0-.028-.028H2.356a2.844,2.844,0,0,1-.7-.061,1.449,1.449,0,0,1-.842-.619,1.516,1.516,0,0,1-.239-.607c-.012-.081-.016-.291-.016-.644V1.919a1.558,1.558,0,0,1,.186-.761A1.492,1.492,0,0,1,1.259.607,1.656,1.656,0,0,1,2.154.364h6.53A1.426,1.426,0,0,1,9.83.879a1.716,1.716,0,0,1,.324.575,3.894,3.894,0,0,1,.121.64q.1.765.194,1.555a.027.027,0,0,0,.028.024q3.832,0,7.648,0a1.975,1.975,0,0,1,2.02,2q.006,6.334.008,12.664a1.982,1.982,0,0,1-1.737,2.02c-.073.008-.344.012-.81.012H9.765c-.429,0-.664,0-.7,0a2.215,2.215,0,0,1-.462-.089,1.819,1.819,0,0,1-.425-.194,1.95,1.95,0,0,1-.96-1.8C7.227,17.713,7.227,17.154,7.223,16.6ZM1.3,1.356a.949.949,0,0,0-.17.547v12.7a4.137,4.137,0,0,0,.028.664.937.937,0,0,0,.4.571.8.8,0,0,0,.275.126A1.21,1.21,0,0,0,2.138,16h9.271a.032.032,0,0,0,.032-.032v0Q10.573,9.008,9.7,2.036a2.223,2.223,0,0,0-.057-.324,1.29,1.29,0,0,0-.126-.3A.9.9,0,0,0,8.955.964,4.051,4.051,0,0,0,8.279.931H2.389A2.279,2.279,0,0,0,1.8.98.9.9,0,0,0,1.3,1.356Zm7.36,18.328a1.516,1.516,0,0,0,.563.113h8.575a3.747,3.747,0,0,0,.806-.057,1.284,1.284,0,0,0,.7-.474,1.422,1.422,0,0,0,.308-.887V5.668a1.385,1.385,0,0,0-.134-.623A1.368,1.368,0,0,0,18.6,4.3a2.534,2.534,0,0,0-.648-.057q-3.68,0-7.385,0a.023.023,0,0,0-.024.024v0q.741,5.915,1.474,11.818a1.437,1.437,0,0,1,.02.223.345.345,0,0,1-.109.211q-1.621,1.561-3.279,3.138a.02.02,0,0,0,0,.028Zm2.36-3.077c.028-.028.02-.04-.016-.04H7.818a.028.028,0,0,0-.028.028h0v1.753a1.548,1.548,0,0,0,.324.943.062.062,0,0,0,.081.012l0,0Z" transform="translate(-0.366 -0.364)" fill="#014e78"/>
  <path id="Path_14143" data-name="Path 14143" d="M6.441,5.433a.256.256,0,0,1,.13.15.214.214,0,0,0,.024.053Q8.423,9.577,9.142,11.15a.259.259,0,0,1,.012.19.283.283,0,0,1-.105.146.278.278,0,0,1-.34,0,.32.32,0,0,1-.109-.154,1.076,1.076,0,0,0-.057-.134c-.235-.5-.47-1.012-.713-1.534a.05.05,0,0,0-.045-.028H4.81a.045.045,0,0,0-.04.024c-.259.575-.522,1.142-.785,1.709a.275.275,0,0,1-.178.15.258.258,0,0,1-.328-.126.28.28,0,0,1,0-.271Q5.581,6.555,6.036,5.579A.277.277,0,0,1,6.441,5.433Zm-.15.943L5.061,9.036a.019.019,0,0,0,.008.024h.008l2.445,0a.019.019,0,0,0,.02-.02V9.036L6.312,6.368C6.3,6.36,6.3,6.36,6.291,6.377Z" transform="translate(-0.366 -0.364)" fill="#014e78"/>
  <path id="Path_14144" data-name="Path 14144" d="M15.672,9.753c.749,0,1.5,0,2.243,0a.3.3,0,0,1,.215.077.291.291,0,0,1,.089.19.245.245,0,0,1-.113.243.491.491,0,0,1-.235.053q-.425.006-.85,0a.036.036,0,0,0-.036.036,5.97,5.97,0,0,1-1.239,3.377.044.044,0,0,0,0,.061,3.339,3.339,0,0,0,.818.543,2.022,2.022,0,0,0,.777.186.324.324,0,0,1,.267.121.281.281,0,0,1,.04.255.275.275,0,0,1-.316.19,2.821,2.821,0,0,1-1.474-.49,5.51,5.51,0,0,1-.51-.4.032.032,0,0,0-.045,0,3.818,3.818,0,0,1-.668.506,2.711,2.711,0,0,1-1.291.385.418.418,0,0,1-.235-.045A.257.257,0,0,1,13,14.9a.272.272,0,0,1,0-.17.293.293,0,0,1,.308-.211,2.119,2.119,0,0,0,1.057-.316,3.314,3.314,0,0,0,.551-.413.039.039,0,0,0,0-.057,5.726,5.726,0,0,1-1.105-2.352.467.467,0,0,1-.008-.194.244.244,0,0,1,.134-.162.265.265,0,0,1,.389.121,1.12,1.12,0,0,1,.073.243,5.163,5.163,0,0,0,.907,1.923.027.027,0,0,0,.04,0,0,0,0,0,0,0,0,5.449,5.449,0,0,0,1.065-2.964.023.023,0,0,0-.02-.024H12.834a.359.359,0,0,1-.243-.081.274.274,0,0,1-.089-.211.25.25,0,0,1,.121-.223.407.407,0,0,1,.231-.057.687.687,0,0,1,.077,0h2.113a.032.032,0,0,0,.032-.032c0-.166,0-.32,0-.453a.3.3,0,0,1,.109-.263.269.269,0,0,1,.247-.049.258.258,0,0,1,.182.154.6.6,0,0,1,.028.223c0,.134,0,.267,0,.4a.06.06,0,0,0,.028.012Z" transform="translate(-0.366 -0.364)" fill="#014e78"/>
</svg>
