<svg id="st_notification" xmlns="http://www.w3.org/2000/svg" width="20" height="20" viewBox="0 0 20 20">
  <rect id="icon" width="20" height="20" transform="translate(0 0)" fill="none"/>
  <path id="Path_14140" data-name="Path 14140" d="M19.624,16.124a2.227,2.227,0,0,0-.273-.584c-.485-.727-.978-1.462-1.462-2.185a.241.241,0,0,1-.043-.143V7.9a6.874,6.874,0,0,0-.77-3.193,6.758,6.758,0,0,0-2.73-2.79,6.681,6.681,0,0,0-3.219-.848A7.1,7.1,0,0,0,9.349,1.3a5.781,5.781,0,0,0-.8.264A6.777,6.777,0,0,0,4.365,7.017a7.159,7.159,0,0,0-.043.844c-.009,1.743-.013,3.526-.009,5.3a.376.376,0,0,1-.074.234c-.459.679-.921,1.376-1.371,2.072a2.668,2.668,0,0,0-.307.584,1.708,1.708,0,0,0-.069.709,1.833,1.833,0,0,0,.264.744,1.662,1.662,0,0,0,1.012.735,2.345,2.345,0,0,0,.562.056c.783.009,1.575.009,2.358.009.528,0,1.064,0,1.592,0a.176.176,0,0,1,.177.169A2.66,2.66,0,0,0,9.146,20.2a2.769,2.769,0,0,0,.632.515,2.511,2.511,0,0,0,1.289.35,1.531,1.531,0,0,0,.2-.009,2.507,2.507,0,0,0,1.493-.606,2.78,2.78,0,0,0,.536-.614,2.647,2.647,0,0,0,.4-1.367.253.253,0,0,1,.017-.078.191.191,0,0,1,.169-.108.158.158,0,0,1,.078.017h0c1.311,0,2.639-.009,3.945-.009a1.752,1.752,0,0,0,1.043-.316,1.663,1.663,0,0,0,.722-1.246A1.8,1.8,0,0,0,19.624,16.124Zm-7.1,3.7a2,2,0,0,1-.606.441,1.952,1.952,0,0,1-.714.182c-.052,0-.1,0-.151,0a1.893,1.893,0,0,1-1.268-.48,2,2,0,0,1-.7-1.475V18.49a.183.183,0,0,1,.182-.182l3.621-.009H12.9a.175.175,0,0,1,.13.061.193.193,0,0,1,.052.134A2.019,2.019,0,0,1,12.524,19.827Zm6.329-2.587a1.06,1.06,0,0,1-.532.389,2.1,2.1,0,0,1-.588.056H4.153a1.026,1.026,0,0,1-.666-.247,1.075,1.075,0,0,1-.411-.835,1.106,1.106,0,0,1,.112-.515c.009-.017.022-.043.251-.389.649-.982,1.116-1.687,1.393-2.1a.738.738,0,0,0,.069-.125.258.258,0,0,0,.017-.108V7.908a6.284,6.284,0,0,1,.446-2.323A6.006,6.006,0,0,1,7.7,2.7a6.132,6.132,0,0,1,2.976-1c.138-.009.273-.013.411-.013a6.02,6.02,0,0,1,2.4.5,6.119,6.119,0,0,1,3.695,4.9,8.544,8.544,0,0,1,.043.883c.017,2.488.017,4.27.009,5.291a.715.715,0,0,0,.022.2.631.631,0,0,0,.087.164c.485.722.969,1.454,1.449,2.18a1.8,1.8,0,0,1,.26.523A1.073,1.073,0,0,1,18.854,17.24Z" transform="translate(-1.082 -1.069)" fill="#014e78"/>
</svg>
