<svg id="st_name" xmlns="http://www.w3.org/2000/svg" width="20" height="20" viewBox="0 0 20 20">
  <rect id="icon" width="20" height="20" fill="none"/>
  <path id="user_1_" data-name="user (1)" d="M2.846,6.362a9.622,9.622,0,0,1,4.57-4.115,9.961,9.961,0,0,1,4.463-.808A9.717,9.717,0,0,1,19.8,6a10.267,10.267,0,0,1,1.6,4.9,9.678,9.678,0,0,1-2.9,7.62,10.008,10.008,0,0,1-6.95,2.912q-.444.006-.892-.029a9.911,9.911,0,0,1-4.849-1.691,10.153,10.153,0,0,1-2.6-2.534q-.262-.366-.483-.752a9.59,9.59,0,0,1-1.3-5.057A10.231,10.231,0,0,1,2.846,6.362ZM2.833,8a9.467,9.467,0,0,0-.658,2.706,8.214,8.214,0,0,0-.035.891,8.988,8.988,0,0,0,2.117,5.739q.042.05.041-.015,0-.305,0-.608a3.337,3.337,0,0,1,.06-.6,3.247,3.247,0,0,1,1.6-2.243,4.39,4.39,0,0,1,.76-.325q1.445-.5,2.9-.968.08-.026,0-.064a3.677,3.677,0,0,1-1.852-2.124,3.737,3.737,0,0,1-.209-1.546,3.944,3.944,0,0,1,1.04-2.43A3.535,3.535,0,0,1,10.19,5.39a3.883,3.883,0,0,1,2.993.212,3.647,3.647,0,0,1,.745.488,3.8,3.8,0,0,1,1.077,1.491,4.042,4.042,0,0,1,.3,1.708,3.793,3.793,0,0,1-.142.879,3.7,3.7,0,0,1-1.941,2.352q-.051.026,0,.045l2.533.848q.7.235.842.3a3.19,3.19,0,0,1,1.424,1.208,3.308,3.308,0,0,1,.543,1.786q0,.313,0,.626,0,.048.031.011a8.885,8.885,0,0,0,2.126-5.94,7.919,7.919,0,0,0-.058-.891,9.569,9.569,0,0,0-2.731-5.693,8.049,8.049,0,0,0-.66-.6,9.04,9.04,0,0,0-6.69-2.032A8.7,8.7,0,0,0,6.958,3.274,9.3,9.3,0,0,0,2.833,8Zm6.52,3.466a3.2,3.2,0,0,0,1.513.731,3.024,3.024,0,0,0,1.835-.214,3.272,3.272,0,0,0,.756-.47,3.1,3.1,0,0,0,1.061-1.71,2.892,2.892,0,0,0,.081-.778,3.558,3.558,0,0,0-.116-.78,3.057,3.057,0,0,0-.836-1.46,2.942,2.942,0,0,0-.727-.513,3.268,3.268,0,0,0-2-.313,3.023,3.023,0,0,0-1.747.872,2.922,2.922,0,0,0-.525.718,3.376,3.376,0,0,0-.329.978,3.11,3.11,0,0,0,1.036,2.939Zm7.687,3.388a2.4,2.4,0,0,0-.874-.555q-.549-.191-3.22-1.084a4.7,4.7,0,0,0-3.04.015q-1.29.427-2.577.861-.693.234-.766.266a2.619,2.619,0,0,0-1.487,1.811,4.52,4.52,0,0,0-.063.889v.911s0,.027-.005.075a.18.18,0,0,0,.071.165l.05.04a9.206,9.206,0,0,0,5.746,2.461,8.042,8.042,0,0,0,.893.01,9.191,9.191,0,0,0,5.968-2.471l.052-.041a.177.177,0,0,0,.07-.163q-.005-.075-.005-.077v-.883a4.885,4.885,0,0,0-.055-.878A2.557,2.557,0,0,0,17.041,14.856Z" transform="translate(-1.431 -1.429)" fill="#014e78"/>
</svg>
