<svg id="tabibi_blue" xmlns="http://www.w3.org/2000/svg" xmlns:xlink="http://www.w3.org/1999/xlink" width="245.483" height="76" viewBox="0 0 245.483 76">
  <defs>
    <clipPath id="clip-path">
      <rect id="Rectangle_1291" data-name="Rectangle 1291" width="245.483" height="76" transform="translate(0 0)" fill="#014e78"/>
    </clipPath>
  </defs>
  <g id="Group_2326" data-name="Group 2326" transform="translate(0 0)" clip-path="url(#clip-path)">
    <path id="Path_12245" data-name="Path 12245" d="M241.493,14.919a19.79,19.79,0,0,0-4.116-4.743,16.722,16.722,0,0,0-4.81-2.721,17.682,17.682,0,0,0-7.732-.986,15.2,15.2,0,0,0-5.582,1.62,19.931,19.931,0,0,0-3.264,2.192c-5.443,4.42-7.262,11.153-7.762,13.192s-.792-.432-.792-.432a44.628,44.628,0,0,1,1.839-13.649C211.5,1.495,206.238.18,206.238.18s-4.993-1.407-6.49,3.634-.548,22.909-.548,22.909.456,4.846,1.071,8.876c-1.108,0-2.216-.006-3.324-.006-1.412,0-2.825.012-4.237.012a27.539,27.539,0,0,1-4.012-.073,6.724,6.724,0,0,1-2.807-1.145,5.784,5.784,0,0,1-2.35-3.5c-.372-1.662.158-3.385.408-5.028a15.632,15.632,0,0,0,.134-4.091,8.873,8.873,0,0,0-1.321-3.915,4.787,4.787,0,0,0-.664-.779,8.122,8.122,0,0,0-7.653-1.559c-2.5.67-4.882,2.539-5.041,5.291a13.734,13.734,0,0,0,.475,3.214c.493,2.8.688,6.2-.968,8.669-1.48,2.228-4.3,2.922-6.831,2.934-2.624.024-5.247.012-7.872.012-.359.006-.7.012-1.028,0h-.1a10.459,10.459,0,0,1-1.236-.1,6.728,6.728,0,0,1-2.807-1.145,5.784,5.784,0,0,1-2.35-3.5c-.372-1.662.158-3.385.408-5.028a15.6,15.6,0,0,0,.128-4.091,8.784,8.784,0,0,0-1.315-3.915,4.789,4.789,0,0,0-.664-.779,8.125,8.125,0,0,0-7.653-1.559c-2.5.67-4.882,2.539-5.046,5.291a14.049,14.049,0,0,0,.481,3.214c.493,2.8.688,6.2-.968,8.669-1.479,2.228-4.3,2.922-6.83,2.934-3.708.031-7.422.006-11.129.006l-8.152.03c-2.125,0-4.243-.012-6.368-.03a7.316,7.316,0,0,1-4.469-1.449,6.8,6.8,0,0,1-2.326-3.8,14.829,14.829,0,0,1-.116-7.318,2.655,2.655,0,0,0-1.437-3.275,9.638,9.638,0,0,0-2.143-.877,1.96,1.96,0,0,0-.3-.091c-.152-.042-.3-.073-.451-.1a3.356,3.356,0,0,0-.414-.067c-.243-.037-.493-.067-.731-.079a7.143,7.143,0,0,0-.718-.03,9.1,9.1,0,0,0-5.814,2,2.729,2.729,0,0,0-1.047,2.873,27.542,27.542,0,0,1,.548,4.651q.109,4.594-2.977,6.466-1.762,1.078-6.228,1.181-5.434.127-13.186.091a28.2,28.2,0,0,1-18.7-6.782,12.451,12.451,0,0,0-10.35-2.837,5.432,5.432,0,0,0-4.609,3.141,3.6,3.6,0,0,0,.3,3.428,8.479,8.479,0,0,0,4.645,3.75c1,.353,1.522.53,1.559.542a29.39,29.39,0,0,0,4.14,1.394,23.543,23.543,0,0,1,13.028,7.312,10.858,10.858,0,0,1,2.667,4.317q.968,3.661-3.811,4.815a15.782,15.782,0,0,1-5.29.371,35.37,35.37,0,0,1-19.658-8.279,21.07,21.07,0,0,1-7.452-13.6,12.353,12.353,0,0,0-1.2-4.371Q10.6,25.1,5.145,26.017q-5.652.951-5.1,6.776a30.9,30.9,0,0,0,4.542,13.68,35.907,35.907,0,0,0,9.8,9.99,46.046,46.046,0,0,0,27.335,8.56,29.452,29.452,0,0,0,14.666-3.616,7.442,7.442,0,0,0,4.243-6.484,9.722,9.722,0,0,0-1.267-4.858,17.384,17.384,0,0,0-3.044-4.152,41.024,41.024,0,0,0-8.438-6.441c-1.327-.786-1.224-1.169.329-1.157q11.89.128,24.913-.024a45.137,45.137,0,0,0,4.688-.268,30.818,30.818,0,0,0,4.639-.895,14.736,14.736,0,0,0,5.115-2.484,17.178,17.178,0,0,0,9.606,3.409c2.922.085,5.844.14,8.767.183q4.036.045,8.085.049h1.857c3.366,0,6.734.036,10.1-.019,2.563-.049,5.133-.17,7.689-.311a14.757,14.757,0,0,0,8.231-3.026l.031.031a11.155,11.155,0,0,0,3.6,2.575c2.472,1.071,5.285.779,7.908.774h1.991c.365,0,.724.006,1.084.006h.024c.524.006,1.053.006,1.577.006s1.053,0,1.577-.011,1.047-.024,1.571-.024,1.053-.006,1.577-.019c2.563-.049,5.132-.17,7.689-.311a14.759,14.759,0,0,0,8.231-3.026l.031.031a11.156,11.156,0,0,0,3.6,2.575c2.472,1.071,5.285.779,7.908.774,2.143-.006,4.292.006,6.441.024.177,0,.353,0,.53.006,1.047,0,2.094.006,3.148.018.116,0,.231.006.341.006.055.25.1.487.158.706.919,3.841,4.286,6.3,6.192,4.663s1.431-5.382,1.431-5.382l25.965.17s9.942-.408,10.891-9.558c.512-4.943-1.285-9.911-3.9-14.045M229.585,34.626a5.117,5.117,0,0,1-2.953,1.211,29.33,29.33,0,0,1-3.019.067c-.8.006-1.6,0-2.393,0H208.4c.183-1.139.274-2.265.566-3.392a19.551,19.551,0,0,1,1.126-3.178,19.76,19.76,0,0,1,3.793-5.559,14.312,14.312,0,0,1,4.9-3.366c.225-.091.451-.177.682-.25,4.682-1.5,9.223,1.711,11.129,5.912a6.216,6.216,0,0,1,.273.657c.919,2.484.835,6.021-1.29,7.9" transform="translate(0 0)" fill="#014e78"/>
    <path id="Path_12246" data-name="Path 12246" d="M227.256,60.127a2.564,2.564,0,1,1-3.064,2.52,2.834,2.834,0,0,1,3.064-2.52" transform="translate(-63.305 -16.978)" fill="#014e78"/>
    <path id="Path_12247" data-name="Path 12247" d="M102.693,60.127a2.564,2.564,0,1,1-3.064,2.52,2.834,2.834,0,0,1,3.064-2.52" transform="translate(-28.132 -16.978)" fill="#014e78"/>
    <path id="Path_12248" data-name="Path 12248" d="M165.16,60.114a2.567,2.567,0,1,1-3.074,2.5,2.827,2.827,0,0,1,3.074-2.5" transform="translate(-45.768 -16.974)" fill="#014e78"/>
    <path id="Path_12249" data-name="Path 12249" d="M174.6,60.123a2.571,2.571,0,1,1-3.085,2.515,2.842,2.842,0,0,1,3.085-2.515" transform="translate(-48.432 -16.977)" fill="#014e78"/>
    <path id="Path_12250" data-name="Path 12250" d="M51.49,98.819A2.6,2.6,0,1,1,51.5,103.9a2.6,2.6,0,1,1-.009-5.084" transform="translate(-13.656 -27.903)" fill="#014e78"/>
    <path id="Path_12251" data-name="Path 12251" d="M61.151,98.811a2.6,2.6,0,1,1-3.079,2.607,2.885,2.885,0,0,1,3.079-2.607" transform="translate(-16.398 -27.901)" fill="#014e78"/>
  </g>
</svg>
