<svg id="timeer" xmlns="http://www.w3.org/2000/svg" width="21" height="21" viewBox="0 0 21 21">
  <rect id="Rectangle_17714" data-name="Rectangle 17714" width="21" height="21" fill="none"/>
  <path id="Path_13460" data-name="Path 13460" d="M17.166,4.688A9.614,9.614,0,0,0,10.385,1.9h-.029A9.554,9.554,0,0,0,3.591,4.676,9.447,9.447,0,0,0,1.519,15.093a9.776,9.776,0,0,0,5.124,5.139A9.419,9.419,0,0,0,10.37,21h.007a9.408,9.408,0,0,0,3.717-.762,9.765,9.765,0,0,0,5.124-5.132A9.438,9.438,0,0,0,17.166,4.687ZM10.381,20.1h-.02a8.71,8.71,0,1,1,.02,0Z" transform="translate(0.127)" fill="#014e78"/>
  <path id="Path_13461" data-name="Path 13461" d="M4.366.47c-.006.109-.043.233-.279.4C2.883,1.726,1.8,2.5.787,3.23l-.044.032a2.133,2.133,0,0,1-.177.119l-.012,0H.5c-.351,0-.419-.121-.467-.266a.462.462,0,0,1,.146-.55C1.2,1.827,2.395.973,3.569.143A.587.587,0,0,1,3.9.019.5.5,0,0,1,4.15.091.37.37,0,0,1,4.366.47Z" transform="translate(0.127)" fill="#014e78"/>
  <path id="Path_13462" data-name="Path 13462" d="M20.661,3.226a.319.319,0,0,1-.287.149.616.616,0,0,1-.249-.058.917.917,0,0,1-.132-.07L19.64,3c-1-.71-2.027-1.443-3.036-2.169a.511.511,0,0,1-.16-.566A.49.49,0,0,1,16.825,0l.069.023a1.171,1.171,0,0,1,.238.095c1.207.845,2.41,1.708,3.428,2.44a.492.492,0,0,1,.1.669Z" transform="translate(0.127)" fill="#014e78"/>
  <path id="Path_13463" data-name="Path 13463" d="M14.6,15.492a.434.434,0,0,1-.153.307.393.393,0,0,1-.274.125.555.555,0,0,1-.371-.185c-.526-.523-1.058-1.056-1.573-1.572l-.7-.7-.426-.428c-.357-.359-.726-.73-1.1-1.091a.537.537,0,0,1-.179-.434c.005-.637,0-1.283,0-1.907,0-.069,0-.137,0-.207h0V8.851q0-.411,0-.823c0-.622,0-1.266,0-1.9,0-.174.06-.465.414-.465a.75.75,0,0,1,.159.018.365.365,0,0,1,.308.415c0,.676,0,1.365,0,2.031q0,.4,0,.808c0,.175,0,.35,0,.525,0,.491,0,1,0,1.495a1.033,1.033,0,0,0,.324.781c1.13,1.123,2.266,2.259,3.376,3.375a.539.539,0,0,1,.185.375Z" transform="translate(0.127)" fill="#014e78"/>
</svg>
