<svg id="upload_presc" xmlns="http://www.w3.org/2000/svg" width="16" height="16" viewBox="0 0 16 16">
  <rect id="Rectangle_17716" data-name="Rectangle 17716" width="16" height="16" fill="none"/>
  <path id="attach" d="M3.733,0H9.889a2.068,2.068,0,0,1,1.327.584q.526.512,2.581,2.657a3.748,3.748,0,0,1,.4.469,2.221,2.221,0,0,1,.361,1.041q.009.1.009.625V13.8a4.8,4.8,0,0,1-.026.624,1.841,1.841,0,0,1-.525,1.034A1.794,1.794,0,0,1,12.834,16H3.744a1.871,1.871,0,0,1-1.72-1.641q-.014-.118-.014-.624V2.336q0-.522.009-.624A1.839,1.839,0,0,1,2.9.268,1.756,1.756,0,0,1,3.733,0ZM9.065,9.262q.945-.968,1.88-1.945a1.828,1.828,0,0,0,.534-1.294,1.92,1.92,0,0,0-.237-.959,1.779,1.779,0,0,0-.813-.769,1.8,1.8,0,0,0-.583-.161A1.739,1.739,0,0,0,8.7,4.409a2.287,2.287,0,0,0-.37.319Q7.177,5.9,6.035,7.081q-.36.373-.423.448a2.7,2.7,0,0,0-.159,3.211,2.675,2.675,0,0,0,.4.467,2.5,2.5,0,0,0,3.1.249,2.68,2.68,0,0,0,.353-.287q.142-.135.324-.323.857-.883,1.718-1.761a1.175,1.175,0,0,0,.17-.2.342.342,0,0,0-.091-.462.286.286,0,0,0-.3-.042.773.773,0,0,0-.223.178q-.958.992-1.924,1.977a2.661,2.661,0,0,1-.413.361,1.8,1.8,0,0,1-1.038.3,1.886,1.886,0,0,1-.594-.109,1.815,1.815,0,0,1-.951-.763,1.973,1.973,0,0,1-.311-1.227A1.938,1.938,0,0,1,5.958,8.2a3.236,3.236,0,0,1,.395-.472q1.2-1.25,2.412-2.485a1.777,1.777,0,0,1,.342-.287,1.047,1.047,0,0,1,.846-.109,1.183,1.183,0,0,1,.521.306,1.142,1.142,0,0,1,.328.673,1.158,1.158,0,0,1-.06.572,1.431,1.431,0,0,1-.321.494l-1.938,2-.056.063a.558.558,0,0,1-.157.122.385.385,0,0,1-.226.041.39.39,0,0,1-.336-.271A.381.381,0,0,1,7.679,8.7a.454.454,0,0,1,.029-.15.576.576,0,0,1,.126-.178q.726-.76,1.46-1.511l.054-.051a.363.363,0,0,0,.122-.267A.322.322,0,0,0,9.381,6.3a.342.342,0,0,0-.207-.1.3.3,0,0,0-.183.033.625.625,0,0,0-.139.117L7.338,7.9A1.124,1.124,0,0,0,7.4,9.546a1.019,1.019,0,0,0,.708.257,1.07,1.07,0,0,0,.356-.064.88.88,0,0,0,.318-.192Q8.924,9.407,9.065,9.262Z" transform="translate(-0.287)" fill="#014e78"/>
</svg>
