<svg id="waiting_time" data-name="waiting time" xmlns="http://www.w3.org/2000/svg" width="18" height="18" viewBox="0 0 18 18">
  <rect id="Rectangle_17695" data-name="Rectangle 17695" width="18" height="18" transform="translate(0)" fill="none"/>
  <path id="Path_13697" data-name="Path 13697" d="M9.021,0A8.984,8.984,0,1,1,0,8.982,9.019,9.019,0,0,1,9.021,0ZM8.187,6.525h0c0,.8,0,1.607,0,2.411a.815.815,0,0,0,.225.61q1.237,1.24,2.48,2.476a.767.767,0,0,0,.8.191.812.812,0,0,0,.317-1.382Q10.988,9.8,9.958,8.79a.446.446,0,0,1-.146-.35q.008-2.124,0-4.247a1.213,1.213,0,0,0-.092-.48.809.809,0,0,0-1.53.346c-.008.822,0,1.645,0,2.468Z" transform="translate(0 0.016)" fill="#014e78"/>
</svg>
